<svg xmlns="http://www.w3.org/2000/svg" width="375" viewBox="0 0 375 375" height="375" version="1.0"><defs><clipPath id="a"><path d="M 44.210938 37.5 L 332 37.5 L 332 337.5 L 44.210938 337.5 Z M 44.210938 37.5"/></clipPath></defs><g clip-path="url(#a)"><path fill="#0057FF" d="M 310.453125 103.910156 L 331.558594 81.859375 L 285.113281 37.453125 L 263.96875 59.507812 L 253.585938 49.585938 L 66.40625 245.023438 L 64.90625 251.3125 L 44.210938 337.5 L 129.496094 313.050781 L 135.757812 311.253906 L 322.9375 115.855469 Z M 284.324219 100.203125 L 114.503906 277.519531 L 101.121094 264.679688 L 270.941406 87.363281 Z M 254.070312 71.261719 L 265.394531 82.082031 L 95.570312 259.398438 L 84.25 248.578125 Z M 79.636719 311.402344 L 68.765625 300.996094 L 77.726562 263.59375 L 116.640625 300.769531 Z M 131.410156 293.621094 L 120.050781 282.800781 L 289.875 105.484375 L 301.230469 116.304688 Z M 131.410156 293.621094"/></g></svg>