<svg xmlns="http://www.w3.org/2000/svg" width="375" viewBox="0 0 375 375" height="375" version="1.0"><defs><clipPath id="a"><path d="M 58 58 L 317 58 L 317 317.289062 L 58 317.289062 Z M 58 58"/></clipPath></defs><g clip-path="url(#a)"><path fill="#0057FF" d="M 308.527344 292.253906 L 233.429688 292.253906 L 233.429688 296.425781 C 233.429688 303.335938 227.824219 308.945312 220.914062 308.945312 C 214.003906 308.945312 208.398438 303.335938 208.398438 296.425781 L 208.398438 292.253906 L 133.300781 292.253906 L 133.300781 191.003906 C 135.957031 191.246094 138.746094 191.457031 141.644531 191.636719 L 141.644531 283.910156 L 300.183594 283.910156 L 300.183594 192.125 L 308.527344 192.125 Z M 91.582031 130.71875 L 148.636719 156.648438 C 151.699219 158.050781 154.960938 158.75 158.332031 158.75 C 161.707031 158.75 164.964844 158.050781 168.03125 156.648438 L 225.085938 130.71875 L 225.085938 172.878906 C 218.828125 175.765625 197.871094 183.78125 158.332031 183.78125 C 118.78125 183.78125 97.824219 175.765625 91.582031 172.878906 Z M 66.550781 108.6875 C 66.550781 107.789062 67.070312 106.957031 67.902344 106.585938 L 152.089844 68.320312 C 154.0625 67.421875 156.164062 66.964844 158.332031 66.964844 C 160.5 66.964844 162.601562 67.421875 164.574219 68.320312 L 248.765625 106.585938 C 249.582031 106.957031 250.117188 107.789062 250.117188 108.6875 C 250.117188 109.582031 249.582031 110.414062 248.765625 110.789062 L 234.914062 117.078125 L 155.007812 100.421875 L 153.3125 108.605469 L 222.070312 122.914062 L 164.574219 149.054688 C 160.632812 150.847656 156.035156 150.847656 152.089844 149.054688 L 67.902344 110.789062 C 67.070312 110.414062 66.550781 109.582031 66.550781 108.6875 Z M 149.988281 191.996094 C 152.695312 192.078125 155.449219 192.125 158.332031 192.125 C 186.101562 192.125 205.089844 188.347656 216.742188 184.84375 L 216.742188 275.566406 L 149.988281 275.566406 Z M 250.117188 128.765625 L 250.117188 151.171875 C 245.539062 152.820312 242.199219 157.023438 241.855469 162.074219 L 233.558594 195.289062 L 233.429688 208.816406 L 275.148438 208.816406 L 275.148438 196.300781 L 267.964844 167.09375 L 291.839844 167.09375 L 291.839844 275.566406 L 225.085938 275.566406 L 225.085938 181.957031 C 229.0625 180.359375 231.148438 179.171875 231.410156 179.007812 L 233.429688 177.800781 L 233.429688 126.921875 L 235.890625 125.796875 Z M 254.289062 158.75 C 256.585938 158.75 258.460938 160.625 258.460938 162.921875 C 258.460938 165.21875 256.585938 167.09375 254.289062 167.09375 C 251.992188 167.09375 250.117188 165.21875 250.117188 162.921875 C 250.117188 160.625 251.992188 158.75 254.289062 158.75 Z M 247.609375 173.464844 C 249.546875 174.707031 251.828125 175.4375 254.289062 175.4375 C 256.75 175.4375 259.03125 174.707031 260.972656 173.464844 L 266.804688 196.804688 L 266.804688 200.472656 L 241.773438 200.472656 L 241.773438 196.804688 Z M 300.183594 183.78125 L 300.183594 158.75 L 266.039062 158.75 C 264.785156 155.214844 262 152.425781 258.460938 151.171875 L 258.460938 121.984375 L 248.75 119.964844 L 252.21875 118.382812 C 256 116.65625 258.460938 112.859375 258.460938 108.6875 C 258.460938 104.515625 256 100.71875 252.21875 98.988281 L 168.03125 60.722656 C 161.886719 57.9375 154.78125 57.9375 148.636719 60.722656 L 64.445312 98.988281 C 60.664062 100.71875 58.203125 104.515625 58.203125 108.6875 C 58.203125 112.859375 60.664062 116.65625 64.445312 118.382812 L 83.238281 126.921875 L 83.238281 177.800781 L 85.257812 179.007812 C 85.925781 179.414062 98.019531 186.457031 124.957031 190.058594 L 124.957031 300.597656 L 200.476562 300.597656 C 202.417969 310.117188 210.84375 317.289062 220.914062 317.289062 C 230.984375 317.289062 239.410156 310.117188 241.351562 300.597656 L 316.871094 300.597656 L 316.871094 183.78125 L 300.183594 183.78125"/></g><path fill="#0057FF" d="M 166.675781 242.191406 L 200.054688 242.191406 L 200.054688 258.878906 L 166.675781 258.878906 Z M 158.332031 267.222656 L 208.398438 267.222656 L 208.398438 233.847656 L 158.332031 233.847656 L 158.332031 267.222656"/><path fill="#0057FF" d="M 158.332031 225.503906 L 208.398438 225.503906 L 208.398438 217.160156 L 158.332031 217.160156 L 158.332031 225.503906"/><path fill="#0057FF" d="M 158.332031 200.472656 L 158.332031 208.816406 L 208.398438 208.816406 L 208.398438 200.472656 L 158.332031 200.472656"/><path fill="#0057FF" d="M 233.429688 225.503906 L 283.496094 225.503906 L 283.496094 217.160156 L 233.429688 217.160156 L 233.429688 225.503906"/><path fill="#0057FF" d="M 233.429688 242.191406 L 283.496094 242.191406 L 283.496094 233.847656 L 233.429688 233.847656 L 233.429688 242.191406"/><path fill="#0057FF" d="M 233.429688 258.878906 L 283.496094 258.878906 L 283.496094 250.535156 L 233.429688 250.535156 L 233.429688 258.878906"/><path fill="#0057FF" d="M 102.597656 99.984375 L 106.050781 107.578125 L 150.691406 87.289062 L 147.234375 79.695312 L 102.597656 99.984375"/></svg>