<svg xmlns="http://www.w3.org/2000/svg" width="375" viewBox="0 0 375 375" height="375" version="1.0"><defs><clipPath id="a"><path d="M 38 37.5 L 337.5 37.5 L 337.5 337.5 L 38 337.5 Z M 38 37.5"/></clipPath></defs><g clip-path="url(#a)"><path fill="#0057FF" d="M 315.308594 118.921875 L 312.191406 122.023438 L 253.207031 63.058594 L 256.328125 59.9375 C 264.203125 52.0625 274.675781 47.734375 285.828125 47.734375 C 308.816406 47.734375 327.515625 66.433594 327.515625 89.421875 C 327.515625 100.574219 323.1875 111.046875 315.308594 118.921875 Z M 129.253906 304.960938 L 129.253906 278.441406 L 271.554688 136.140625 L 284.8125 149.398438 Z M 56.40625 297.0625 C 61.125 297.804688 66.136719 300.398438 70.308594 304.53125 C 74.558594 308.761719 77.386719 313.910156 78.285156 318.824219 L 49.699219 325.550781 Z M 122.195312 271.382812 L 103.847656 271.382812 L 103.847656 253.054688 L 246.167969 110.753906 L 264.496094 129.082031 Z M 225.851562 90.433594 L 239.109375 103.695312 L 96.789062 245.996094 L 70.289062 245.996094 Z M 66.078125 255.980469 L 93.863281 255.980469 L 93.863281 276.375 C 93.863281 279.144531 96.105469 281.367188 98.855469 281.367188 L 119.269531 281.367188 L 119.269531 309.171875 L 88.011719 316.542969 C 86.667969 309.757812 82.964844 303.03125 77.347656 297.453125 C 71.847656 291.992188 65.277344 288.464844 58.707031 287.234375 Z M 291.871094 142.339844 L 275.085938 125.570312 C 275.085938 125.570312 275.085938 125.550781 275.085938 125.550781 L 232.910156 83.375 L 246.167969 70.117188 L 305.132812 129.082031 Z M 285.828125 37.75 C 272.023438 37.75 259.035156 43.132812 249.269531 52.878906 L 59.777344 242.390625 C 59.117188 243.050781 58.667969 243.871094 58.453125 244.769531 L 38.136719 331.109375 C 37.746094 332.804688 38.234375 334.558594 39.460938 335.789062 C 40.398438 336.722656 41.683594 337.25 42.992188 337.25 C 43.363281 337.25 43.75 337.210938 44.140625 337.113281 L 130.480469 316.796875 C 131.378906 316.582031 132.21875 316.132812 132.859375 315.46875 L 322.367188 125.980469 C 332.117188 116.210938 337.5 103.246094 337.5 89.421875 C 337.5 60.933594 314.316406 37.75 285.828125 37.75"/></g><path fill="#0057FF" d="M 309.011719 69.160156 C 307.0625 71.113281 307.0625 74.269531 309.011719 76.21875 C 315.308594 82.539062 315.308594 92.792969 309.011719 99.113281 C 307.0625 101.0625 307.0625 104.222656 309.011719 106.171875 C 309.988281 107.144531 311.253906 107.632812 312.542969 107.632812 C 313.828125 107.632812 315.097656 107.144531 316.070312 106.171875 C 326.269531 95.972656 326.269531 79.359375 316.070312 69.160156 C 314.121094 67.210938 310.960938 67.210938 309.011719 69.160156"/></svg>