<svg xmlns="http://www.w3.org/2000/svg" width="375" viewBox="0 0 375 375" height="375" version="1.0"><defs><clipPath id="a"><path d="M 49.523438 44.867188 L 324.824219 44.867188 L 324.824219 332.117188 L 49.523438 332.117188 Z M 49.523438 44.867188"/></clipPath></defs><g clip-path="url(#a)"><path fill="#0057FF" d="M 304.105469 108.457031 L 324.289062 87.339844 L 279.875 44.824219 L 259.65625 65.9375 L 249.726562 56.4375 L 70.746094 243.570312 L 69.308594 249.59375 L 49.523438 332.117188 L 131.074219 308.707031 L 137.058594 306.988281 L 316.042969 119.890625 Z M 279.121094 104.90625 L 116.734375 274.6875 L 103.9375 262.390625 L 266.324219 92.609375 Z M 250.191406 77.195312 L 261.019531 87.554688 L 98.632812 257.335938 L 87.808594 246.976562 Z M 83.398438 307.128906 L 73.003906 297.164062 L 81.570312 261.351562 L 118.777344 296.949219 Z M 132.902344 290.101562 L 122.039062 279.742188 L 284.425781 109.960938 L 295.289062 120.320312 Z M 132.902344 290.101562"/></g></svg>