<svg xmlns="http://www.w3.org/2000/svg" width="375" viewBox="0 0 375 375" height="375" version="1.0"><path fill="#0057FF" d="M 362.339844 338.828125 L 253.816406 338.828125 L 253.816406 344.855469 C 253.816406 354.839844 245.71875 362.941406 235.730469 362.941406 C 225.746094 362.941406 217.644531 354.839844 217.644531 344.855469 L 217.644531 338.828125 L 109.125 338.828125 L 109.125 192.507812 C 112.960938 192.859375 116.988281 193.167969 121.183594 193.425781 L 121.183594 326.769531 L 350.28125 326.769531 L 350.28125 194.132812 L 362.339844 194.132812 Z M 48.835938 105.394531 L 131.285156 142.863281 C 135.710938 144.886719 140.421875 145.898438 145.296875 145.898438 C 150.171875 145.898438 154.882812 144.886719 159.308594 142.863281 L 241.761719 105.394531 L 241.761719 166.320312 C 232.71875 170.488281 202.429688 182.074219 145.296875 182.074219 C 88.140625 182.074219 57.855469 170.488281 48.835938 166.320312 Z M 12.660156 73.554688 C 12.660156 72.257812 13.414062 71.058594 14.617188 70.515625 L 136.277344 15.21875 C 139.128906 13.921875 142.164062 13.261719 145.296875 13.261719 C 148.429688 13.261719 151.46875 13.921875 154.316406 15.21875 L 275.980469 70.515625 C 277.15625 71.058594 277.933594 72.257812 277.933594 73.554688 C 277.933594 74.847656 277.15625 76.050781 275.980469 76.589844 L 255.960938 85.679688 L 140.492188 61.613281 L 138.042969 73.433594 L 237.402344 94.113281 L 154.316406 131.886719 C 148.617188 134.476562 141.976562 134.476562 136.277344 131.886719 L 14.617188 76.589844 C 13.414062 76.050781 12.660156 74.847656 12.660156 73.554688 Z M 133.238281 193.945312 C 137.148438 194.0625 141.128906 194.132812 145.296875 194.132812 C 185.425781 194.132812 212.863281 188.667969 229.703125 183.605469 L 229.703125 314.710938 L 133.238281 314.710938 Z M 277.933594 102.566406 L 277.933594 134.949219 C 271.316406 137.328125 266.488281 143.402344 265.992188 150.703125 L 254.007812 198.699219 L 253.816406 218.246094 L 314.109375 218.246094 L 314.109375 200.160156 L 303.722656 157.957031 L 338.222656 157.957031 L 338.222656 314.710938 L 241.761719 314.710938 L 241.761719 179.4375 C 247.507812 177.128906 250.519531 175.410156 250.898438 175.171875 L 253.816406 173.429688 L 253.816406 99.90625 L 257.375 98.28125 Z M 283.964844 145.898438 C 287.285156 145.898438 289.992188 148.609375 289.992188 151.929688 C 289.992188 155.25 287.285156 157.957031 283.964844 157.957031 C 280.640625 157.957031 277.933594 155.25 277.933594 151.929688 C 277.933594 148.609375 280.640625 145.898438 283.964844 145.898438 Z M 274.308594 167.167969 C 277.109375 168.957031 280.40625 170.015625 283.964844 170.015625 C 287.519531 170.015625 290.816406 168.957031 293.617188 167.167969 L 302.050781 200.890625 L 302.050781 206.191406 L 265.875 206.191406 L 265.875 200.890625 Z M 350.28125 182.074219 L 350.28125 145.898438 L 300.941406 145.898438 C 299.128906 140.789062 295.101562 136.761719 289.992188 134.949219 L 289.992188 92.769531 L 275.957031 89.851562 L 280.972656 87.566406 C 286.4375 85.070312 289.992188 79.582031 289.992188 73.554688 C 289.992188 67.523438 286.4375 62.035156 280.972656 59.539062 L 159.308594 4.242188 C 150.429688 0.214844 140.164062 0.214844 131.285156 4.242188 L 9.621094 59.539062 C 4.160156 62.035156 0.601562 67.523438 0.601562 73.554688 C 0.601562 79.582031 4.160156 85.070312 9.621094 87.566406 L 36.777344 99.90625 L 36.777344 173.429688 L 39.695312 175.171875 C 40.664062 175.761719 58.136719 185.9375 97.066406 191.140625 L 97.066406 350.882812 L 206.199219 350.882812 C 209 364.636719 221.175781 375 235.730469 375 C 250.285156 375 262.460938 364.636719 265.265625 350.882812 L 374.398438 350.882812 L 374.398438 182.074219 L 350.28125 182.074219"/><path fill="#0057FF" d="M 157.355469 266.480469 L 205.585938 266.480469 L 205.585938 290.59375 L 157.355469 290.59375 Z M 145.296875 302.652344 L 217.644531 302.652344 L 217.644531 254.421875 L 145.296875 254.421875 L 145.296875 302.652344"/><path fill="#0057FF" d="M 145.296875 242.363281 L 217.644531 242.363281 L 217.644531 230.304688 L 145.296875 230.304688 L 145.296875 242.363281"/><path fill="#0057FF" d="M 145.296875 206.191406 L 145.296875 218.246094 L 217.644531 218.246094 L 217.644531 206.191406 L 145.296875 206.191406"/><path fill="#0057FF" d="M 253.816406 242.363281 L 326.164062 242.363281 L 326.164062 230.304688 L 253.816406 230.304688 L 253.816406 242.363281"/><path fill="#0057FF" d="M 253.816406 266.480469 L 326.164062 266.480469 L 326.164062 254.421875 L 253.816406 254.421875 L 253.816406 266.480469"/><path fill="#0057FF" d="M 253.816406 290.59375 L 326.164062 290.59375 L 326.164062 278.535156 L 253.816406 278.535156 L 253.816406 290.59375"/><path fill="#0057FF" d="M 64.753906 60.976562 L 69.746094 71.953125 L 134.253906 42.632812 L 129.257812 31.65625 L 64.753906 60.976562"/></svg>