<svg xmlns="http://www.w3.org/2000/svg" width="375" viewBox="0 0 375 375" height="375" version="1.0"><defs><clipPath id="a"><path d="M 67.484375 61.246094 L 308.652344 61.246094 L 308.652344 313.246094 L 67.484375 313.246094 Z M 67.484375 61.246094"/></clipPath></defs><g clip-path="url(#a)"><path fill="#0057FF" d="M 290.5 117.03125 L 308.179688 98.507812 L 269.273438 61.207031 L 251.5625 79.730469 L 242.863281 71.398438 L 86.074219 235.566406 L 84.820312 240.847656 L 67.484375 313.246094 L 138.925781 292.707031 L 144.167969 291.199219 L 300.957031 127.0625 Z M 268.613281 113.917969 L 126.363281 262.863281 L 115.152344 252.074219 L 257.402344 103.128906 Z M 243.273438 89.605469 L 252.757812 98.695312 L 110.503906 247.640625 L 101.023438 238.550781 Z M 97.160156 291.324219 L 88.054688 282.582031 L 95.558594 251.164062 L 128.152344 282.394531 Z M 140.527344 276.386719 L 131.011719 267.296875 L 273.261719 118.351562 L 282.777344 127.441406 Z M 140.527344 276.386719"/></g></svg>