<svg xmlns="http://www.w3.org/2000/svg" width="375" viewBox="0 0 375 375" height="375" version="1.0"><defs><clipPath id="a"><path d="M 8.382812 0 L 367 0 L 367 375 L 8.382812 375 Z M 8.382812 0"/></clipPath></defs><g clip-path="url(#a)"><path fill="#0057FF" d="M 340.5 83.015625 L 366.828125 55.449219 L 308.890625 -0.0546875 L 282.515625 27.507812 L 269.5625 15.105469 L 36.070312 259.402344 L 34.199219 267.265625 L 8.382812 375 L 114.773438 344.441406 L 122.582031 342.191406 L 356.074219 97.941406 Z M 307.90625 78.378906 L 96.066406 300.027344 L 79.371094 283.972656 L 291.210938 62.328125 Z M 270.167969 42.203125 L 284.292969 55.730469 L 72.449219 277.375 L 58.328125 263.851562 Z M 52.578125 342.378906 L 39.015625 329.371094 L 50.191406 282.617188 L 98.734375 329.089844 Z M 117.15625 320.148438 L 102.988281 306.625 L 314.828125 84.980469 L 328.996094 98.503906 Z M 117.15625 320.148438"/></g></svg>