<svg xmlns="http://www.w3.org/2000/svg" width="375" viewBox="0 0 375 375" height="375" version="1.0"><defs><clipPath id="a"><path d="M 37.5 38 L 337.5 38 L 337.5 337.5 L 37.5 337.5 Z M 37.5 38"/></clipPath></defs><g clip-path="url(#a)"><path fill="#0057FF" d="M 327.371094 308.5625 L 240.554688 308.5625 L 240.554688 313.382812 C 240.554688 321.371094 234.074219 327.855469 226.085938 327.855469 C 218.097656 327.855469 211.617188 321.371094 211.617188 313.382812 L 211.617188 308.5625 L 124.800781 308.5625 L 124.800781 191.503906 C 127.871094 191.789062 131.089844 192.03125 134.445312 192.238281 L 134.445312 298.914062 L 317.726562 298.914062 L 317.726562 192.804688 L 327.371094 192.804688 Z M 76.566406 121.816406 L 142.527344 151.789062 C 146.070312 153.410156 149.839844 154.21875 153.738281 154.21875 C 157.636719 154.21875 161.40625 153.410156 164.949219 151.789062 L 230.910156 121.816406 L 230.910156 170.554688 C 223.671875 173.890625 199.445312 183.160156 153.738281 183.160156 C 108.011719 183.160156 83.785156 173.890625 76.566406 170.554688 Z M 47.628906 96.34375 C 47.628906 95.304688 48.230469 94.34375 49.191406 93.910156 L 146.523438 49.675781 C 148.800781 48.636719 151.230469 48.109375 153.738281 48.109375 C 156.242188 48.109375 158.675781 48.636719 160.953125 49.675781 L 258.285156 93.910156 C 259.226562 94.34375 259.847656 95.304688 259.847656 96.34375 C 259.847656 97.378906 259.226562 98.339844 258.285156 98.773438 L 242.269531 106.046875 L 149.894531 86.789062 L 147.933594 96.25 L 227.421875 112.789062 L 160.953125 143.011719 C 156.394531 145.082031 151.082031 145.082031 146.523438 143.011719 L 49.191406 98.773438 C 48.230469 98.339844 47.628906 97.378906 47.628906 96.34375 Z M 144.089844 192.65625 C 147.21875 192.75 150.402344 192.804688 153.738281 192.804688 C 185.84375 192.804688 207.792969 188.433594 221.261719 184.382812 L 221.261719 289.269531 L 144.089844 289.269531 Z M 259.847656 119.554688 L 259.847656 145.460938 C 254.554688 147.363281 250.691406 152.222656 250.296875 158.0625 L 240.707031 196.460938 L 240.554688 212.097656 L 288.785156 212.097656 L 288.785156 197.628906 L 280.476562 163.867188 L 308.078125 163.867188 L 308.078125 289.269531 L 230.910156 289.269531 L 230.910156 181.050781 C 235.503906 179.203125 237.917969 177.828125 238.21875 177.640625 L 240.554688 176.246094 L 240.554688 117.425781 L 243.398438 116.125 Z M 264.671875 154.21875 C 267.328125 154.21875 269.492188 156.386719 269.492188 159.042969 C 269.492188 161.699219 267.328125 163.867188 264.671875 163.867188 C 262.015625 163.867188 259.847656 161.699219 259.847656 159.042969 C 259.847656 156.386719 262.015625 154.21875 264.671875 154.21875 Z M 256.945312 171.234375 C 259.1875 172.664062 261.824219 173.511719 264.671875 173.511719 C 267.515625 173.511719 270.152344 172.664062 272.394531 171.234375 L 279.140625 198.210938 L 279.140625 202.453125 L 250.199219 202.453125 L 250.199219 198.210938 Z M 317.726562 183.160156 L 317.726562 154.21875 L 278.253906 154.21875 C 276.804688 150.132812 273.582031 146.910156 269.492188 145.460938 L 269.492188 111.714844 L 258.265625 109.378906 L 262.277344 107.550781 C 266.648438 105.554688 269.492188 101.164062 269.492188 96.34375 C 269.492188 91.519531 266.648438 87.128906 262.277344 85.132812 L 164.949219 40.894531 C 157.84375 37.671875 149.628906 37.671875 142.527344 40.894531 L 45.199219 85.132812 C 40.828125 87.128906 37.980469 91.519531 37.980469 96.34375 C 37.980469 101.164062 40.828125 105.554688 45.199219 107.550781 L 66.921875 117.425781 L 66.921875 176.246094 L 69.257812 177.640625 C 70.03125 178.109375 84.007812 186.25 115.152344 190.414062 L 115.152344 318.207031 L 202.460938 318.207031 C 204.703125 329.210938 214.441406 337.5 226.085938 337.5 C 237.730469 337.5 247.46875 329.210938 249.710938 318.207031 L 337.019531 318.207031 L 337.019531 183.160156 L 317.726562 183.160156"/></g><path fill="#0057FF" d="M 163.382812 250.683594 L 201.96875 250.683594 L 201.96875 269.976562 L 163.382812 269.976562 Z M 153.738281 279.621094 L 211.617188 279.621094 L 211.617188 241.035156 L 153.738281 241.035156 L 153.738281 279.621094"/><path fill="#0057FF" d="M 153.738281 231.390625 L 211.617188 231.390625 L 211.617188 221.746094 L 153.738281 221.746094 L 153.738281 231.390625"/><path fill="#0057FF" d="M 153.738281 202.453125 L 153.738281 212.097656 L 211.617188 212.097656 L 211.617188 202.453125 L 153.738281 202.453125"/><path fill="#0057FF" d="M 240.554688 231.390625 L 298.433594 231.390625 L 298.433594 221.746094 L 240.554688 221.746094 L 240.554688 231.390625"/><path fill="#0057FF" d="M 240.554688 250.683594 L 298.433594 250.683594 L 298.433594 241.035156 L 240.554688 241.035156 L 240.554688 250.683594"/><path fill="#0057FF" d="M 240.554688 269.976562 L 298.433594 269.976562 L 298.433594 260.328125 L 240.554688 260.328125 L 240.554688 269.976562"/><path fill="#0057FF" d="M 89.304688 86.28125 L 93.296875 95.0625 L 144.902344 71.605469 L 140.90625 62.824219 L 89.304688 86.28125"/></svg>