<svg xmlns="http://www.w3.org/2000/svg" width="375" viewBox="0 0 375 375" height="375" version="1.0"><defs><clipPath id="a"><path d="M 29.816406 21.488281 L 347 21.488281 L 347 352.238281 L 29.816406 352.238281 Z M 29.816406 21.488281"/></clipPath></defs><g clip-path="url(#a)"><path fill="#0057FF" d="M 323.507812 94.707031 L 346.789062 70.394531 L 295.554688 21.441406 L 272.230469 45.753906 L 260.773438 34.8125 L 54.296875 250.285156 L 52.644531 257.21875 L 29.816406 352.238281 L 123.894531 325.285156 L 130.800781 323.304688 L 337.277344 107.875 Z M 294.683594 90.621094 L 107.355469 286.113281 L 92.589844 271.953125 L 279.921875 76.464844 Z M 261.3125 58.714844 L 273.800781 70.644531 L 86.472656 266.132812 L 73.980469 254.203125 Z M 68.894531 323.46875 L 56.902344 311.992188 L 66.785156 270.757812 L 109.710938 311.746094 Z M 126.003906 303.863281 L 113.476562 291.933594 L 300.804688 96.441406 L 313.335938 108.371094 Z M 126.003906 303.863281"/></g></svg>