<svg xmlns="http://www.w3.org/2000/svg" width="375" viewBox="0 0 375 375" height="375" version="1.0"><defs><clipPath id="a"><path d="M 11.277344 10.421875 L 364.527344 10.421875 L 364.527344 363.671875 L 11.277344 363.671875 Z M 11.277344 10.421875"/></clipPath></defs><g clip-path="url(#a)"><path fill="#0057FF" d="M 349.167969 71.855469 L 264.695312 71.855469 L 264.695312 69.78125 C 264.691406 67.839844 264.59375 65.902344 264.402344 63.964844 C 264.207031 62.03125 263.921875 60.113281 263.539062 58.207031 C 263.160156 56.300781 262.6875 54.417969 262.121094 52.558594 C 261.554688 50.699219 260.898438 48.875 260.15625 47.078125 C 259.410156 45.28125 258.578125 43.527344 257.664062 41.816406 C 256.746094 40.101562 255.746094 38.4375 254.667969 36.820312 C 253.585938 35.207031 252.429688 33.648438 251.195312 32.144531 C 249.964844 30.644531 248.660156 29.203125 247.285156 27.832031 C 245.910156 26.457031 244.472656 25.152344 242.96875 23.917969 C 241.46875 22.6875 239.910156 21.53125 238.292969 20.449219 C 236.679688 19.367188 235.015625 18.371094 233.300781 17.453125 C 231.585938 16.535156 229.832031 15.707031 228.039062 14.960938 C 226.242188 14.214844 224.414062 13.558594 222.554688 12.996094 C 220.695312 12.429688 218.8125 11.957031 216.910156 11.574219 C 215.003906 11.195312 213.082031 10.90625 211.148438 10.714844 C 209.214844 10.523438 207.277344 10.425781 205.332031 10.421875 L 170.46875 10.421875 C 168.523438 10.425781 166.585938 10.523438 164.652344 10.714844 C 162.71875 10.90625 160.796875 11.195312 158.894531 11.574219 C 156.988281 11.957031 155.105469 12.429688 153.246094 12.996094 C 151.386719 13.558594 149.558594 14.214844 147.765625 14.960938 C 145.96875 15.707031 144.214844 16.535156 142.5 17.453125 C 140.789062 18.371094 139.121094 19.367188 137.507812 20.449219 C 135.890625 21.53125 134.332031 22.6875 132.832031 23.917969 C 131.328125 25.152344 129.890625 26.457031 128.515625 27.832031 C 127.140625 29.203125 125.839844 30.644531 124.605469 32.144531 C 123.371094 33.648438 122.214844 35.207031 121.136719 36.820312 C 120.054688 38.4375 119.054688 40.101562 118.140625 41.816406 C 117.222656 43.527344 116.390625 45.28125 115.644531 47.078125 C 114.902344 48.875 114.246094 50.699219 113.679688 52.558594 C 113.113281 54.417969 112.640625 56.300781 112.261719 58.207031 C 111.878906 60.113281 111.59375 62.03125 111.398438 63.964844 C 111.207031 65.902344 111.109375 67.839844 111.105469 69.78125 L 111.105469 71.855469 L 26.632812 71.855469 C 25.625 71.855469 24.628906 71.953125 23.636719 72.152344 C 22.648438 72.347656 21.6875 72.640625 20.757812 73.023438 C 19.824219 73.410156 18.941406 73.882812 18.101562 74.445312 C 17.261719 75.003906 16.488281 75.640625 15.773438 76.355469 C 15.0625 77.066406 14.425781 77.84375 13.863281 78.683594 C 13.304688 79.519531 12.832031 80.40625 12.445312 81.335938 C 12.058594 82.269531 11.765625 83.230469 11.570312 84.21875 C 11.375 85.207031 11.277344 86.207031 11.277344 87.214844 L 11.277344 348.3125 C 11.277344 349.320312 11.375 350.320312 11.570312 351.308594 C 11.765625 352.296875 12.058594 353.257812 12.445312 354.191406 C 12.832031 355.121094 13.304688 356.007812 13.863281 356.84375 C 14.425781 357.683594 15.0625 358.460938 15.773438 359.171875 C 16.488281 359.886719 17.261719 360.523438 18.101562 361.082031 C 18.941406 361.644531 19.824219 362.117188 20.757812 362.503906 C 21.6875 362.886719 22.648438 363.179688 23.636719 363.375 C 24.628906 363.574219 25.625 363.671875 26.632812 363.671875 L 349.167969 363.671875 C 350.175781 363.671875 351.175781 363.574219 352.164062 363.375 C 353.152344 363.179688 354.113281 362.886719 355.042969 362.503906 C 355.976562 362.117188 356.859375 361.644531 357.699219 361.082031 C 358.539062 360.523438 359.3125 359.886719 360.027344 359.171875 C 360.738281 358.460938 361.375 357.683594 361.9375 356.84375 C 362.496094 356.007812 362.96875 355.121094 363.355469 354.191406 C 363.742188 353.257812 364.035156 352.296875 364.230469 351.308594 C 364.425781 350.320312 364.527344 349.320312 364.527344 348.3125 L 364.527344 87.214844 C 364.527344 86.207031 364.425781 85.207031 364.230469 84.21875 C 364.035156 83.230469 363.742188 82.269531 363.355469 81.335938 C 362.96875 80.40625 362.496094 79.519531 361.9375 78.683594 C 361.375 77.84375 360.738281 77.066406 360.027344 76.355469 C 359.3125 75.640625 358.539062 75.003906 357.699219 74.445312 C 356.859375 73.882812 355.976562 73.410156 355.042969 73.023438 C 354.113281 72.640625 353.152344 72.347656 352.164062 72.152344 C 351.175781 71.953125 350.175781 71.855469 349.167969 71.855469 Z M 141.824219 69.78125 C 141.828125 68.84375 141.875 67.910156 141.96875 66.976562 C 142.0625 66.042969 142.203125 65.117188 142.386719 64.199219 C 142.574219 63.28125 142.800781 62.371094 143.074219 61.476562 C 143.347656 60.578125 143.664062 59.699219 144.023438 58.832031 C 144.386719 57.96875 144.785156 57.121094 145.230469 56.296875 C 145.671875 55.46875 146.152344 54.667969 146.675781 53.886719 C 147.195312 53.109375 147.753906 52.355469 148.351562 51.632812 C 148.945312 50.90625 149.574219 50.214844 150.238281 49.550781 C 150.898438 48.886719 151.59375 48.257812 152.316406 47.664062 C 153.042969 47.070312 153.792969 46.511719 154.574219 45.988281 C 155.351562 45.46875 156.15625 44.984375 156.980469 44.542969 C 157.808594 44.101562 158.652344 43.699219 159.519531 43.339844 C 160.382812 42.980469 161.265625 42.664062 162.164062 42.390625 C 163.058594 42.117188 163.964844 41.886719 164.886719 41.703125 C 165.804688 41.515625 166.730469 41.378906 167.664062 41.285156 C 168.597656 41.191406 169.53125 41.140625 170.46875 41.140625 L 205.257812 41.140625 C 206.195312 41.140625 207.132812 41.183594 208.066406 41.277344 C 209 41.367188 209.929688 41.507812 210.851562 41.6875 C 211.769531 41.871094 212.679688 42.097656 213.578125 42.371094 C 214.476562 42.644531 215.363281 42.957031 216.230469 43.316406 C 217.097656 43.675781 217.945312 44.078125 218.773438 44.519531 C 219.601562 44.960938 220.40625 45.441406 221.1875 45.964844 C 221.96875 46.484375 222.722656 47.042969 223.449219 47.636719 C 224.175781 48.230469 224.871094 48.859375 225.539062 49.523438 C 226.203125 50.1875 226.832031 50.882812 227.429688 51.605469 C 228.027344 52.332031 228.585938 53.082031 229.109375 53.863281 C 229.632812 54.644531 230.117188 55.445312 230.558594 56.273438 C 231.003906 57.101562 231.40625 57.949219 231.769531 58.816406 C 232.128906 59.683594 232.449219 60.566406 232.722656 61.460938 C 232.996094 62.359375 233.226562 63.269531 233.410156 64.191406 C 233.597656 65.109375 233.738281 66.039062 233.832031 66.972656 C 233.925781 67.90625 233.972656 68.84375 233.976562 69.78125 L 233.976562 71.855469 L 141.824219 71.855469 Z M 126.464844 102.574219 L 333.808594 102.574219 L 333.808594 187.046875 L 226.296875 187.046875 L 226.296875 171.6875 C 226.296875 170.679688 226.199219 169.679688 226.003906 168.691406 C 225.804688 167.703125 225.515625 166.742188 225.128906 165.808594 C 224.742188 164.878906 224.269531 163.992188 223.707031 163.15625 C 223.148438 162.316406 222.511719 161.539062 221.800781 160.828125 C 221.085938 160.113281 220.308594 159.476562 219.472656 158.917969 C 218.632812 158.355469 217.746094 157.882812 216.816406 157.5 C 215.882812 157.113281 214.925781 156.820312 213.933594 156.625 C 212.945312 156.425781 211.945312 156.328125 210.9375 156.328125 L 164.863281 156.328125 C 163.855469 156.328125 162.855469 156.425781 161.867188 156.625 C 160.878906 156.820312 159.917969 157.113281 158.984375 157.5 C 158.054688 157.882812 157.167969 158.355469 156.328125 158.917969 C 155.492188 159.476562 154.714844 160.113281 154.003906 160.828125 C 153.289062 161.539062 152.652344 162.316406 152.09375 163.15625 C 151.53125 163.992188 151.058594 164.878906 150.671875 165.808594 C 150.285156 166.742188 149.996094 167.703125 149.800781 168.691406 C 149.601562 169.679688 149.503906 170.679688 149.503906 171.6875 L 149.503906 187.046875 L 41.992188 187.046875 L 41.992188 102.574219 Z M 195.578125 187.046875 L 195.578125 217.765625 L 180.222656 217.765625 L 180.222656 187.046875 Z M 41.992188 332.953125 L 41.992188 217.765625 L 149.503906 217.765625 L 149.503906 233.121094 C 149.503906 234.132812 149.601562 235.128906 149.800781 236.117188 C 149.996094 237.109375 150.285156 238.066406 150.671875 239 C 151.058594 239.933594 151.53125 240.816406 152.09375 241.65625 C 152.652344 242.492188 153.289062 243.269531 154.003906 243.984375 C 154.714844 244.695312 155.492188 245.332031 156.328125 245.894531 C 157.167969 246.453125 158.054688 246.925781 158.984375 247.3125 C 159.917969 247.699219 160.878906 247.988281 161.867188 248.1875 C 162.855469 248.382812 163.855469 248.480469 164.863281 248.480469 L 210.9375 248.480469 C 211.945312 248.480469 212.945312 248.382812 213.933594 248.1875 C 214.925781 247.988281 215.882812 247.699219 216.816406 247.3125 C 217.746094 246.925781 218.632812 246.453125 219.472656 245.894531 C 220.308594 245.332031 221.085938 244.695312 221.800781 243.984375 C 222.511719 243.269531 223.148438 242.492188 223.707031 241.65625 C 224.269531 240.816406 224.742188 239.933594 225.128906 239 C 225.515625 238.066406 225.804688 237.109375 226.003906 236.117188 C 226.199219 235.128906 226.296875 234.132812 226.296875 233.121094 L 226.296875 217.765625 L 333.808594 217.765625 L 333.808594 332.953125 Z M 41.992188 332.953125"/></g></svg>