<svg xmlns="http://www.w3.org/2000/svg" width="375" viewBox="0 0 375 375" height="375" version="1.0"><defs><clipPath id="a"><path d="M 45 299 L 337.5 299 L 337.5 337 L 45 337 Z M 45 299"/></clipPath></defs><path fill="#0057FF" d="M 255.300781 203.691406 C 254.101562 203.691406 252.910156 203.632812 251.71875 203.511719 C 250.527344 203.394531 249.347656 203.21875 248.175781 202.984375 C 247 202.75 245.84375 202.457031 244.699219 202.109375 C 243.554688 201.761719 242.429688 201.359375 241.324219 200.902344 C 240.21875 200.441406 239.140625 199.929688 238.085938 199.367188 C 237.03125 198.804688 236.007812 198.1875 235.011719 197.523438 C 234.015625 196.859375 233.058594 196.148438 232.132812 195.386719 C 231.207031 194.628906 230.324219 193.828125 229.476562 192.980469 C 228.632812 192.136719 227.828125 191.25 227.070312 190.324219 C 226.3125 189.402344 225.601562 188.441406 224.933594 187.449219 C 224.269531 186.453125 223.65625 185.429688 223.089844 184.375 C 222.527344 183.320312 222.015625 182.238281 221.558594 181.136719 C 221.097656 180.03125 220.695312 178.90625 220.347656 177.761719 C 220 176.617188 219.707031 175.457031 219.472656 174.285156 C 219.238281 173.113281 219.0625 171.929688 218.945312 170.742188 C 218.828125 169.550781 218.765625 168.359375 218.765625 167.160156 L 218.765625 144.332031 C 218.765625 144.03125 218.792969 143.734375 218.851562 143.4375 C 218.910156 143.144531 219 142.859375 219.113281 142.582031 C 219.226562 142.304688 219.367188 142.042969 219.535156 141.792969 C 219.703125 141.542969 219.890625 141.3125 220.101562 141.101562 C 220.316406 140.890625 220.546875 140.699219 220.796875 140.535156 C 221.042969 140.367188 221.308594 140.226562 221.585938 140.113281 C 221.863281 139.996094 222.148438 139.910156 222.441406 139.851562 C 222.734375 139.792969 223.03125 139.765625 223.332031 139.765625 C 223.785156 139.789062 224.242188 139.789062 224.695312 139.765625 C 225.152344 139.742188 225.605469 139.695312 226.054688 139.625 C 226.503906 139.550781 226.949219 139.457031 227.390625 139.339844 C 227.828125 139.222656 228.261719 139.082031 228.6875 138.917969 C 229.113281 138.757812 229.527344 138.570312 229.933594 138.363281 C 230.339844 138.160156 230.734375 137.929688 231.117188 137.683594 C 231.5 137.433594 231.867188 137.167969 232.222656 136.882812 C 232.574219 136.59375 232.914062 136.289062 233.234375 135.96875 C 233.558594 135.644531 233.863281 135.308594 234.148438 134.953125 C 234.4375 134.597656 234.703125 134.230469 234.953125 133.847656 C 235.199219 133.46875 235.425781 133.074219 235.632812 132.667969 C 235.839844 132.261719 236.023438 131.84375 236.1875 131.421875 C 236.351562 130.996094 236.492188 130.5625 236.609375 130.121094 C 236.726562 129.683594 236.820312 129.238281 236.890625 128.785156 C 236.960938 128.335938 237.011719 127.882812 237.035156 127.429688 C 237.058594 126.972656 237.054688 126.519531 237.03125 126.066406 C 237.03125 125.765625 237.0625 125.46875 237.121094 125.175781 C 237.179688 124.878906 237.265625 124.59375 237.378906 124.316406 C 237.496094 124.039062 237.636719 123.777344 237.800781 123.527344 C 237.96875 123.277344 238.15625 123.046875 238.371094 122.835938 C 238.582031 122.625 238.8125 122.433594 239.0625 122.269531 C 239.3125 122.101562 239.574219 121.960938 239.851562 121.847656 C 240.128906 121.730469 240.414062 121.644531 240.707031 121.585938 C 241.003906 121.527344 241.300781 121.5 241.597656 121.5 C 241.898438 121.5 242.195312 121.527344 242.488281 121.585938 C 242.785156 121.644531 243.070312 121.730469 243.347656 121.847656 C 243.625 121.960938 243.886719 122.101562 244.136719 122.269531 C 244.386719 122.433594 244.617188 122.625 244.828125 122.835938 C 245.039062 123.046875 245.230469 123.277344 245.394531 123.527344 C 245.5625 123.777344 245.703125 124.039062 245.816406 124.316406 C 245.933594 124.59375 246.019531 124.878906 246.078125 125.175781 C 246.136719 125.46875 246.164062 125.765625 246.164062 126.066406 C 246.164062 126.066406 247.824219 139.765625 287.265625 139.765625 C 287.566406 139.765625 287.863281 139.792969 288.15625 139.851562 C 288.449219 139.910156 288.738281 139.996094 289.015625 140.113281 C 289.289062 140.226562 289.554688 140.367188 289.804688 140.535156 C 290.050781 140.699219 290.28125 140.890625 290.496094 141.101562 C 290.707031 141.3125 290.898438 141.542969 291.0625 141.792969 C 291.230469 142.042969 291.371094 142.304688 291.484375 142.582031 C 291.601562 142.859375 291.6875 143.144531 291.746094 143.4375 C 291.804688 143.734375 291.832031 144.03125 291.832031 144.332031 L 291.832031 167.160156 C 291.832031 168.359375 291.773438 169.550781 291.652344 170.742188 C 291.535156 171.929688 291.359375 173.113281 291.125 174.285156 C 290.890625 175.457031 290.597656 176.617188 290.25 177.761719 C 289.902344 178.90625 289.5 180.03125 289.039062 181.136719 C 288.582031 182.238281 288.070312 183.320312 287.507812 184.375 C 286.941406 185.429688 286.328125 186.453125 285.664062 187.449219 C 285 188.441406 284.285156 189.402344 283.527344 190.324219 C 282.769531 191.25 281.964844 192.136719 281.121094 192.980469 C 280.273438 193.828125 279.390625 194.628906 278.464844 195.386719 C 277.539062 196.148438 276.582031 196.859375 275.585938 197.523438 C 274.59375 198.1875 273.566406 198.804688 272.511719 199.367188 C 271.457031 199.929688 270.378906 200.441406 269.273438 200.902344 C 268.167969 201.359375 267.042969 201.761719 265.898438 202.109375 C 264.753906 202.457031 263.597656 202.75 262.421875 202.984375 C 261.25 203.21875 260.070312 203.394531 258.878906 203.511719 C 257.6875 203.632812 256.496094 203.691406 255.300781 203.691406 Z M 227.898438 148.441406 L 227.898438 167.160156 C 227.898438 168.058594 227.941406 168.953125 228.03125 169.847656 C 228.117188 170.742188 228.25 171.628906 228.425781 172.507812 C 228.601562 173.386719 228.816406 174.257812 229.078125 175.117188 C 229.339844 175.972656 229.640625 176.816406 229.984375 177.648438 C 230.328125 178.476562 230.710938 179.285156 231.132812 180.078125 C 231.558594 180.867188 232.019531 181.636719 232.515625 182.382812 C 233.015625 183.128906 233.550781 183.847656 234.117188 184.542969 C 234.6875 185.238281 235.289062 185.902344 235.925781 186.535156 C 236.558594 187.171875 237.222656 187.773438 237.917969 188.339844 C 238.609375 188.910156 239.332031 189.445312 240.078125 189.941406 C 240.824219 190.441406 241.589844 190.902344 242.382812 191.324219 C 243.175781 191.746094 243.984375 192.132812 244.8125 192.472656 C 245.640625 192.816406 246.488281 193.121094 247.34375 193.378906 C 248.203125 193.640625 249.074219 193.859375 249.953125 194.035156 C 250.832031 194.207031 251.71875 194.339844 252.613281 194.429688 C 253.507812 194.515625 254.402344 194.558594 255.300781 194.558594 C 256.195312 194.558594 257.089844 194.515625 257.984375 194.429688 C 258.878906 194.339844 259.765625 194.207031 260.644531 194.035156 C 261.523438 193.859375 262.394531 193.640625 263.253906 193.378906 C 264.113281 193.121094 264.957031 192.816406 265.785156 192.472656 C 266.613281 192.132812 267.425781 191.746094 268.214844 191.324219 C 269.007812 190.902344 269.777344 190.441406 270.523438 189.941406 C 271.269531 189.445312 271.988281 188.910156 272.679688 188.339844 C 273.375 187.773438 274.039062 187.171875 274.675781 186.535156 C 275.308594 185.902344 275.910156 185.238281 276.480469 184.542969 C 277.050781 183.847656 277.582031 183.128906 278.082031 182.382812 C 278.582031 181.636719 279.039062 180.867188 279.464844 180.078125 C 279.886719 179.285156 280.269531 178.476562 280.613281 177.648438 C 280.957031 176.816406 281.257812 175.972656 281.519531 175.117188 C 281.78125 174.257812 281.996094 173.386719 282.171875 172.507812 C 282.347656 171.628906 282.480469 170.742188 282.566406 169.847656 C 282.65625 168.953125 282.699219 168.058594 282.699219 167.160156 L 282.699219 148.832031 C 260.660156 148.222656 249.253906 143.152344 243.347656 137.933594 C 242.519531 139.316406 241.550781 140.59375 240.445312 141.769531 C 239.335938 142.941406 238.117188 143.980469 236.78125 144.890625 C 235.449219 145.796875 234.03125 146.550781 232.535156 147.148438 C 231.035156 147.746094 229.492188 148.179688 227.898438 148.441406 Z M 227.898438 148.441406"/><path fill="#0057FF" d="M 305.53125 158.027344 L 296.398438 158.027344 L 296.398438 130.632812 C 296.398438 129.285156 296.332031 127.941406 296.203125 126.601562 C 296.070312 125.261719 295.871094 123.933594 295.609375 122.613281 C 295.347656 121.292969 295.019531 119.988281 294.628906 118.703125 C 294.238281 117.414062 293.785156 116.148438 293.269531 114.902344 C 292.753906 113.660156 292.179688 112.445312 291.546875 111.257812 C 290.910156 110.070312 290.21875 108.917969 289.472656 107.796875 C 288.726562 106.679688 287.925781 105.601562 287.070312 104.558594 C 286.214844 103.519531 285.3125 102.523438 284.363281 101.570312 C 283.410156 100.621094 282.414062 99.714844 281.371094 98.863281 C 280.332031 98.007812 279.253906 97.207031 278.132812 96.460938 C 277.015625 95.710938 275.859375 95.019531 274.671875 94.386719 C 273.488281 93.753906 272.269531 93.175781 271.027344 92.664062 C 269.785156 92.148438 268.519531 91.695312 267.230469 91.304688 C 265.941406 90.914062 264.636719 90.585938 263.316406 90.324219 C 261.996094 90.0625 260.667969 89.863281 259.328125 89.730469 C 257.988281 89.601562 256.644531 89.535156 255.300781 89.535156 C 253.953125 89.535156 252.609375 89.601562 251.269531 89.730469 C 249.929688 89.863281 248.601562 90.0625 247.28125 90.324219 C 245.960938 90.585938 244.65625 90.914062 243.367188 91.304688 C 242.082031 91.695312 240.8125 92.148438 239.570312 92.664062 C 238.328125 93.175781 237.113281 93.753906 235.925781 94.386719 C 234.738281 95.019531 233.585938 95.710938 232.464844 96.460938 C 231.34375 97.207031 230.265625 98.007812 229.226562 98.863281 C 228.183594 99.714844 227.1875 100.621094 226.238281 101.570312 C 225.285156 102.523438 224.382812 103.519531 223.527344 104.558594 C 222.675781 105.601562 221.875 106.679688 221.125 107.796875 C 220.378906 108.917969 219.6875 110.070312 219.050781 111.257812 C 218.417969 112.445312 217.84375 113.660156 217.328125 114.902344 C 216.8125 116.148438 216.359375 117.414062 215.96875 118.703125 C 215.578125 119.988281 215.25 121.292969 214.988281 122.613281 C 214.726562 123.933594 214.527344 125.261719 214.398438 126.601562 C 214.265625 127.941406 214.199219 129.285156 214.199219 130.632812 L 214.199219 158.027344 L 205.066406 158.027344 L 205.066406 130.632812 C 205.066406 128.984375 205.144531 127.34375 205.308594 125.707031 C 205.46875 124.070312 205.710938 122.445312 206.03125 120.832031 C 206.351562 119.21875 206.75 117.625 207.226562 116.050781 C 207.707031 114.476562 208.257812 112.929688 208.890625 111.410156 C 209.519531 109.890625 210.222656 108.402344 210.996094 106.953125 C 211.773438 105.503906 212.617188 104.09375 213.53125 102.726562 C 214.445312 101.355469 215.425781 100.039062 216.46875 98.765625 C 217.511719 97.492188 218.613281 96.277344 219.777344 95.113281 C 220.941406 93.949219 222.160156 92.847656 223.429688 91.804688 C 224.703125 90.757812 226.023438 89.78125 227.390625 88.867188 C 228.757812 87.953125 230.167969 87.109375 231.617188 86.332031 C 233.070312 85.558594 234.554688 84.855469 236.074219 84.226562 C 237.59375 83.59375 239.140625 83.042969 240.71875 82.5625 C 242.292969 82.085938 243.886719 81.6875 245.5 81.367188 C 247.113281 81.046875 248.738281 80.804688 250.375 80.644531 C 252.011719 80.480469 253.652344 80.402344 255.300781 80.402344 C 256.945312 80.402344 258.585938 80.480469 260.222656 80.644531 C 261.859375 80.804688 263.484375 81.046875 265.097656 81.367188 C 266.710938 81.6875 268.308594 82.085938 269.882812 82.5625 C 271.457031 83.042969 273.003906 83.59375 274.523438 84.226562 C 276.042969 84.855469 277.527344 85.558594 278.980469 86.332031 C 280.429688 87.109375 281.839844 87.953125 283.207031 88.867188 C 284.574219 89.78125 285.894531 90.757812 287.167969 91.804688 C 288.4375 92.847656 289.65625 93.949219 290.820312 95.113281 C 291.984375 96.277344 293.085938 97.492188 294.128906 98.765625 C 295.175781 100.039062 296.152344 101.355469 297.066406 102.726562 C 297.980469 104.09375 298.824219 105.503906 299.601562 106.953125 C 300.375 108.402344 301.078125 109.890625 301.710938 111.410156 C 302.339844 112.929688 302.890625 114.476562 303.371094 116.050781 C 303.847656 117.625 304.246094 119.21875 304.566406 120.832031 C 304.890625 122.445312 305.128906 124.070312 305.292969 125.707031 C 305.453125 127.34375 305.53125 128.984375 305.53125 130.632812 Z M 305.53125 158.027344"/><path fill="#0057FF" d="M 287.265625 176.292969 L 287.265625 167.160156 C 287.867188 167.160156 288.460938 167.101562 289.046875 166.988281 C 289.636719 166.871094 290.207031 166.695312 290.761719 166.464844 C 291.316406 166.238281 291.839844 165.957031 292.339844 165.621094 C 292.839844 165.289062 293.300781 164.910156 293.722656 164.488281 C 294.148438 164.0625 294.527344 163.601562 294.859375 163.101562 C 295.195312 162.605469 295.476562 162.078125 295.703125 161.523438 C 295.933594 160.96875 296.105469 160.398438 296.222656 159.8125 C 296.339844 159.222656 296.398438 158.628906 296.398438 158.027344 C 296.398438 157.429688 296.339844 156.835938 296.222656 156.246094 C 296.105469 155.660156 295.933594 155.089844 295.703125 154.535156 C 295.476562 153.980469 295.195312 153.453125 294.859375 152.957031 C 294.527344 152.457031 294.148438 151.996094 293.722656 151.570312 C 293.300781 151.148438 292.839844 150.769531 292.339844 150.4375 C 291.839844 150.101562 291.316406 149.820312 290.761719 149.589844 C 290.207031 149.363281 289.636719 149.1875 289.046875 149.070312 C 288.460938 148.953125 287.867188 148.898438 287.265625 148.898438 L 287.265625 139.765625 C 287.863281 139.765625 288.460938 139.792969 289.054688 139.851562 C 289.652344 139.910156 290.242188 140 290.828125 140.113281 C 291.417969 140.230469 291.996094 140.375 292.570312 140.550781 C 293.140625 140.722656 293.703125 140.925781 294.257812 141.152344 C 294.808594 141.382812 295.347656 141.636719 295.878906 141.921875 C 296.40625 142.203125 296.917969 142.507812 297.414062 142.84375 C 297.910156 143.175781 298.390625 143.53125 298.855469 143.910156 C 299.316406 144.289062 299.757812 144.691406 300.183594 145.113281 C 300.605469 145.535156 301.007812 145.980469 301.386719 146.441406 C 301.765625 146.902344 302.121094 147.382812 302.453125 147.882812 C 302.785156 148.378906 303.09375 148.890625 303.375 149.417969 C 303.65625 149.945312 303.914062 150.488281 304.140625 151.039062 C 304.371094 151.59375 304.574219 152.15625 304.746094 152.726562 C 304.921875 153.300781 305.066406 153.878906 305.183594 154.464844 C 305.296875 155.050781 305.386719 155.644531 305.445312 156.238281 C 305.503906 156.835938 305.53125 157.429688 305.53125 158.027344 C 305.53125 158.628906 305.503906 159.222656 305.445312 159.820312 C 305.386719 160.414062 305.296875 161.007812 305.183594 161.59375 C 305.066406 162.179688 304.921875 162.757812 304.746094 163.332031 C 304.574219 163.902344 304.371094 164.464844 304.140625 165.019531 C 303.914062 165.570312 303.65625 166.113281 303.375 166.640625 C 303.09375 167.167969 302.785156 167.679688 302.453125 168.175781 C 302.121094 168.675781 301.765625 169.15625 301.386719 169.617188 C 301.007812 170.078125 300.605469 170.523438 300.183594 170.945312 C 299.757812 171.367188 299.316406 171.769531 298.855469 172.148438 C 298.390625 172.527344 297.910156 172.882812 297.414062 173.214844 C 296.917969 173.546875 296.40625 173.855469 295.878906 174.136719 C 295.347656 174.421875 294.808594 174.675781 294.257812 174.90625 C 293.703125 175.132812 293.140625 175.335938 292.570312 175.507812 C 291.996094 175.683594 291.417969 175.828125 290.828125 175.945312 C 290.242188 176.058594 289.652344 176.148438 289.054688 176.207031 C 288.460938 176.265625 287.863281 176.292969 287.265625 176.292969 Z M 287.265625 176.292969"/><path fill="#0057FF" d="M 223.332031 176.292969 C 222.734375 176.292969 222.136719 176.265625 221.542969 176.207031 C 220.945312 176.148438 220.355469 176.058594 219.769531 175.945312 C 219.179688 175.828125 218.601562 175.683594 218.03125 175.507812 C 217.457031 175.335938 216.894531 175.132812 216.339844 174.90625 C 215.789062 174.675781 215.25 174.421875 214.722656 174.136719 C 214.195312 173.855469 213.679688 173.546875 213.183594 173.214844 C 212.6875 172.882812 212.207031 172.527344 211.742188 172.148438 C 211.28125 171.769531 210.839844 171.367188 210.414062 170.945312 C 209.992188 170.523438 209.589844 170.078125 209.210938 169.617188 C 208.832031 169.15625 208.476562 168.675781 208.144531 168.175781 C 207.8125 167.679688 207.503906 167.167969 207.222656 166.640625 C 206.941406 166.113281 206.683594 165.570312 206.457031 165.019531 C 206.226562 164.464844 206.027344 163.902344 205.851562 163.332031 C 205.679688 162.757812 205.53125 162.179688 205.417969 161.59375 C 205.300781 161.007812 205.210938 160.414062 205.152344 159.820312 C 205.09375 159.222656 205.066406 158.628906 205.066406 158.027344 C 205.066406 157.429688 205.09375 156.835938 205.152344 156.238281 C 205.210938 155.644531 205.300781 155.050781 205.417969 154.464844 C 205.53125 153.878906 205.679688 153.300781 205.851562 152.726562 C 206.027344 152.15625 206.226562 151.59375 206.457031 151.039062 C 206.683594 150.488281 206.941406 149.945312 207.222656 149.417969 C 207.503906 148.890625 207.8125 148.378906 208.144531 147.882812 C 208.476562 147.382812 208.832031 146.902344 209.210938 146.441406 C 209.589844 145.980469 209.992188 145.535156 210.414062 145.113281 C 210.839844 144.691406 211.28125 144.289062 211.742188 143.910156 C 212.207031 143.53125 212.6875 143.175781 213.183594 142.84375 C 213.679688 142.507812 214.195312 142.203125 214.722656 141.921875 C 215.25 141.636719 215.789062 141.382812 216.339844 141.152344 C 216.894531 140.925781 217.457031 140.722656 218.03125 140.550781 C 218.601562 140.375 219.179688 140.230469 219.769531 140.113281 C 220.355469 140 220.945312 139.910156 221.542969 139.851562 C 222.136719 139.792969 222.734375 139.765625 223.332031 139.765625 L 223.332031 148.898438 C 222.730469 148.898438 222.136719 148.953125 221.550781 149.070312 C 220.960938 149.1875 220.390625 149.363281 219.835938 149.589844 C 219.28125 149.820312 218.757812 150.101562 218.257812 150.4375 C 217.757812 150.769531 217.296875 151.148438 216.875 151.570312 C 216.449219 151.996094 216.070312 152.457031 215.738281 152.957031 C 215.40625 153.453125 215.125 153.980469 214.894531 154.535156 C 214.664062 155.089844 214.492188 155.660156 214.375 156.246094 C 214.257812 156.835938 214.199219 157.429688 214.199219 158.027344 C 214.199219 158.628906 214.257812 159.222656 214.375 159.8125 C 214.492188 160.398438 214.664062 160.96875 214.894531 161.523438 C 215.125 162.078125 215.40625 162.605469 215.738281 163.101562 C 216.070312 163.601562 216.449219 164.0625 216.875 164.488281 C 217.296875 164.910156 217.757812 165.289062 218.257812 165.621094 C 218.757812 165.957031 219.28125 166.238281 219.835938 166.464844 C 220.390625 166.695312 220.960938 166.871094 221.550781 166.988281 C 222.136719 167.101562 222.730469 167.160156 223.332031 167.160156 Z M 223.332031 176.292969"/><path fill="#0057FF" d="M 323.800781 308.71875 L 186.796875 308.71875 C 186.5 308.71875 186.203125 308.691406 185.90625 308.632812 C 185.613281 308.574219 185.328125 308.488281 185.050781 308.371094 C 184.773438 308.257812 184.511719 308.117188 184.261719 307.949219 C 184.011719 307.78125 183.78125 307.59375 183.570312 307.382812 C 183.355469 307.167969 183.167969 306.9375 183 306.691406 C 182.835938 306.441406 182.695312 306.175781 182.578125 305.898438 C 182.464844 305.625 182.378906 305.335938 182.320312 305.042969 C 182.261719 304.75 182.230469 304.453125 182.230469 304.152344 L 182.230469 231.089844 C 182.230469 230.078125 182.535156 229.164062 183.144531 228.351562 C 198.046875 208.488281 231.0625 208.257812 232.464844 208.257812 C 233.882812 208.042969 237.03125 204.894531 237.03125 194.558594 L 246.164062 194.558594 C 246.164062 217.132812 233.023438 217.390625 232.464844 217.390625 C 232.179688 217.390625 204.015625 217.625 191.363281 232.683594 L 191.363281 299.585938 L 319.234375 299.585938 L 319.234375 232.683594 C 306.582031 217.625 278.414062 217.390625 278.132812 217.390625 C 277.582031 217.390625 264.433594 217.132812 264.433594 194.558594 L 273.566406 194.558594 C 273.566406 204.894531 276.71875 208.042969 278.386719 208.257812 C 279.5625 208.292969 312.523438 208.441406 327.453125 228.351562 C 328.0625 229.164062 328.367188 230.078125 328.367188 231.089844 L 328.367188 304.152344 C 328.367188 304.453125 328.335938 304.75 328.277344 305.042969 C 328.21875 305.335938 328.132812 305.625 328.019531 305.898438 C 327.902344 306.175781 327.761719 306.441406 327.597656 306.691406 C 327.429688 306.9375 327.242188 307.167969 327.027344 307.382812 C 326.816406 307.59375 326.585938 307.78125 326.335938 307.949219 C 326.085938 308.117188 325.824219 308.257812 325.546875 308.371094 C 325.269531 308.488281 324.984375 308.574219 324.691406 308.632812 C 324.398438 308.691406 324.101562 308.71875 323.800781 308.71875 Z M 323.800781 308.71875"/><path fill="#0057FF" d="M 255.300781 240.222656 C 254.039062 240.222656 252.960938 239.777344 252.070312 238.886719 L 229.238281 216.054688 L 235.695312 209.597656 L 255.300781 229.199219 L 274.902344 209.597656 L 281.363281 216.054688 L 258.527344 238.886719 C 257.636719 239.777344 256.558594 240.222656 255.300781 240.222656 Z M 255.300781 240.222656"/><path fill="#0057FF" d="M 269 253.921875 C 267.738281 253.921875 266.660156 253.476562 265.769531 252.585938 L 255.300781 242.113281 L 244.828125 252.585938 C 244.617188 252.796875 244.386719 252.984375 244.136719 253.152344 C 243.886719 253.320312 243.625 253.460938 243.347656 253.574219 C 243.070312 253.6875 242.785156 253.777344 242.488281 253.835938 C 242.195312 253.894531 241.898438 253.921875 241.597656 253.921875 C 241.300781 253.921875 241.003906 253.894531 240.707031 253.835938 C 240.414062 253.777344 240.128906 253.6875 239.851562 253.574219 C 239.574219 253.460938 239.3125 253.320312 239.0625 253.152344 C 238.8125 252.984375 238.582031 252.796875 238.371094 252.585938 L 215.535156 229.753906 C 214.644531 228.859375 214.199219 227.785156 214.199219 226.523438 L 214.199219 212.824219 L 223.332031 212.824219 L 223.332031 224.632812 L 241.597656 242.898438 L 252.070312 232.429688 C 252.28125 232.21875 252.511719 232.027344 252.761719 231.863281 C 253.011719 231.695312 253.273438 231.554688 253.550781 231.441406 C 253.828125 231.324219 254.113281 231.238281 254.410156 231.179688 C 254.703125 231.121094 255 231.09375 255.300781 231.09375 C 255.597656 231.09375 255.894531 231.121094 256.191406 231.179688 C 256.484375 231.238281 256.769531 231.324219 257.046875 231.441406 C 257.324219 231.554688 257.585938 231.695312 257.835938 231.863281 C 258.085938 232.027344 258.316406 232.21875 258.527344 232.429688 L 269 242.898438 L 287.265625 224.632812 L 287.265625 212.824219 L 296.398438 212.824219 L 296.398438 226.523438 C 296.398438 227.785156 295.953125 228.863281 295.0625 229.753906 L 272.226562 252.585938 C 271.335938 253.476562 270.257812 253.921875 269 253.921875 Z M 269 253.921875"/><path fill="#0057FF" d="M 259.867188 263.054688 L 250.730469 263.054688 C 249.472656 263.054688 248.394531 262.609375 247.503906 261.71875 L 238.371094 252.585938 L 244.828125 246.128906 L 252.621094 253.921875 L 257.976562 253.921875 L 265.769531 246.128906 L 272.226562 252.585938 L 263.09375 261.71875 C 262.203125 262.609375 261.125 263.054688 259.867188 263.054688 Z M 259.867188 263.054688"/><path fill="#0057FF" d="M 237.117188 303.253906 L 246.257812 257.59375 L 255.214844 259.386719 L 246.074219 305.046875 Z M 237.117188 303.253906"/><path fill="#0057FF" d="M 255.386719 259.382812 L 264.34375 257.59375 L 273.476562 303.253906 L 264.519531 305.046875 Z M 255.386719 259.382812"/><path fill="#0057FF" d="M 205.066406 258.488281 L 214.199219 258.488281 L 214.199219 304.152344 L 205.066406 304.152344 Z M 205.066406 258.488281"/><path fill="#0057FF" d="M 296.398438 258.488281 L 305.53125 258.488281 L 305.53125 304.152344 L 296.398438 304.152344 Z M 296.398438 258.488281"/><g clip-path="url(#a)"><path fill="#0057FF" d="M 332.933594 336.117188 L 49.796875 336.117188 C 49.496094 336.117188 49.199219 336.089844 48.90625 336.03125 C 48.613281 335.972656 48.328125 335.882812 48.050781 335.769531 C 47.773438 335.65625 47.507812 335.515625 47.257812 335.347656 C 47.011719 335.179688 46.78125 334.992188 46.566406 334.78125 C 46.355469 334.566406 46.167969 334.335938 46 334.089844 C 45.832031 333.839844 45.691406 333.574219 45.578125 333.296875 C 45.464844 333.023438 45.375 332.734375 45.316406 332.441406 C 45.257812 332.148438 45.230469 331.851562 45.230469 331.550781 L 45.230469 304.152344 C 45.230469 303.851562 45.257812 303.554688 45.316406 303.261719 C 45.375 302.96875 45.464844 302.683594 45.578125 302.40625 C 45.691406 302.128906 45.832031 301.867188 46 301.617188 C 46.167969 301.367188 46.355469 301.136719 46.566406 300.925781 C 46.78125 300.710938 47.011719 300.523438 47.257812 300.355469 C 47.507812 300.191406 47.773438 300.050781 48.050781 299.933594 C 48.328125 299.820312 48.613281 299.734375 48.90625 299.675781 C 49.199219 299.617188 49.496094 299.585938 49.796875 299.585938 L 332.933594 299.585938 C 333.234375 299.585938 333.53125 299.617188 333.824219 299.675781 C 334.117188 299.734375 334.402344 299.820312 334.679688 299.933594 C 334.957031 300.050781 335.222656 300.191406 335.46875 300.355469 C 335.71875 300.523438 335.949219 300.710938 336.164062 300.925781 C 336.375 301.136719 336.5625 301.367188 336.730469 301.617188 C 336.898438 301.863281 337.039062 302.128906 337.152344 302.40625 C 337.265625 302.683594 337.355469 302.96875 337.414062 303.261719 C 337.472656 303.554688 337.5 303.851562 337.5 304.152344 L 337.5 331.550781 C 337.5 331.851562 337.472656 332.148438 337.414062 332.441406 C 337.355469 332.734375 337.265625 333.023438 337.152344 333.296875 C 337.039062 333.574219 336.898438 333.839844 336.730469 334.089844 C 336.5625 334.335938 336.375 334.566406 336.164062 334.78125 C 335.949219 334.992188 335.71875 335.179688 335.46875 335.347656 C 335.222656 335.515625 334.957031 335.65625 334.679688 335.769531 C 334.402344 335.882812 334.117188 335.972656 333.824219 336.03125 C 333.53125 336.089844 333.234375 336.117188 332.933594 336.117188 Z M 54.363281 326.984375 L 328.367188 326.984375 L 328.367188 308.71875 L 54.363281 308.71875 Z M 54.363281 326.984375"/></g><path fill="#0057FF" d="M 168.53125 290.453125 L 58.929688 290.453125 C 58.628906 290.453125 58.332031 290.425781 58.039062 290.367188 C 57.746094 290.308594 57.460938 290.222656 57.183594 290.105469 C 56.90625 289.992188 56.640625 289.851562 56.394531 289.683594 C 56.144531 289.519531 55.914062 289.328125 55.699219 289.117188 C 55.488281 288.90625 55.300781 288.671875 55.132812 288.425781 C 54.964844 288.175781 54.824219 287.910156 54.710938 287.636719 C 54.597656 287.359375 54.507812 287.074219 54.453125 286.777344 C 54.394531 286.484375 54.363281 286.1875 54.363281 285.886719 L 54.363281 194.558594 C 54.363281 194.261719 54.394531 193.964844 54.453125 193.667969 C 54.507812 193.375 54.597656 193.089844 54.710938 192.8125 C 54.824219 192.535156 54.964844 192.273438 55.132812 192.023438 C 55.300781 191.773438 55.488281 191.542969 55.699219 191.332031 C 55.914062 191.121094 56.144531 190.929688 56.394531 190.761719 C 56.640625 190.597656 56.90625 190.457031 57.183594 190.339844 C 57.460938 190.226562 57.746094 190.140625 58.039062 190.082031 C 58.332031 190.023438 58.628906 189.992188 58.929688 189.992188 L 168.53125 189.992188 C 168.832031 189.992188 169.128906 190.023438 169.421875 190.082031 C 169.714844 190.140625 170.003906 190.226562 170.277344 190.339844 C 170.554688 190.457031 170.820312 190.597656 171.070312 190.761719 C 171.316406 190.929688 171.546875 191.121094 171.761719 191.332031 C 171.972656 191.542969 172.160156 191.773438 172.328125 192.023438 C 172.496094 192.273438 172.636719 192.535156 172.75 192.8125 C 172.867188 193.089844 172.953125 193.375 173.011719 193.667969 C 173.070312 193.964844 173.097656 194.261719 173.097656 194.558594 L 173.097656 285.886719 C 173.097656 286.1875 173.070312 286.484375 173.011719 286.777344 C 172.953125 287.074219 172.867188 287.359375 172.75 287.636719 C 172.636719 287.910156 172.496094 288.175781 172.328125 288.425781 C 172.160156 288.671875 171.972656 288.90625 171.761719 289.117188 C 171.546875 289.328125 171.316406 289.519531 171.070312 289.683594 C 170.820312 289.851562 170.554688 289.992188 170.277344 290.105469 C 170.003906 290.222656 169.714844 290.308594 169.421875 290.367188 C 169.128906 290.425781 168.832031 290.453125 168.53125 290.453125 Z M 63.496094 281.320312 L 163.964844 281.320312 L 163.964844 199.125 L 63.496094 199.125 Z M 63.496094 281.320312"/><path fill="#0057FF" d="M 95.464844 285.886719 L 104.597656 285.886719 L 104.597656 304.152344 L 95.464844 304.152344 Z M 95.464844 285.886719"/><path fill="#0057FF" d="M 122.863281 285.886719 L 131.996094 285.886719 L 131.996094 304.152344 L 122.863281 304.152344 Z M 122.863281 285.886719"/><path fill="#0057FF" d="M 177.664062 180.859375 L 113.730469 180.859375 C 112.4375 180.859375 111.148438 180.824219 109.859375 180.75 C 108.566406 180.679688 107.28125 180.570312 105.996094 180.421875 C 104.714844 180.277344 103.433594 180.09375 102.160156 179.875 C 100.886719 179.65625 99.621094 179.402344 98.363281 179.113281 C 97.101562 178.824219 95.851562 178.5 94.613281 178.136719 C 93.371094 177.777344 92.140625 177.382812 90.921875 176.953125 C 89.703125 176.519531 88.5 176.058594 87.308594 175.558594 C 86.117188 175.058594 84.9375 174.527344 83.777344 173.964844 C 82.613281 173.398438 81.46875 172.800781 80.339844 172.171875 C 79.214844 171.539062 78.105469 170.878906 77.011719 170.1875 C 75.921875 169.496094 74.851562 168.769531 73.800781 168.019531 C 72.753906 167.265625 71.722656 166.484375 70.71875 165.671875 C 69.714844 164.859375 68.730469 164.019531 67.773438 163.152344 C 66.816406 162.289062 65.882812 161.394531 64.976562 160.472656 C 64.066406 159.554688 63.1875 158.609375 62.332031 157.640625 C 61.480469 156.671875 60.652344 155.679688 59.855469 154.660156 C 59.058594 153.644531 58.289062 152.605469 57.550781 151.546875 C 56.808594 150.488281 56.101562 149.40625 55.421875 148.308594 C 54.746094 147.207031 54.097656 146.089844 53.484375 144.953125 C 52.871094 143.816406 52.289062 142.664062 51.738281 141.496094 C 51.1875 140.324219 50.671875 139.140625 50.191406 137.945312 C 49.707031 136.746094 49.257812 135.535156 48.84375 134.308594 C 48.429688 133.085938 48.050781 131.851562 47.707031 130.605469 C 47.363281 129.359375 47.054688 128.105469 46.78125 126.84375 C 46.507812 125.582031 46.273438 124.3125 46.070312 123.035156 C 45.871094 121.757812 45.703125 120.476562 45.574219 119.191406 C 45.445312 117.90625 45.355469 116.617188 45.296875 115.328125 C 45.242188 114.035156 45.222656 112.746094 45.242188 111.453125 C 45.257812 110.160156 45.3125 108.871094 45.402344 107.582031 C 45.492188 106.292969 45.617188 105.007812 45.78125 103.726562 C 45.945312 102.445312 46.144531 101.167969 46.378906 99.898438 C 46.613281 98.628906 46.886719 97.367188 47.191406 96.109375 C 47.5 94.855469 47.839844 93.609375 48.21875 92.375 C 48.59375 91.136719 49.007812 89.914062 49.453125 88.703125 C 49.898438 87.488281 50.378906 86.289062 50.894531 85.105469 C 51.40625 83.917969 51.953125 82.75 52.535156 81.59375 C 53.117188 80.441406 53.730469 79.304688 54.375 78.183594 C 55.019531 77.066406 55.695312 75.964844 56.402344 74.882812 C 57.109375 73.800781 57.84375 72.742188 58.613281 71.703125 C 59.378906 70.660156 60.175781 69.644531 61 68.648438 C 61.824219 67.65625 62.675781 66.683594 63.554688 65.738281 C 64.4375 64.792969 65.339844 63.871094 66.273438 62.976562 C 67.203125 62.082031 68.160156 61.210938 69.140625 60.371094 C 70.121094 59.53125 71.125 58.71875 72.152344 57.933594 C 73.179688 57.148438 74.230469 56.394531 75.296875 55.667969 C 76.367188 54.945312 77.457031 54.25 78.566406 53.585938 C 79.675781 52.921875 80.800781 52.292969 81.945312 51.691406 C 83.089844 51.09375 84.25 50.527344 85.425781 49.992188 C 86.605469 49.457031 87.792969 48.957031 89 48.492188 C 90.203125 48.023438 91.421875 47.59375 92.652344 47.195312 C 93.878906 46.796875 95.121094 46.433594 96.371094 46.109375 C 97.621094 45.78125 98.878906 45.488281 100.144531 45.230469 C 101.410156 44.976562 102.683594 44.753906 103.960938 44.570312 C 105.242188 44.386719 106.523438 44.238281 107.8125 44.125 C 109.097656 44.015625 110.386719 43.941406 111.679688 43.902344 C 112.972656 43.863281 114.261719 43.859375 115.554688 43.894531 C 116.847656 43.929688 118.136719 44 119.421875 44.105469 C 120.710938 44.214844 121.996094 44.359375 123.273438 44.539062 C 124.554688 44.71875 125.828125 44.933594 127.09375 45.183594 C 128.363281 45.4375 129.621094 45.726562 130.871094 46.046875 C 132.125 46.371094 133.363281 46.730469 134.59375 47.125 C 135.824219 47.515625 137.042969 47.945312 138.25 48.40625 C 139.457031 48.871094 140.648438 49.367188 141.828125 49.894531 C 143.007812 50.425781 144.167969 50.988281 145.316406 51.582031 C 146.460938 52.179688 147.589844 52.808594 148.703125 53.464844 C 149.8125 54.125 150.90625 54.816406 151.976562 55.539062 C 153.050781 56.257812 154.101562 57.011719 155.128906 57.789062 C 156.160156 58.570312 157.164062 59.378906 158.148438 60.21875 C 159.132812 61.054688 160.09375 61.921875 161.027344 62.8125 C 161.960938 63.703125 162.871094 64.621094 163.753906 65.566406 C 164.636719 66.507812 165.492188 67.476562 166.320312 68.46875 C 167.148438 69.460938 167.945312 70.476562 168.71875 71.511719 C 169.488281 72.550781 170.230469 73.605469 170.941406 74.6875 C 171.652344 75.765625 172.332031 76.863281 172.980469 77.980469 C 173.628906 79.097656 174.246094 80.234375 174.828125 81.386719 C 175.414062 82.539062 175.964844 83.707031 176.484375 84.890625 C 177 86.074219 177.484375 87.269531 177.9375 88.480469 C 178.386719 89.691406 178.804688 90.914062 179.183594 92.148438 C 179.566406 93.382812 179.910156 94.628906 180.222656 95.882812 C 180.535156 97.136719 180.808594 98.398438 181.046875 99.667969 C 181.289062 100.9375 181.492188 102.210938 181.660156 103.492188 C 181.828125 104.773438 181.957031 106.058594 182.050781 107.347656 C 182.148438 108.636719 182.203125 109.925781 182.226562 111.21875 C 182.25 112.507812 182.234375 113.800781 182.183594 115.09375 C 182.128906 116.382812 182.042969 117.671875 181.917969 118.957031 C 181.792969 120.242188 181.632812 121.523438 181.4375 122.800781 C 181.238281 124.078125 181.007812 125.347656 180.738281 126.613281 C 180.46875 127.875 180.164062 129.132812 179.824219 130.378906 C 179.484375 131.625 179.109375 132.859375 178.699219 134.085938 C 178.289062 135.3125 177.847656 136.523438 177.367188 137.722656 C 176.890625 138.925781 176.378906 140.109375 175.832031 141.28125 C 175.289062 142.453125 174.710938 143.609375 174.097656 144.746094 C 173.488281 145.886719 172.84375 147.003906 172.171875 148.105469 C 171.496094 149.210938 170.792969 150.292969 170.054688 151.355469 C 169.320312 152.417969 168.554688 153.457031 167.761719 154.476562 C 166.96875 155.496094 166.144531 156.492188 165.292969 157.464844 L 180.894531 173.066406 C 181.210938 173.386719 181.480469 173.746094 181.691406 174.144531 C 181.90625 174.539062 182.054688 174.960938 182.144531 175.402344 C 182.230469 175.847656 182.253906 176.292969 182.207031 176.742188 C 182.164062 177.191406 182.054688 177.625 181.882812 178.042969 C 181.710938 178.460938 181.480469 178.84375 181.195312 179.191406 C 180.90625 179.539062 180.578125 179.839844 180.199219 180.089844 C 179.824219 180.34375 179.421875 180.535156 178.988281 180.664062 C 178.558594 180.796875 178.117188 180.859375 177.664062 180.859375 Z M 113.730469 53.003906 C 111.785156 53.003906 109.847656 53.097656 107.910156 53.289062 C 105.976562 53.480469 104.054688 53.765625 102.148438 54.144531 C 100.242188 54.523438 98.359375 54.996094 96.496094 55.558594 C 94.636719 56.125 92.808594 56.777344 91.011719 57.523438 C 89.214844 58.265625 87.460938 59.097656 85.746094 60.011719 C 84.03125 60.929688 82.363281 61.925781 80.75 63.007812 C 79.132812 64.085938 77.570312 65.246094 76.070312 66.476562 C 74.566406 67.710938 73.125 69.015625 71.75 70.390625 C 70.375 71.765625 69.074219 73.203125 67.839844 74.707031 C 66.605469 76.210938 65.449219 77.769531 64.367188 79.386719 C 63.289062 81.003906 62.289062 82.667969 61.375 84.382812 C 60.457031 86.097656 59.625 87.851562 58.882812 89.648438 C 58.136719 91.445312 57.484375 93.273438 56.917969 95.132812 C 56.355469 96.992188 55.882812 98.878906 55.503906 100.785156 C 55.125 102.691406 54.839844 104.613281 54.648438 106.546875 C 54.457031 108.480469 54.363281 110.421875 54.363281 112.367188 C 54.363281 114.308594 54.457031 116.25 54.648438 118.183594 C 54.839844 120.117188 55.125 122.039062 55.503906 123.945312 C 55.882812 125.855469 56.355469 127.738281 56.917969 129.597656 C 57.484375 131.457031 58.136719 133.285156 58.882812 135.082031 C 59.625 136.878906 60.457031 138.632812 61.375 140.347656 C 62.289062 142.0625 63.289062 143.730469 64.367188 145.347656 C 65.449219 146.960938 66.605469 148.523438 67.839844 150.023438 C 69.074219 151.527344 70.375 152.964844 71.75 154.339844 C 73.125 155.714844 74.566406 157.019531 76.070312 158.253906 C 77.570312 159.488281 79.132812 160.644531 80.75 161.722656 C 82.363281 162.804688 84.03125 163.800781 85.746094 164.71875 C 87.460938 165.636719 89.214844 166.464844 91.011719 167.210938 C 92.808594 167.953125 94.636719 168.609375 96.496094 169.171875 C 98.359375 169.738281 100.242188 170.207031 102.148438 170.585938 C 104.054688 170.96875 105.976562 171.25 107.910156 171.441406 C 109.847656 171.632812 111.785156 171.726562 113.730469 171.726562 L 166.640625 171.726562 L 155.707031 160.796875 C 155.496094 160.585938 155.308594 160.355469 155.140625 160.105469 C 154.972656 159.855469 154.832031 159.59375 154.71875 159.316406 C 154.605469 159.039062 154.515625 158.753906 154.457031 158.457031 C 154.398438 158.164062 154.371094 157.867188 154.371094 157.566406 C 154.371094 157.269531 154.398438 156.972656 154.457031 156.675781 C 154.515625 156.382812 154.605469 156.097656 154.71875 155.820312 C 154.832031 155.542969 154.972656 155.28125 155.140625 155.03125 C 155.308594 154.78125 155.496094 154.550781 155.707031 154.339844 C 156.738281 153.308594 157.730469 152.242188 158.683594 151.136719 C 159.632812 150.035156 160.542969 148.898438 161.414062 147.726562 C 162.28125 146.554688 163.105469 145.355469 163.886719 144.121094 C 164.664062 142.890625 165.398438 141.632812 166.085938 140.347656 C 166.773438 139.0625 167.410156 137.753906 168.003906 136.421875 C 168.59375 135.085938 169.132812 133.734375 169.625 132.363281 C 170.117188 130.992188 170.554688 129.601562 170.945312 128.199219 C 171.332031 126.792969 171.667969 125.375 171.953125 123.945312 C 172.238281 122.515625 172.46875 121.078125 172.648438 119.632812 C 172.828125 118.183594 172.953125 116.734375 173.023438 115.277344 C 173.09375 113.820312 173.113281 112.367188 173.078125 110.910156 C 173.039062 109.453125 172.953125 107.996094 172.808594 106.546875 C 172.664062 105.097656 172.46875 103.652344 172.21875 102.21875 C 171.972656 100.78125 171.667969 99.355469 171.316406 97.941406 C 170.960938 96.527344 170.554688 95.128906 170.097656 93.746094 C 169.640625 92.359375 169.132812 90.996094 168.574219 89.648438 C 168.019531 88.300781 167.410156 86.976562 166.753906 85.675781 C 166.101562 84.375 165.398438 83.097656 164.648438 81.847656 C 163.898438 80.597656 163.105469 79.375 162.265625 78.183594 C 161.425781 76.992188 160.542969 75.832031 159.617188 74.707031 C 158.695312 73.578125 157.730469 72.488281 156.722656 71.433594 C 155.71875 70.378906 154.675781 69.359375 153.59375 68.382812 C 152.515625 67.402344 151.402344 66.464844 150.25 65.566406 C 149.101562 64.671875 147.921875 63.816406 146.710938 63.007812 C 145.5 62.199219 144.257812 61.433594 142.988281 60.714844 C 141.722656 59.996094 140.429688 59.324219 139.109375 58.703125 C 137.792969 58.078125 136.453125 57.503906 135.09375 56.980469 C 133.734375 56.457031 132.355469 55.980469 130.960938 55.558594 C 129.566406 55.136719 128.160156 54.765625 126.738281 54.445312 C 125.316406 54.125 123.882812 53.859375 122.441406 53.644531 C 121 53.429688 119.550781 53.269531 118.097656 53.164062 C 116.644531 53.054688 115.1875 53.003906 113.730469 53.003906 Z M 113.730469 53.003906"/><path fill="#0057FF" d="M 113.730469 162.59375 C 112.085938 162.59375 110.445312 162.515625 108.808594 162.355469 C 107.167969 162.191406 105.542969 161.953125 103.929688 161.628906 C 102.316406 161.308594 100.722656 160.910156 99.148438 160.433594 C 97.574219 159.957031 96.027344 159.402344 94.507812 158.773438 C 92.988281 158.140625 91.5 157.441406 90.050781 156.664062 C 88.601562 155.890625 87.191406 155.042969 85.824219 154.128906 C 84.453125 153.214844 83.132812 152.238281 81.863281 151.195312 C 80.589844 150.148438 79.375 149.046875 78.210938 147.882812 C 77.046875 146.71875 75.941406 145.503906 74.898438 144.230469 C 73.855469 142.960938 72.875 141.640625 71.960938 140.273438 C 71.050781 138.902344 70.203125 137.496094 69.429688 136.042969 C 68.652344 134.59375 67.949219 133.109375 67.320312 131.585938 C 66.691406 130.066406 66.136719 128.519531 65.660156 126.945312 C 65.183594 125.371094 64.78125 123.777344 64.460938 122.164062 C 64.140625 120.550781 63.898438 118.925781 63.738281 117.289062 C 63.578125 115.652344 63.496094 114.011719 63.496094 112.367188 C 63.496094 110.71875 63.578125 109.078125 63.738281 107.441406 C 63.898438 105.804688 64.140625 104.179688 64.460938 102.566406 C 64.78125 100.953125 65.183594 99.359375 65.660156 97.785156 C 66.136719 96.210938 66.691406 94.664062 67.320312 93.144531 C 67.949219 91.625 68.652344 90.136719 69.429688 88.6875 C 70.203125 87.238281 71.050781 85.828125 71.960938 84.460938 C 72.875 83.089844 73.855469 81.773438 74.898438 80.5 C 75.941406 79.226562 77.046875 78.011719 78.210938 76.847656 C 79.375 75.683594 80.589844 74.582031 81.863281 73.539062 C 83.132812 72.492188 84.453125 71.515625 85.824219 70.601562 C 87.191406 69.6875 88.601562 68.84375 90.050781 68.066406 C 91.5 67.292969 92.988281 66.589844 94.507812 65.960938 C 96.027344 65.328125 97.574219 64.777344 99.148438 64.296875 C 100.722656 63.820312 102.316406 63.421875 103.929688 63.101562 C 105.542969 62.78125 107.167969 62.539062 108.808594 62.378906 C 110.445312 62.214844 112.085938 62.136719 113.730469 62.136719 C 115.375 62.136719 117.015625 62.214844 118.65625 62.378906 C 120.292969 62.539062 121.917969 62.78125 123.53125 63.101562 C 125.144531 63.421875 126.738281 63.820312 128.3125 64.296875 C 129.886719 64.777344 131.433594 65.328125 132.953125 65.960938 C 134.472656 66.589844 135.960938 67.292969 137.410156 68.066406 C 138.863281 68.84375 140.269531 69.6875 141.640625 70.601562 C 143.007812 71.515625 144.328125 72.492188 145.597656 73.539062 C 146.871094 74.582031 148.089844 75.683594 149.25 76.847656 C 150.414062 78.011719 151.519531 79.226562 152.5625 80.5 C 153.605469 81.773438 154.585938 83.089844 155.5 84.460938 C 156.414062 85.828125 157.257812 87.238281 158.03125 88.6875 C 158.808594 90.136719 159.511719 91.625 160.140625 93.144531 C 160.769531 94.664062 161.324219 96.210938 161.800781 97.785156 C 162.277344 99.359375 162.679688 100.953125 163 102.566406 C 163.320312 104.179688 163.5625 105.804688 163.722656 107.441406 C 163.882812 109.078125 163.964844 110.71875 163.964844 112.367188 C 163.960938 114.011719 163.878906 115.652344 163.71875 117.289062 C 163.554688 118.921875 163.3125 120.546875 162.988281 122.160156 C 162.667969 123.773438 162.265625 125.367188 161.789062 126.941406 C 161.308594 128.511719 160.753906 130.058594 160.125 131.578125 C 159.496094 133.097656 158.792969 134.582031 158.015625 136.03125 C 157.238281 137.480469 156.394531 138.890625 155.480469 140.257812 C 154.566406 141.625 153.585938 142.945312 152.542969 144.214844 C 151.5 145.488281 150.398438 146.703125 149.234375 147.867188 C 148.070312 149.027344 146.855469 150.132812 145.582031 151.175781 C 144.3125 152.21875 142.992188 153.199219 141.625 154.113281 C 140.257812 155.027344 138.847656 155.871094 137.398438 156.648438 C 135.949219 157.421875 134.464844 158.125 132.945312 158.757812 C 131.425781 159.386719 129.878906 159.941406 128.304688 160.417969 C 126.734375 160.898438 125.140625 161.296875 123.527344 161.621094 C 121.914062 161.941406 120.289062 162.183594 118.652344 162.347656 C 117.015625 162.511719 115.375 162.59375 113.730469 162.59375 Z M 113.730469 71.269531 C 112.382812 71.269531 111.042969 71.335938 109.703125 71.464844 C 108.363281 71.597656 107.03125 71.796875 105.710938 72.058594 C 104.390625 72.320312 103.089844 72.648438 101.800781 73.039062 C 100.511719 73.429688 99.246094 73.882812 98.003906 74.398438 C 96.757812 74.910156 95.542969 75.488281 94.355469 76.121094 C 93.167969 76.753906 92.015625 77.445312 90.898438 78.195312 C 89.777344 78.941406 88.699219 79.742188 87.65625 80.597656 C 86.617188 81.449219 85.621094 82.355469 84.667969 83.304688 C 83.714844 84.257812 82.8125 85.253906 81.960938 86.292969 C 81.105469 87.335938 80.304688 88.414062 79.558594 89.535156 C 78.808594 90.652344 78.117188 91.804688 77.484375 92.992188 C 76.847656 94.179688 76.273438 95.394531 75.757812 96.636719 C 75.242188 97.882812 74.789062 99.148438 74.398438 100.4375 C 74.007812 101.722656 73.683594 103.027344 73.421875 104.347656 C 73.15625 105.667969 72.960938 106.996094 72.828125 108.335938 C 72.695312 109.675781 72.628906 111.019531 72.628906 112.367188 C 72.628906 113.710938 72.695312 115.054688 72.828125 116.394531 C 72.960938 117.734375 73.15625 119.0625 73.421875 120.382812 C 73.683594 121.703125 74.007812 123.007812 74.398438 124.296875 C 74.789062 125.582031 75.242188 126.847656 75.757812 128.09375 C 76.273438 129.335938 76.847656 130.550781 77.484375 131.738281 C 78.117188 132.925781 78.808594 134.078125 79.558594 135.199219 C 80.304688 136.316406 81.105469 137.398438 81.960938 138.4375 C 82.8125 139.476562 83.714844 140.472656 84.667969 141.425781 C 85.621094 142.378906 86.617188 143.28125 87.65625 144.132812 C 88.699219 144.988281 89.777344 145.789062 90.898438 146.535156 C 92.015625 147.285156 93.167969 147.976562 94.355469 148.609375 C 95.542969 149.246094 96.757812 149.820312 98.003906 150.335938 C 99.246094 150.851562 100.511719 151.300781 101.800781 151.691406 C 103.089844 152.085938 104.390625 152.410156 105.710938 152.671875 C 107.03125 152.9375 108.363281 153.132812 109.703125 153.265625 C 111.042969 153.398438 112.382812 153.464844 113.730469 153.464844 C 115.078125 153.464844 116.417969 153.398438 117.757812 153.265625 C 119.097656 153.132812 120.429688 152.9375 121.75 152.671875 C 123.070312 152.410156 124.375 152.085938 125.660156 151.691406 C 126.949219 151.300781 128.214844 150.851562 129.460938 150.335938 C 130.703125 149.820312 131.917969 149.246094 133.105469 148.609375 C 134.292969 147.976562 135.445312 147.285156 136.566406 146.535156 C 137.683594 145.789062 138.765625 144.988281 139.804688 144.132812 C 140.84375 143.28125 141.839844 142.378906 142.792969 141.425781 C 143.746094 140.472656 144.648438 139.476562 145.5 138.4375 C 146.355469 137.398438 147.15625 136.316406 147.90625 135.199219 C 148.652344 134.078125 149.34375 132.925781 149.976562 131.738281 C 150.613281 130.550781 151.1875 129.335938 151.703125 128.09375 C 152.21875 126.847656 152.671875 125.582031 153.0625 124.296875 C 153.453125 123.007812 153.777344 121.703125 154.042969 120.382812 C 154.304688 119.0625 154.5 117.734375 154.632812 116.394531 C 154.765625 115.054688 154.832031 113.710938 154.832031 112.367188 C 154.828125 111.019531 154.761719 109.679688 154.628906 108.339844 C 154.496094 107 154.296875 105.671875 154.035156 104.351562 C 153.769531 103.03125 153.441406 101.726562 153.050781 100.441406 C 152.660156 99.152344 152.207031 97.886719 151.691406 96.644531 C 151.175781 95.402344 150.597656 94.1875 149.964844 93 C 149.328125 91.816406 148.636719 90.664062 147.890625 89.542969 C 147.144531 88.425781 146.339844 87.347656 145.488281 86.304688 C 144.632812 85.265625 143.730469 84.269531 142.78125 83.320312 C 141.828125 82.367188 140.832031 81.464844 139.792969 80.609375 C 138.753906 79.757812 137.671875 78.957031 136.554688 78.207031 C 135.433594 77.460938 134.28125 76.769531 133.097656 76.132812 C 131.910156 75.5 130.695312 74.925781 129.453125 74.410156 C 128.210938 73.894531 126.945312 73.441406 125.65625 73.046875 C 124.367188 72.65625 123.066406 72.328125 121.746094 72.066406 C 120.425781 71.800781 119.097656 71.605469 117.757812 71.46875 C 116.417969 71.335938 115.078125 71.269531 113.730469 71.269531 Z M 113.730469 71.269531"/><path fill="#0057FF" d="M 109.164062 66.703125 L 118.296875 66.703125 L 118.296875 80.402344 L 109.164062 80.402344 Z M 109.164062 66.703125"/><path fill="#0057FF" d="M 109.164062 144.332031 L 118.296875 144.332031 L 118.296875 158.027344 L 109.164062 158.027344 Z M 109.164062 144.332031"/><path fill="#0057FF" d="M 145.699219 107.800781 L 159.398438 107.800781 L 159.398438 116.933594 L 145.699219 116.933594 Z M 145.699219 107.800781"/><path fill="#0057FF" d="M 68.0625 107.800781 L 81.765625 107.800781 L 81.765625 116.933594 L 68.0625 116.933594 Z M 68.0625 107.800781"/><path fill="#0057FF" d="M 133.101562 86.53125 L 142.789062 76.847656 L 149.246094 83.304688 L 139.558594 92.992188 Z M 133.101562 86.53125"/><path fill="#0057FF" d="M 78.210938 141.425781 L 87.898438 131.742188 L 94.355469 138.199219 L 84.667969 147.886719 Z M 78.210938 141.425781"/><path fill="#0057FF" d="M 133.109375 138.195312 L 139.566406 131.738281 L 149.257812 141.421875 L 142.796875 147.882812 Z M 133.109375 138.195312"/><path fill="#0057FF" d="M 78.210938 83.304688 L 84.667969 76.84375 L 94.359375 86.53125 L 87.902344 92.988281 Z M 78.210938 83.304688"/><path fill="#0057FF" d="M 124.203125 129.292969 L 110.503906 115.59375 C 109.609375 114.703125 109.164062 113.625 109.164062 112.367188 L 109.164062 89.535156 L 118.296875 89.535156 L 118.296875 110.476562 L 130.660156 122.835938 Z M 124.203125 129.292969"/><path fill="#0057FF" d="M 68.0625 267.621094 L 77.195312 267.621094 L 77.195312 276.753906 L 68.0625 276.753906 Z M 68.0625 267.621094"/><path fill="#0057FF" d="M 81.765625 267.621094 L 90.898438 267.621094 L 90.898438 276.753906 L 81.765625 276.753906 Z M 81.765625 267.621094"/></svg>