<svg xmlns="http://www.w3.org/2000/svg" width="375" viewBox="0 0 375 375" height="375" version="1.0"><defs><clipPath id="a"><path d="M 69.363281 59.964844 L 315.363281 59.964844 L 315.363281 305.964844 L 69.363281 305.964844 Z M 69.363281 59.964844"/></clipPath></defs><g clip-path="url(#a)"><path d="M 304.667969 102.75 L 245.839844 102.75 L 245.839844 101.304688 C 245.839844 99.949219 245.769531 98.601562 245.636719 97.253906 C 245.503906 95.90625 245.300781 94.570312 245.039062 93.242188 C 244.773438 91.917969 244.441406 90.605469 244.046875 89.308594 C 243.65625 88.015625 243.199219 86.742188 242.679688 85.492188 C 242.160156 84.242188 241.582031 83.019531 240.945312 81.828125 C 240.304688 80.636719 239.609375 79.476562 238.855469 78.351562 C 238.105469 77.226562 237.300781 76.140625 236.441406 75.09375 C 235.582031 74.046875 234.675781 73.046875 233.71875 72.089844 C 232.761719 71.132812 231.757812 70.222656 230.710938 69.367188 C 229.667969 68.507812 228.582031 67.703125 227.457031 66.949219 C 226.332031 66.195312 225.171875 65.5 223.976562 64.863281 C 222.785156 64.222656 221.5625 63.644531 220.3125 63.125 C 219.0625 62.609375 217.789062 62.152344 216.496094 61.757812 C 215.199219 61.363281 213.890625 61.035156 212.5625 60.769531 C 211.234375 60.503906 209.898438 60.304688 208.550781 60.167969 C 207.207031 60.035156 205.855469 59.96875 204.5 59.964844 L 180.222656 59.964844 C 178.871094 59.96875 177.519531 60.035156 176.171875 60.167969 C 174.824219 60.304688 173.488281 60.503906 172.160156 60.769531 C 170.835938 61.035156 169.523438 61.363281 168.230469 61.757812 C 166.933594 62.152344 165.660156 62.609375 164.410156 63.125 C 163.160156 63.644531 161.941406 64.222656 160.746094 64.863281 C 159.554688 65.5 158.394531 66.195312 157.269531 66.949219 C 156.144531 67.703125 155.058594 68.507812 154.011719 69.367188 C 152.964844 70.222656 151.964844 71.132812 151.007812 72.089844 C 150.050781 73.046875 149.140625 74.046875 148.285156 75.09375 C 147.425781 76.140625 146.621094 77.226562 145.867188 78.351562 C 145.113281 79.476562 144.417969 80.636719 143.78125 81.828125 C 143.140625 83.019531 142.5625 84.242188 142.042969 85.492188 C 141.527344 86.742188 141.070312 88.015625 140.675781 89.308594 C 140.28125 90.605469 139.953125 91.917969 139.6875 93.242188 C 139.421875 94.570312 139.222656 95.90625 139.085938 97.253906 C 138.953125 98.601562 138.886719 99.949219 138.882812 101.304688 L 138.882812 102.75 L 80.058594 102.75 C 79.355469 102.75 78.660156 102.816406 77.972656 102.953125 C 77.28125 103.089844 76.613281 103.292969 75.964844 103.5625 C 75.316406 103.832031 74.699219 104.160156 74.117188 104.550781 C 73.53125 104.941406 72.992188 105.382812 72.496094 105.882812 C 72 106.378906 71.554688 106.917969 71.164062 107.5 C 70.773438 108.085938 70.445312 108.703125 70.175781 109.351562 C 69.90625 110 69.703125 110.667969 69.566406 111.359375 C 69.429688 112.046875 69.363281 112.742188 69.363281 113.445312 L 69.363281 295.269531 C 69.363281 295.972656 69.429688 296.667969 69.566406 297.355469 C 69.703125 298.046875 69.90625 298.714844 70.175781 299.363281 C 70.445312 300.011719 70.773438 300.628906 71.164062 301.210938 C 71.554688 301.796875 72 302.335938 72.496094 302.832031 C 72.992188 303.328125 73.53125 303.773438 74.117188 304.164062 C 74.699219 304.554688 75.316406 304.882812 75.964844 305.152344 C 76.613281 305.421875 77.28125 305.625 77.972656 305.761719 C 78.660156 305.898438 79.355469 305.964844 80.058594 305.964844 L 304.667969 305.964844 C 305.367188 305.964844 306.0625 305.898438 306.753906 305.761719 C 307.441406 305.625 308.109375 305.421875 308.757812 305.152344 C 309.410156 304.882812 310.023438 304.554688 310.609375 304.164062 C 311.191406 303.773438 311.734375 303.328125 312.230469 302.832031 C 312.726562 302.335938 313.167969 301.796875 313.558594 301.210938 C 313.949219 300.628906 314.277344 300.011719 314.546875 299.363281 C 314.816406 298.714844 315.019531 298.046875 315.15625 297.355469 C 315.292969 296.667969 315.363281 295.972656 315.363281 295.269531 L 315.363281 113.445312 C 315.363281 112.742188 315.292969 112.046875 315.15625 111.359375 C 315.019531 110.667969 314.816406 110 314.546875 109.351562 C 314.277344 108.703125 313.949219 108.085938 313.558594 107.5 C 313.167969 106.917969 312.726562 106.378906 312.230469 105.882812 C 311.734375 105.382812 311.191406 104.941406 310.609375 104.550781 C 310.023438 104.160156 309.410156 103.832031 308.757812 103.5625 C 308.109375 103.292969 307.441406 103.089844 306.753906 102.953125 C 306.0625 102.816406 305.367188 102.75 304.667969 102.75 Z M 160.273438 101.304688 C 160.277344 100.652344 160.3125 100 160.375 99.351562 C 160.441406 98.703125 160.539062 98.058594 160.667969 97.417969 C 160.796875 96.777344 160.957031 96.144531 161.144531 95.519531 C 161.335938 94.894531 161.558594 94.28125 161.808594 93.679688 C 162.058594 93.078125 162.339844 92.488281 162.644531 91.910156 C 162.953125 91.335938 163.289062 90.777344 163.652344 90.234375 C 164.015625 89.691406 164.40625 89.167969 164.820312 88.664062 C 165.234375 88.160156 165.671875 87.675781 166.132812 87.214844 C 166.59375 86.753906 167.078125 86.316406 167.582031 85.902344 C 168.085938 85.488281 168.609375 85.097656 169.152344 84.734375 C 169.695312 84.371094 170.253906 84.035156 170.828125 83.726562 C 171.40625 83.417969 171.996094 83.140625 172.597656 82.890625 C 173.199219 82.640625 173.8125 82.417969 174.4375 82.226562 C 175.0625 82.039062 175.695312 81.878906 176.335938 81.75 C 176.976562 81.621094 177.621094 81.523438 178.269531 81.457031 C 178.917969 81.390625 179.570312 81.359375 180.222656 81.355469 L 204.449219 81.355469 C 205.101562 81.355469 205.753906 81.390625 206.40625 81.453125 C 207.054688 81.515625 207.703125 81.613281 208.34375 81.738281 C 208.984375 81.867188 209.617188 82.027344 210.246094 82.214844 C 210.871094 82.40625 211.484375 82.625 212.089844 82.875 C 212.695312 83.125 213.285156 83.402344 213.863281 83.710938 C 214.4375 84.019531 215 84.355469 215.542969 84.714844 C 216.085938 85.078125 216.613281 85.46875 217.117188 85.882812 C 217.625 86.296875 218.109375 86.734375 218.570312 87.195312 C 219.035156 87.65625 219.472656 88.140625 219.890625 88.644531 C 220.304688 89.152344 220.695312 89.675781 221.058594 90.21875 C 221.425781 90.761719 221.761719 91.320312 222.070312 91.898438 C 222.378906 92.472656 222.660156 93.0625 222.910156 93.667969 C 223.164062 94.269531 223.382812 94.886719 223.574219 95.511719 C 223.765625 96.136719 223.925781 96.769531 224.054688 97.410156 C 224.183594 98.050781 224.28125 98.695312 224.347656 99.347656 C 224.414062 100 224.449219 100.652344 224.449219 101.304688 L 224.449219 102.75 L 160.273438 102.75 Z M 149.578125 124.140625 L 293.972656 124.140625 L 293.972656 182.964844 L 219.101562 182.964844 L 219.101562 172.269531 C 219.101562 171.566406 219.03125 170.871094 218.894531 170.183594 C 218.757812 169.496094 218.554688 168.824219 218.289062 168.175781 C 218.019531 167.527344 217.6875 166.910156 217.296875 166.328125 C 216.910156 165.742188 216.464844 165.203125 215.96875 164.707031 C 215.472656 164.210938 214.933594 163.765625 214.347656 163.378906 C 213.765625 162.988281 213.148438 162.65625 212.5 162.390625 C 211.851562 162.121094 211.179688 161.917969 210.492188 161.78125 C 209.804688 161.644531 209.109375 161.574219 208.40625 161.574219 L 176.320312 161.574219 C 175.617188 161.574219 174.921875 161.644531 174.230469 161.78125 C 173.542969 161.917969 172.875 162.121094 172.226562 162.390625 C 171.578125 162.65625 170.960938 162.988281 170.375 163.378906 C 169.792969 163.765625 169.253906 164.210938 168.753906 164.707031 C 168.257812 165.203125 167.816406 165.742188 167.425781 166.328125 C 167.035156 166.910156 166.707031 167.527344 166.4375 168.175781 C 166.167969 168.824219 165.964844 169.496094 165.828125 170.183594 C 165.691406 170.871094 165.625 171.566406 165.625 172.269531 L 165.625 182.964844 L 90.753906 182.964844 L 90.753906 124.140625 Z M 197.710938 182.964844 L 197.710938 204.355469 L 187.015625 204.355469 L 187.015625 182.964844 Z M 90.753906 284.574219 L 90.753906 204.355469 L 165.625 204.355469 L 165.625 215.054688 C 165.625 215.753906 165.691406 216.449219 165.828125 217.140625 C 165.964844 217.828125 166.167969 218.496094 166.4375 219.144531 C 166.707031 219.792969 167.035156 220.410156 167.425781 220.996094 C 167.816406 221.578125 168.257812 222.117188 168.753906 222.617188 C 169.253906 223.113281 169.792969 223.554688 170.375 223.945312 C 170.960938 224.335938 171.578125 224.664062 172.226562 224.933594 C 172.875 225.203125 173.542969 225.40625 174.230469 225.542969 C 174.921875 225.679688 175.617188 225.75 176.320312 225.75 L 208.40625 225.75 C 209.109375 225.75 209.804688 225.679688 210.492188 225.542969 C 211.179688 225.40625 211.851562 225.203125 212.5 224.933594 C 213.148438 224.664062 213.765625 224.335938 214.347656 223.945312 C 214.933594 223.554688 215.472656 223.113281 215.96875 222.617188 C 216.464844 222.117188 216.910156 221.578125 217.296875 220.996094 C 217.6875 220.410156 218.019531 219.792969 218.289062 219.144531 C 218.554688 218.496094 218.757812 217.828125 218.894531 217.140625 C 219.03125 216.449219 219.101562 215.753906 219.101562 215.054688 L 219.101562 204.355469 L 293.972656 204.355469 L 293.972656 284.574219 Z M 90.753906 284.574219"/></g></svg>