<svg xmlns="http://www.w3.org/2000/svg" width="375" viewBox="0 0 375 375" height="375" version="1.0"><defs><clipPath id="a"><path d="M 88 115 L 216 115 L 216 310.476562 L 88 310.476562 Z M 88 115"/></clipPath><clipPath id="b"><path d="M 69.058594 232 L 167 232 L 167 252 L 69.058594 252 Z M 69.058594 232"/></clipPath><clipPath id="c"><path d="M 166 173 L 312.808594 173 L 312.808594 184 L 166 184 Z M 166 173"/></clipPath></defs><path fill="#0057FF" d="M 166.558594 81.382812 C 166.558594 82.183594 166.519531 82.976562 166.441406 83.773438 C 166.363281 84.566406 166.246094 85.355469 166.089844 86.136719 C 165.9375 86.921875 165.742188 87.695312 165.511719 88.457031 C 165.277344 89.222656 165.007812 89.972656 164.703125 90.710938 C 164.398438 91.445312 164.058594 92.167969 163.679688 92.871094 C 163.304688 93.574219 162.894531 94.257812 162.453125 94.921875 C 162.007812 95.585938 161.535156 96.226562 161.027344 96.84375 C 160.519531 97.460938 159.984375 98.050781 159.421875 98.613281 C 158.855469 99.179688 158.265625 99.714844 157.648438 100.21875 C 157.03125 100.726562 156.390625 101.203125 155.726562 101.644531 C 155.0625 102.089844 154.378906 102.5 153.675781 102.875 C 152.972656 103.25 152.25 103.589844 151.511719 103.898438 C 150.773438 104.203125 150.023438 104.472656 149.261719 104.703125 C 148.496094 104.933594 147.722656 105.128906 146.941406 105.285156 C 146.15625 105.4375 145.367188 105.554688 144.574219 105.632812 C 143.78125 105.710938 142.984375 105.75 142.183594 105.75 C 141.386719 105.75 140.589844 105.710938 139.796875 105.632812 C 139 105.554688 138.210938 105.4375 137.429688 105.285156 C 136.644531 105.128906 135.871094 104.933594 135.109375 104.703125 C 134.34375 104.472656 133.59375 104.203125 132.855469 103.898438 C 132.121094 103.589844 131.398438 103.25 130.695312 102.875 C 129.992188 102.5 129.304688 102.089844 128.644531 101.644531 C 127.980469 101.203125 127.339844 100.726562 126.722656 100.21875 C 126.105469 99.714844 125.511719 99.179688 124.949219 98.613281 C 124.382812 98.050781 123.847656 97.460938 123.34375 96.84375 C 122.835938 96.226562 122.359375 95.585938 121.917969 94.921875 C 121.472656 94.257812 121.0625 93.574219 120.6875 92.871094 C 120.3125 92.167969 119.96875 91.445312 119.664062 90.710938 C 119.359375 89.972656 119.089844 89.222656 118.859375 88.457031 C 118.628906 87.695312 118.433594 86.921875 118.277344 86.136719 C 118.121094 85.355469 118.003906 84.566406 117.925781 83.773438 C 117.847656 82.976562 117.808594 82.183594 117.808594 81.382812 C 117.808594 80.585938 117.847656 79.789062 117.925781 78.996094 C 118.003906 78.203125 118.121094 77.414062 118.277344 76.628906 C 118.433594 75.847656 118.628906 75.074219 118.859375 74.308594 C 119.089844 73.546875 119.359375 72.796875 119.664062 72.058594 C 119.96875 71.320312 120.3125 70.601562 120.6875 69.898438 C 121.0625 69.191406 121.472656 68.507812 121.917969 67.847656 C 122.359375 67.183594 122.835938 66.542969 123.34375 65.925781 C 123.847656 65.308594 124.382812 64.71875 124.949219 64.152344 C 125.511719 63.589844 126.105469 63.054688 126.722656 62.546875 C 127.339844 62.042969 127.980469 61.566406 128.644531 61.121094 C 129.304688 60.679688 129.992188 60.269531 130.695312 59.894531 C 131.398438 59.515625 132.121094 59.175781 132.855469 58.871094 C 133.59375 58.566406 134.34375 58.296875 135.109375 58.066406 C 135.871094 57.832031 136.644531 57.640625 137.429688 57.484375 C 138.210938 57.328125 139 57.210938 139.796875 57.132812 C 140.589844 57.054688 141.386719 57.015625 142.183594 57.015625 C 142.984375 57.015625 143.78125 57.054688 144.574219 57.132812 C 145.367188 57.210938 146.15625 57.328125 146.941406 57.484375 C 147.722656 57.640625 148.496094 57.832031 149.261719 58.066406 C 150.023438 58.296875 150.773438 58.566406 151.511719 58.871094 C 152.25 59.175781 152.972656 59.515625 153.675781 59.894531 C 154.378906 60.269531 155.0625 60.679688 155.726562 61.121094 C 156.390625 61.566406 157.03125 62.042969 157.648438 62.546875 C 158.265625 63.054688 158.855469 63.589844 159.421875 64.152344 C 159.984375 64.71875 160.519531 65.308594 161.027344 65.925781 C 161.535156 66.542969 162.007812 67.183594 162.453125 67.847656 C 162.894531 68.507812 163.304688 69.191406 163.679688 69.898438 C 164.058594 70.601562 164.398438 71.320312 164.703125 72.058594 C 165.007812 72.796875 165.277344 73.546875 165.511719 74.308594 C 165.742188 75.074219 165.9375 75.847656 166.089844 76.628906 C 166.246094 77.414062 166.363281 78.203125 166.441406 78.996094 C 166.519531 79.789062 166.558594 80.585938 166.558594 81.382812 Z M 166.558594 81.382812"/><g clip-path="url(#a)"><path fill="#0057FF" d="M 147.058594 193.476562 L 147.058594 164.234375 L 195.808594 164.234375 L 195.808594 144.738281 L 147.058594 144.738281 L 147.058594 115.5 L 108.058594 115.5 L 88.558594 222.714844 L 176.308594 222.714844 L 176.308594 310.441406 L 195.808594 310.441406 L 215.308594 193.476562 Z M 147.058594 193.476562"/></g><g clip-path="url(#b)"><path fill="#0057FF" d="M 69.058594 232.464844 L 166.558594 232.464844 L 166.558594 251.957031 L 69.058594 251.957031 Z M 69.058594 232.464844"/></g><g clip-path="url(#c)"><path fill="#0057FF" d="M 166.558594 173.980469 L 312.808594 173.980469 L 312.808594 183.726562 L 166.558594 183.726562 Z M 166.558594 173.980469"/></g><path fill="#0057FF" d="M 272.289062 164.234375 L 205.558594 164.234375 L 205.558594 154.488281 L 265.582031 154.488281 L 288.757812 94.25 L 297.863281 97.757812 Z M 272.289062 164.234375"/></svg>