<svg xmlns="http://www.w3.org/2000/svg" width="375" viewBox="0 0 375 375" height="375" version="1.0"><defs><clipPath id="a"><path d="M 43.050781 44.761719 L 330.300781 44.761719 L 330.300781 332.011719 L 43.050781 332.011719 Z M 43.050781 44.761719"/></clipPath></defs><g clip-path="url(#a)"><path fill="#0057FF" d="M 317.8125 94.71875 L 249.121094 94.71875 L 249.121094 93.03125 C 249.121094 91.449219 249.042969 89.875 248.886719 88.300781 C 248.726562 86.730469 248.496094 85.167969 248.183594 83.617188 C 247.875 82.070312 247.492188 80.539062 247.03125 79.027344 C 246.570312 77.515625 246.039062 76.027344 245.433594 74.570312 C 244.828125 73.109375 244.152344 71.683594 243.40625 70.289062 C 242.660156 68.894531 241.847656 67.542969 240.96875 66.226562 C 240.089844 64.914062 239.148438 63.648438 238.148438 62.425781 C 237.144531 61.203125 236.085938 60.035156 234.964844 58.917969 C 233.847656 57.800781 232.679688 56.738281 231.457031 55.738281 C 230.238281 54.734375 228.96875 53.792969 227.65625 52.914062 C 226.339844 52.035156 224.988281 51.222656 223.59375 50.480469 C 222.203125 49.734375 220.773438 49.058594 219.316406 48.453125 C 217.855469 47.847656 216.371094 47.3125 214.859375 46.851562 C 213.347656 46.394531 211.816406 46.007812 210.265625 45.699219 C 208.714844 45.390625 207.15625 45.15625 205.582031 45 C 204.007812 44.84375 202.433594 44.761719 200.851562 44.761719 L 172.503906 44.761719 C 170.921875 44.761719 169.34375 44.84375 167.773438 45 C 166.199219 45.15625 164.640625 45.390625 163.089844 45.699219 C 161.539062 46.007812 160.007812 46.394531 158.496094 46.851562 C 156.984375 47.3125 155.5 47.847656 154.039062 48.453125 C 152.578125 49.058594 151.152344 49.734375 149.761719 50.480469 C 148.367188 51.222656 147.011719 52.035156 145.699219 52.914062 C 144.386719 53.792969 143.117188 54.734375 141.898438 55.738281 C 140.675781 56.738281 139.503906 57.800781 138.386719 58.917969 C 137.269531 60.035156 136.210938 61.203125 135.207031 62.425781 C 134.203125 63.648438 133.265625 64.914062 132.386719 66.226562 C 131.507812 67.542969 130.695312 68.894531 129.949219 70.289062 C 129.203125 71.683594 128.527344 73.109375 127.921875 74.570312 C 127.316406 76.027344 126.785156 77.515625 126.324219 79.027344 C 125.863281 80.539062 125.480469 82.070312 125.167969 83.617188 C 124.859375 85.167969 124.625 86.730469 124.46875 88.300781 C 124.3125 89.875 124.234375 91.449219 124.230469 93.03125 L 124.230469 94.71875 L 55.542969 94.71875 C 54.722656 94.71875 53.910156 94.796875 53.105469 94.957031 C 52.300781 95.117188 51.519531 95.355469 50.761719 95.667969 C 50.003906 95.980469 49.285156 96.367188 48.601562 96.820312 C 47.921875 97.277344 47.289062 97.796875 46.710938 98.375 C 46.128906 98.957031 45.613281 99.585938 45.15625 100.269531 C 44.703125 100.949219 44.316406 101.667969 44.003906 102.425781 C 43.6875 103.183594 43.453125 103.964844 43.292969 104.769531 C 43.132812 105.574219 43.050781 106.386719 43.050781 107.207031 L 43.050781 319.523438 C 43.050781 320.339844 43.132812 321.152344 43.292969 321.957031 C 43.453125 322.761719 43.6875 323.542969 44.003906 324.300781 C 44.316406 325.058594 44.703125 325.777344 45.15625 326.460938 C 45.613281 327.140625 46.128906 327.773438 46.710938 328.351562 C 47.289062 328.933594 47.921875 329.449219 48.601562 329.90625 C 49.285156 330.363281 50.003906 330.746094 50.761719 331.058594 C 51.519531 331.375 52.300781 331.609375 53.105469 331.769531 C 53.910156 331.929688 54.722656 332.011719 55.542969 332.011719 L 317.8125 332.011719 C 318.632812 332.011719 319.445312 331.929688 320.25 331.769531 C 321.054688 331.609375 321.835938 331.375 322.59375 331.058594 C 323.351562 330.746094 324.070312 330.363281 324.75 329.90625 C 325.433594 329.449219 326.066406 328.933594 326.644531 328.351562 C 327.222656 327.773438 327.742188 327.140625 328.199219 326.460938 C 328.652344 325.777344 329.039062 325.058594 329.351562 324.300781 C 329.664062 323.542969 329.902344 322.761719 330.0625 321.957031 C 330.222656 321.152344 330.300781 320.339844 330.300781 319.523438 L 330.300781 107.207031 C 330.300781 106.386719 330.222656 105.574219 330.0625 104.769531 C 329.902344 103.964844 329.664062 103.183594 329.351562 102.425781 C 329.039062 101.667969 328.652344 100.949219 328.199219 100.269531 C 327.742188 99.585938 327.222656 98.957031 326.644531 98.375 C 326.066406 97.796875 325.433594 97.277344 324.75 96.820312 C 324.070312 96.367188 323.351562 95.980469 322.59375 95.667969 C 321.835938 95.355469 321.054688 95.117188 320.25 94.957031 C 319.445312 94.796875 318.632812 94.71875 317.8125 94.71875 Z M 149.210938 93.03125 C 149.210938 92.269531 149.25 91.507812 149.328125 90.75 C 149.402344 89.992188 149.519531 89.238281 149.667969 88.492188 C 149.816406 87.746094 150.003906 87.007812 150.226562 86.277344 C 150.449219 85.546875 150.707031 84.832031 151 84.128906 C 151.292969 83.421875 151.617188 82.734375 151.980469 82.0625 C 152.339844 81.390625 152.730469 80.738281 153.15625 80.105469 C 153.578125 79.472656 154.03125 78.859375 154.515625 78.273438 C 155 77.683594 155.511719 77.117188 156.050781 76.578125 C 156.589844 76.039062 157.152344 75.527344 157.742188 75.046875 C 158.332031 74.5625 158.941406 74.109375 159.578125 73.683594 C 160.210938 73.257812 160.863281 72.867188 161.535156 72.507812 C 162.207031 72.148438 162.894531 71.820312 163.597656 71.527344 C 164.300781 71.234375 165.019531 70.976562 165.746094 70.757812 C 166.476562 70.535156 167.214844 70.347656 167.960938 70.195312 C 168.710938 70.046875 169.460938 69.933594 170.222656 69.855469 C 170.980469 69.78125 171.738281 69.742188 172.503906 69.738281 L 200.789062 69.738281 C 201.554688 69.738281 202.316406 69.777344 203.074219 69.851562 C 203.835938 69.925781 204.589844 70.039062 205.339844 70.1875 C 206.085938 70.335938 206.828125 70.519531 207.558594 70.742188 C 208.289062 70.960938 209.007812 71.21875 209.714844 71.511719 C 210.417969 71.800781 211.109375 72.128906 211.78125 72.488281 C 212.457031 72.847656 213.109375 73.238281 213.746094 73.660156 C 214.382812 74.085938 214.996094 74.539062 215.585938 75.023438 C 216.175781 75.507812 216.742188 76.019531 217.28125 76.558594 C 217.824219 77.097656 218.335938 77.660156 218.820312 78.25 C 219.304688 78.839844 219.761719 79.453125 220.1875 80.085938 C 220.613281 80.71875 221.003906 81.375 221.367188 82.046875 C 221.726562 82.71875 222.054688 83.40625 222.347656 84.113281 C 222.644531 84.816406 222.902344 85.535156 223.125 86.265625 C 223.347656 86.996094 223.535156 87.734375 223.683594 88.484375 C 223.835938 89.234375 223.949219 89.988281 224.027344 90.746094 C 224.101562 91.507812 224.144531 92.269531 224.144531 93.03125 L 224.144531 94.71875 L 149.210938 94.71875 Z M 136.722656 119.695312 L 305.324219 119.695312 L 305.324219 188.386719 L 217.898438 188.386719 L 217.898438 175.898438 C 217.898438 175.078125 217.820312 174.265625 217.660156 173.460938 C 217.5 172.65625 217.261719 171.875 216.949219 171.117188 C 216.636719 170.359375 216.25 169.640625 215.796875 168.957031 C 215.339844 168.277344 214.820312 167.644531 214.242188 167.066406 C 213.664062 166.484375 213.03125 165.96875 212.351562 165.511719 C 211.667969 165.058594 210.949219 164.671875 210.191406 164.359375 C 209.433594 164.042969 208.652344 163.808594 207.847656 163.648438 C 207.042969 163.488281 206.230469 163.40625 205.410156 163.40625 L 167.945312 163.40625 C 167.125 163.40625 166.3125 163.488281 165.507812 163.648438 C 164.703125 163.808594 163.921875 164.042969 163.164062 164.359375 C 162.40625 164.671875 161.6875 165.058594 161.003906 165.511719 C 160.324219 165.96875 159.691406 166.484375 159.113281 167.066406 C 158.53125 167.644531 158.015625 168.277344 157.558594 168.957031 C 157.105469 169.640625 156.71875 170.359375 156.40625 171.117188 C 156.089844 171.875 155.855469 172.65625 155.695312 173.460938 C 155.535156 174.265625 155.453125 175.078125 155.453125 175.898438 L 155.453125 188.386719 L 68.03125 188.386719 L 68.03125 119.695312 Z M 192.921875 188.386719 L 192.921875 213.363281 L 180.433594 213.363281 L 180.433594 188.386719 Z M 68.03125 307.03125 L 68.03125 213.363281 L 155.453125 213.363281 L 155.453125 225.851562 C 155.453125 226.671875 155.535156 227.484375 155.695312 228.289062 C 155.855469 229.09375 156.089844 229.875 156.40625 230.632812 C 156.71875 231.390625 157.105469 232.109375 157.558594 232.792969 C 158.015625 233.472656 158.53125 234.105469 159.113281 234.683594 C 159.691406 235.265625 160.324219 235.78125 161.003906 236.238281 C 161.6875 236.691406 162.40625 237.078125 163.164062 237.390625 C 163.921875 237.707031 164.703125 237.941406 165.507812 238.101562 C 166.3125 238.261719 167.125 238.34375 167.945312 238.34375 L 205.410156 238.34375 C 206.230469 238.34375 207.042969 238.261719 207.847656 238.101562 C 208.652344 237.941406 209.433594 237.707031 210.191406 237.390625 C 210.949219 237.078125 211.667969 236.691406 212.351562 236.238281 C 213.03125 235.78125 213.664062 235.265625 214.242188 234.683594 C 214.820312 234.105469 215.339844 233.472656 215.796875 232.792969 C 216.25 232.109375 216.636719 231.390625 216.949219 230.632812 C 217.261719 229.875 217.5 229.09375 217.660156 228.289062 C 217.820312 227.484375 217.898438 226.671875 217.898438 225.851562 L 217.898438 213.363281 L 305.324219 213.363281 L 305.324219 307.03125 Z M 68.03125 307.03125"/></g></svg>