<svg xmlns="http://www.w3.org/2000/svg" width="375" viewBox="0 0 375 375" height="375" version="1.0"><defs><clipPath id="a"><path d="M 24 315 L 363.285156 315 L 363.285156 358 L 24 358 Z M 24 315"/></clipPath></defs><path fill="#0057FF" d="M 268.039062 204.148438 C 266.65625 204.144531 265.273438 204.078125 263.894531 203.941406 C 262.515625 203.800781 261.144531 203.597656 259.785156 203.328125 C 258.425781 203.054688 257.085938 202.71875 255.757812 202.316406 C 254.433594 201.910156 253.128906 201.445312 251.847656 200.914062 C 250.570312 200.382812 249.316406 199.789062 248.09375 199.136719 C 246.875 198.480469 245.6875 197.769531 244.535156 197 C 243.382812 196.230469 242.269531 195.402344 241.199219 194.523438 C 240.128906 193.644531 239.101562 192.714844 238.121094 191.734375 C 237.140625 190.753906 236.210938 189.730469 235.332031 188.660156 C 234.453125 187.585938 233.628906 186.476562 232.859375 185.324219 C 232.089844 184.171875 231.375 182.984375 230.722656 181.761719 C 230.066406 180.539062 229.476562 179.289062 228.945312 178.007812 C 228.414062 176.730469 227.945312 175.425781 227.542969 174.097656 C 227.140625 172.773438 226.800781 171.429688 226.53125 170.070312 C 226.257812 168.710938 226.054688 167.34375 225.917969 165.964844 C 225.78125 164.585938 225.710938 163.203125 225.710938 161.816406 L 225.710938 135.359375 C 225.710938 135.011719 225.742188 134.667969 225.8125 134.328125 C 225.878906 133.984375 225.980469 133.65625 226.113281 133.335938 C 226.246094 133.011719 226.410156 132.707031 226.601562 132.417969 C 226.792969 132.128906 227.015625 131.863281 227.257812 131.617188 C 227.503906 131.371094 227.773438 131.152344 228.0625 130.960938 C 228.351562 130.765625 228.65625 130.605469 228.976562 130.472656 C 229.296875 130.335938 229.628906 130.238281 229.96875 130.167969 C 230.308594 130.101562 230.652344 130.066406 231 130.066406 C 231.527344 130.097656 232.054688 130.097656 232.582031 130.070312 C 233.109375 130.042969 233.632812 129.988281 234.15625 129.90625 C 234.675781 129.824219 235.191406 129.714844 235.703125 129.578125 C 236.210938 129.441406 236.714844 129.277344 237.207031 129.089844 C 237.699219 128.902344 238.179688 128.6875 238.652344 128.445312 C 239.121094 128.207031 239.578125 127.945312 240.023438 127.65625 C 240.464844 127.371094 240.890625 127.058594 241.300781 126.726562 C 241.710938 126.394531 242.101562 126.042969 242.476562 125.667969 C 242.851562 125.296875 243.203125 124.902344 243.535156 124.492188 C 243.867188 124.082031 244.175781 123.65625 244.464844 123.214844 C 244.75 122.773438 245.015625 122.316406 245.253906 121.84375 C 245.492188 121.375 245.707031 120.890625 245.898438 120.398438 C 246.085938 119.90625 246.25 119.40625 246.386719 118.894531 C 246.519531 118.386719 246.628906 117.871094 246.710938 117.347656 C 246.792969 116.828125 246.847656 116.300781 246.875 115.773438 C 246.902344 115.246094 246.902344 114.722656 246.875 114.195312 C 246.875 113.847656 246.910156 113.503906 246.976562 113.160156 C 247.042969 112.820312 247.144531 112.488281 247.277344 112.167969 C 247.410156 111.847656 247.574219 111.542969 247.765625 111.253906 C 247.960938 110.964844 248.179688 110.699219 248.425781 110.453125 C 248.671875 110.207031 248.9375 109.988281 249.226562 109.792969 C 249.515625 109.601562 249.820312 109.4375 250.140625 109.304688 C 250.460938 109.171875 250.792969 109.070312 251.132812 109.003906 C 251.476562 108.9375 251.820312 108.902344 252.167969 108.902344 C 252.515625 108.902344 252.859375 108.9375 253.199219 109.003906 C 253.539062 109.070312 253.871094 109.171875 254.191406 109.304688 C 254.511719 109.4375 254.816406 109.601562 255.105469 109.792969 C 255.394531 109.988281 255.664062 110.207031 255.910156 110.453125 C 256.152344 110.699219 256.375 110.964844 256.566406 111.253906 C 256.757812 111.542969 256.921875 111.847656 257.054688 112.167969 C 257.1875 112.488281 257.289062 112.820312 257.355469 113.160156 C 257.425781 113.503906 257.457031 113.847656 257.457031 114.195312 C 257.457031 114.195312 259.378906 130.066406 305.082031 130.066406 C 305.429688 130.066406 305.773438 130.101562 306.113281 130.167969 C 306.453125 130.238281 306.785156 130.335938 307.105469 130.46875 C 307.425781 130.605469 307.730469 130.765625 308.019531 130.960938 C 308.308594 131.152344 308.578125 131.371094 308.824219 131.617188 C 309.066406 131.863281 309.289062 132.128906 309.480469 132.417969 C 309.671875 132.707031 309.835938 133.011719 309.96875 133.335938 C 310.101562 133.65625 310.203125 133.984375 310.269531 134.328125 C 310.339844 134.667969 310.371094 135.011719 310.371094 135.359375 L 310.371094 161.816406 C 310.371094 163.203125 310.300781 164.585938 310.164062 165.964844 C 310.027344 167.34375 309.824219 168.710938 309.550781 170.070312 C 309.28125 171.429688 308.941406 172.773438 308.539062 174.097656 C 308.136719 175.425781 307.667969 176.730469 307.136719 178.007812 C 306.605469 179.289062 306.011719 180.539062 305.359375 181.761719 C 304.707031 182.984375 303.992188 184.171875 303.222656 185.324219 C 302.453125 186.476562 301.628906 187.585938 300.75 188.660156 C 299.871094 189.730469 298.941406 190.753906 297.960938 191.734375 C 296.980469 192.714844 295.953125 193.644531 294.882812 194.523438 C 293.8125 195.402344 292.699219 196.230469 291.546875 197 C 290.394531 197.769531 289.207031 198.480469 287.984375 199.136719 C 286.765625 199.789062 285.511719 200.382812 284.234375 200.914062 C 282.953125 201.445312 281.648438 201.910156 280.324219 202.316406 C 278.996094 202.71875 277.65625 203.054688 276.296875 203.328125 C 274.9375 203.597656 273.566406 203.800781 272.1875 203.941406 C 270.808594 204.078125 269.425781 204.144531 268.039062 204.148438 Z M 236.292969 140.121094 L 236.292969 161.816406 C 236.292969 162.855469 236.34375 163.894531 236.445312 164.929688 C 236.546875 165.964844 236.699219 166.992188 236.902344 168.011719 C 237.105469 169.03125 237.359375 170.039062 237.660156 171.03125 C 237.960938 172.027344 238.3125 173.003906 238.710938 173.964844 C 239.105469 174.925781 239.550781 175.867188 240.042969 176.78125 C 240.53125 177.699219 241.066406 178.589844 241.644531 179.457031 C 242.222656 180.320312 242.839844 181.152344 243.5 181.957031 C 244.160156 182.761719 244.855469 183.53125 245.589844 184.265625 C 246.328125 185 247.097656 185.699219 247.898438 186.359375 C 248.703125 187.019531 249.539062 187.636719 250.402344 188.214844 C 251.265625 188.792969 252.15625 189.328125 253.074219 189.816406 C 253.992188 190.304688 254.929688 190.75 255.890625 191.148438 C 256.851562 191.546875 257.828125 191.894531 258.824219 192.199219 C 259.820312 192.5 260.828125 192.753906 261.847656 192.957031 C 262.867188 193.15625 263.894531 193.308594 264.929688 193.414062 C 265.964844 193.515625 267 193.566406 268.039062 193.566406 C 269.082031 193.566406 270.117188 193.515625 271.152344 193.414062 C 272.1875 193.308594 273.214844 193.15625 274.234375 192.957031 C 275.253906 192.753906 276.261719 192.5 277.257812 192.199219 C 278.253906 191.894531 279.230469 191.546875 280.191406 191.148438 C 281.152344 190.75 282.089844 190.304688 283.007812 189.816406 C 283.925781 189.324219 284.816406 188.792969 285.679688 188.214844 C 286.542969 187.636719 287.378906 187.019531 288.183594 186.359375 C 288.984375 185.699219 289.753906 185 290.492188 184.265625 C 291.226562 183.53125 291.921875 182.761719 292.582031 181.957031 C 293.242188 181.152344 293.859375 180.320312 294.4375 179.457031 C 295.015625 178.589844 295.550781 177.699219 296.039062 176.78125 C 296.53125 175.867188 296.976562 174.925781 297.371094 173.964844 C 297.769531 173.003906 298.121094 172.027344 298.421875 171.03125 C 298.722656 170.039062 298.976562 169.03125 299.179688 168.011719 C 299.382812 166.992188 299.535156 165.964844 299.636719 164.929688 C 299.738281 163.894531 299.789062 162.855469 299.789062 161.816406 L 299.789062 140.578125 C 274.253906 139.867188 261.035156 133.996094 254.191406 127.945312 C 253.234375 129.550781 252.113281 131.03125 250.828125 132.390625 C 249.546875 133.75 248.132812 134.957031 246.585938 136.007812 C 245.039062 137.058594 243.398438 137.929688 241.664062 138.625 C 239.925781 139.320312 238.136719 139.816406 236.292969 140.121094 Z M 236.292969 140.121094"/><path fill="#0057FF" d="M 326.246094 151.234375 L 315.664062 151.234375 L 315.664062 119.484375 C 315.664062 117.925781 315.585938 116.371094 315.433594 114.816406 C 315.28125 113.265625 315.054688 111.722656 314.75 110.195312 C 314.445312 108.664062 314.066406 107.152344 313.613281 105.660156 C 313.160156 104.167969 312.636719 102.703125 312.039062 101.261719 C 311.441406 99.820312 310.777344 98.410156 310.039062 97.035156 C 309.304688 95.660156 308.503906 94.324219 307.636719 93.027344 C 306.769531 91.730469 305.84375 90.480469 304.855469 89.273438 C 303.863281 88.066406 302.816406 86.914062 301.714844 85.808594 C 300.613281 84.707031 299.457031 83.660156 298.253906 82.671875 C 297.046875 81.683594 295.796875 80.753906 294.5 79.886719 C 293.203125 79.023438 291.867188 78.21875 290.488281 77.484375 C 289.113281 76.75 287.707031 76.085938 286.265625 75.488281 C 284.824219 74.890625 283.359375 74.367188 281.863281 73.914062 C 280.371094 73.460938 278.863281 73.082031 277.332031 72.777344 C 275.800781 72.472656 274.261719 72.246094 272.707031 72.089844 C 271.15625 71.9375 269.601562 71.863281 268.039062 71.863281 C 266.480469 71.863281 264.925781 71.9375 263.375 72.089844 C 261.820312 72.246094 260.28125 72.472656 258.75 72.777344 C 257.21875 73.082031 255.710938 73.460938 254.21875 73.914062 C 252.722656 74.367188 251.257812 74.890625 249.816406 75.488281 C 248.375 76.085938 246.96875 76.75 245.589844 77.484375 C 244.214844 78.21875 242.878906 79.023438 241.582031 79.886719 C 240.285156 80.753906 239.035156 81.683594 237.828125 82.671875 C 236.625 83.660156 235.46875 84.707031 234.367188 85.808594 C 233.265625 86.914062 232.21875 88.066406 231.226562 89.273438 C 230.238281 90.480469 229.3125 91.730469 228.445312 93.027344 C 227.578125 94.324219 226.777344 95.660156 226.042969 97.035156 C 225.304688 98.410156 224.640625 99.820312 224.042969 101.261719 C 223.445312 102.703125 222.921875 104.167969 222.46875 105.660156 C 222.015625 107.152344 221.636719 108.664062 221.332031 110.195312 C 221.027344 111.722656 220.800781 113.265625 220.648438 114.816406 C 220.496094 116.371094 220.417969 117.925781 220.417969 119.484375 L 220.417969 151.234375 L 209.835938 151.234375 L 209.835938 119.484375 C 209.835938 117.578125 209.929688 115.675781 210.117188 113.78125 C 210.300781 111.882812 210.582031 110 210.953125 108.128906 C 211.324219 106.261719 211.789062 104.414062 212.339844 102.589844 C 212.894531 100.765625 213.535156 98.972656 214.265625 97.210938 C 214.996094 95.449219 215.808594 93.726562 216.707031 92.046875 C 217.605469 90.367188 218.585938 88.734375 219.644531 87.148438 C 220.703125 85.5625 221.839844 84.035156 223.046875 82.558594 C 224.257812 81.085938 225.535156 79.675781 226.882812 78.328125 C 228.230469 76.980469 229.640625 75.699219 231.117188 74.492188 C 232.589844 73.28125 234.117188 72.148438 235.703125 71.089844 C 237.289062 70.03125 238.921875 69.050781 240.601562 68.152344 C 242.285156 67.253906 244.003906 66.4375 245.765625 65.710938 C 247.527344 64.980469 249.320312 64.339844 251.144531 63.785156 C 252.96875 63.230469 254.816406 62.769531 256.6875 62.398438 C 258.554688 62.027344 260.4375 61.746094 262.335938 61.558594 C 264.234375 61.371094 266.132812 61.277344 268.039062 61.277344 C 269.949219 61.277344 271.847656 61.371094 273.746094 61.558594 C 275.644531 61.746094 277.527344 62.027344 279.394531 62.398438 C 281.265625 62.769531 283.113281 63.230469 284.9375 63.785156 C 286.761719 64.339844 288.554688 64.980469 290.316406 65.710938 C 292.078125 66.4375 293.796875 67.253906 295.480469 68.152344 C 297.160156 69.050781 298.792969 70.03125 300.378906 71.089844 C 301.964844 72.148438 303.492188 73.28125 304.964844 74.492188 C 306.441406 75.699219 307.851562 76.980469 309.199219 78.328125 C 310.546875 79.675781 311.824219 81.085938 313.035156 82.558594 C 314.242188 84.035156 315.378906 85.5625 316.4375 87.148438 C 317.496094 88.734375 318.476562 90.367188 319.375 92.046875 C 320.273438 93.726562 321.085938 95.449219 321.816406 97.210938 C 322.546875 98.972656 323.1875 100.765625 323.738281 102.589844 C 324.292969 104.414062 324.757812 106.261719 325.128906 108.128906 C 325.5 110 325.78125 111.882812 325.964844 113.78125 C 326.152344 115.675781 326.246094 117.578125 326.246094 119.484375 Z M 326.246094 151.234375"/><path fill="#0057FF" d="M 305.082031 172.398438 L 305.082031 161.816406 C 305.777344 161.816406 306.464844 161.75 307.144531 161.613281 C 307.828125 161.476562 308.488281 161.277344 309.128906 161.011719 C 309.773438 160.746094 310.382812 160.417969 310.960938 160.03125 C 311.539062 159.648438 312.074219 159.207031 312.5625 158.71875 C 313.054688 158.226562 313.492188 157.691406 313.878906 157.113281 C 314.265625 156.535156 314.59375 155.925781 314.859375 155.285156 C 315.125 154.640625 315.324219 153.980469 315.460938 153.296875 C 315.597656 152.617188 315.664062 151.929688 315.664062 151.234375 C 315.664062 150.539062 315.597656 149.851562 315.460938 149.167969 C 315.324219 148.488281 315.125 147.824219 314.859375 147.183594 C 314.59375 146.542969 314.265625 145.933594 313.878906 145.355469 C 313.492188 144.777344 313.054688 144.242188 312.5625 143.75 C 312.074219 143.257812 311.539062 142.820312 310.960938 142.433594 C 310.382812 142.046875 309.773438 141.722656 309.128906 141.457031 C 308.488281 141.191406 307.828125 140.988281 307.144531 140.855469 C 306.464844 140.71875 305.777344 140.652344 305.082031 140.652344 L 305.082031 130.066406 C 305.773438 130.066406 306.464844 130.101562 307.15625 130.167969 C 307.84375 130.238281 308.53125 130.339844 309.210938 130.476562 C 309.890625 130.609375 310.5625 130.777344 311.226562 130.980469 C 311.886719 131.179688 312.539062 131.414062 313.179688 131.679688 C 313.820312 131.945312 314.445312 132.242188 315.058594 132.566406 C 315.667969 132.894531 316.261719 133.25 316.839844 133.636719 C 317.417969 134.019531 317.972656 134.433594 318.507812 134.871094 C 319.042969 135.3125 319.558594 135.777344 320.046875 136.265625 C 320.539062 136.757812 321.003906 137.269531 321.441406 137.804688 C 321.882812 138.34375 322.292969 138.898438 322.679688 139.476562 C 323.066406 140.050781 323.421875 140.644531 323.746094 141.257812 C 324.074219 141.867188 324.371094 142.492188 324.636719 143.132812 C 324.902344 143.773438 325.132812 144.425781 325.335938 145.089844 C 325.535156 145.753906 325.703125 146.425781 325.839844 147.105469 C 325.976562 147.785156 326.078125 148.46875 326.144531 149.160156 C 326.210938 149.847656 326.246094 150.539062 326.246094 151.234375 C 326.246094 151.925781 326.210938 152.617188 326.144531 153.308594 C 326.078125 154 325.976562 154.683594 325.839844 155.363281 C 325.703125 156.042969 325.535156 156.714844 325.335938 157.378906 C 325.132812 158.042969 324.902344 158.691406 324.636719 159.332031 C 324.371094 159.972656 324.074219 160.601562 323.746094 161.210938 C 323.421875 161.824219 323.066406 162.417969 322.679688 162.992188 C 322.292969 163.570312 321.882812 164.125 321.441406 164.660156 C 321.003906 165.195312 320.539062 165.710938 320.046875 166.199219 C 319.558594 166.691406 319.042969 167.15625 318.507812 167.59375 C 317.972656 168.035156 317.417969 168.445312 316.839844 168.832031 C 316.261719 169.21875 315.667969 169.574219 315.058594 169.898438 C 314.445312 170.226562 313.820312 170.523438 313.179688 170.789062 C 312.539062 171.054688 311.886719 171.285156 311.226562 171.488281 C 310.5625 171.6875 309.890625 171.859375 309.210938 171.992188 C 308.53125 172.128906 307.84375 172.230469 307.15625 172.296875 C 306.464844 172.367188 305.773438 172.398438 305.082031 172.398438 Z M 305.082031 172.398438"/><path fill="#0057FF" d="M 231 172.398438 C 230.308594 172.398438 229.617188 172.367188 228.925781 172.296875 C 228.238281 172.230469 227.550781 172.128906 226.871094 171.992188 C 226.191406 171.859375 225.519531 171.6875 224.855469 171.488281 C 224.195312 171.285156 223.542969 171.054688 222.902344 170.789062 C 222.261719 170.523438 221.636719 170.226562 221.023438 169.898438 C 220.414062 169.574219 219.820312 169.21875 219.242188 168.832031 C 218.664062 168.445312 218.109375 168.035156 217.574219 167.59375 C 217.039062 167.15625 216.523438 166.691406 216.035156 166.199219 C 215.542969 165.710938 215.078125 165.195312 214.640625 164.660156 C 214.199219 164.125 213.789062 163.570312 213.402344 162.992188 C 213.015625 162.417969 212.660156 161.824219 212.335938 161.210938 C 212.007812 160.601562 211.710938 159.972656 211.445312 159.332031 C 211.179688 158.691406 210.949219 158.042969 210.746094 157.378906 C 210.546875 156.714844 210.378906 156.042969 210.242188 155.363281 C 210.105469 154.683594 210.003906 154 209.9375 153.308594 C 209.871094 152.617188 209.835938 151.925781 209.835938 151.234375 C 209.835938 150.539062 209.871094 149.847656 209.9375 149.160156 C 210.003906 148.46875 210.105469 147.785156 210.242188 147.105469 C 210.378906 146.425781 210.546875 145.753906 210.746094 145.089844 C 210.949219 144.425781 211.179688 143.773438 211.445312 143.132812 C 211.710938 142.492188 212.007812 141.867188 212.335938 141.257812 C 212.660156 140.644531 213.015625 140.050781 213.402344 139.476562 C 213.789062 138.898438 214.199219 138.34375 214.640625 137.804688 C 215.078125 137.269531 215.542969 136.757812 216.035156 136.265625 C 216.523438 135.777344 217.039062 135.3125 217.574219 134.871094 C 218.109375 134.433594 218.664062 134.019531 219.242188 133.636719 C 219.820312 133.25 220.414062 132.894531 221.023438 132.566406 C 221.636719 132.242188 222.261719 131.945312 222.902344 131.679688 C 223.542969 131.414062 224.195312 131.179688 224.855469 130.980469 C 225.519531 130.777344 226.191406 130.609375 226.871094 130.476562 C 227.550781 130.339844 228.238281 130.238281 228.925781 130.167969 C 229.617188 130.101562 230.308594 130.066406 231 130.066406 L 231 140.652344 C 230.304688 140.652344 229.617188 140.71875 228.9375 140.855469 C 228.253906 140.988281 227.59375 141.191406 226.953125 141.457031 C 226.308594 141.722656 225.699219 142.046875 225.121094 142.433594 C 224.542969 142.820312 224.007812 143.257812 223.519531 143.75 C 223.027344 144.242188 222.585938 144.777344 222.203125 145.355469 C 221.816406 145.933594 221.488281 146.542969 221.222656 147.183594 C 220.957031 147.824219 220.757812 148.488281 220.621094 149.167969 C 220.484375 149.851562 220.417969 150.539062 220.417969 151.234375 C 220.417969 151.929688 220.484375 152.617188 220.621094 153.296875 C 220.757812 153.980469 220.957031 154.640625 221.222656 155.285156 C 221.488281 155.925781 221.816406 156.535156 222.203125 157.113281 C 222.585938 157.691406 223.027344 158.226562 223.519531 158.71875 C 224.007812 159.207031 224.542969 159.648438 225.121094 160.03125 C 225.699219 160.417969 226.308594 160.746094 226.953125 161.011719 C 227.59375 161.277344 228.253906 161.476562 228.9375 161.613281 C 229.617188 161.75 230.304688 161.816406 231 161.816406 Z M 231 172.398438"/><path fill="#0057FF" d="M 347.414062 325.851562 L 188.667969 325.851562 C 188.324219 325.851562 187.976562 325.816406 187.636719 325.75 C 187.296875 325.679688 186.964844 325.582031 186.644531 325.449219 C 186.324219 325.316406 186.019531 325.152344 185.730469 324.960938 C 185.441406 324.765625 185.175781 324.546875 184.929688 324.300781 C 184.683594 324.054688 184.464844 323.789062 184.269531 323.5 C 184.078125 323.210938 183.914062 322.90625 183.78125 322.585938 C 183.648438 322.261719 183.546875 321.933594 183.480469 321.59375 C 183.414062 321.25 183.378906 320.90625 183.378906 320.558594 L 183.378906 235.898438 C 183.378906 234.722656 183.730469 233.664062 184.4375 232.722656 C 201.703125 209.703125 239.960938 209.441406 241.582031 209.441406 C 243.222656 209.191406 246.875 205.539062 246.875 193.566406 L 257.457031 193.566406 C 257.457031 219.722656 242.230469 220.023438 241.582031 220.023438 C 241.25 220.023438 208.617188 220.292969 193.960938 237.742188 L 193.960938 315.269531 L 342.121094 315.269531 L 342.121094 237.742188 C 327.464844 220.292969 294.824219 220.023438 294.496094 220.023438 C 293.859375 220.023438 278.625 219.722656 278.625 193.566406 L 289.207031 193.566406 C 289.207031 205.539062 292.859375 209.191406 294.792969 209.441406 C 296.152344 209.476562 334.347656 209.652344 351.644531 232.722656 C 352.351562 233.664062 352.703125 234.722656 352.703125 235.898438 L 352.703125 320.558594 C 352.703125 320.90625 352.667969 321.25 352.601562 321.59375 C 352.535156 321.933594 352.433594 322.261719 352.300781 322.585938 C 352.167969 322.90625 352.003906 323.210938 351.8125 323.5 C 351.617188 323.789062 351.398438 324.054688 351.152344 324.300781 C 350.90625 324.546875 350.640625 324.765625 350.351562 324.960938 C 350.0625 325.152344 349.757812 325.316406 349.4375 325.449219 C 349.117188 325.582031 348.785156 325.679688 348.445312 325.75 C 348.105469 325.816406 347.757812 325.851562 347.414062 325.851562 Z M 347.414062 325.851562"/><path fill="#0057FF" d="M 268.039062 246.480469 C 267.339844 246.480469 266.664062 246.34375 266.015625 246.078125 C 265.367188 245.808594 264.796875 245.425781 264.300781 244.929688 L 237.84375 218.472656 L 245.324219 210.988281 L 268.039062 233.707031 L 290.757812 210.988281 L 298.238281 218.472656 L 271.78125 244.929688 C 271.285156 245.425781 270.714844 245.808594 270.066406 246.078125 C 269.417969 246.34375 268.742188 246.480469 268.039062 246.480469 Z M 268.039062 246.480469"/><path fill="#0057FF" d="M 283.914062 262.355469 C 283.214844 262.355469 282.539062 262.21875 281.890625 261.949219 C 281.242188 261.683594 280.671875 261.300781 280.175781 260.804688 L 268.039062 248.671875 L 255.90625 260.804688 C 255.660156 261.050781 255.394531 261.269531 255.105469 261.460938 C 254.816406 261.652344 254.511719 261.816406 254.191406 261.949219 C 253.871094 262.082031 253.539062 262.183594 253.199219 262.25 C 252.859375 262.320312 252.515625 262.351562 252.167969 262.351562 C 251.820312 262.351562 251.476562 262.320312 251.132812 262.25 C 250.792969 262.183594 250.464844 262.082031 250.140625 261.949219 C 249.820312 261.816406 249.515625 261.652344 249.226562 261.460938 C 248.9375 261.269531 248.671875 261.050781 248.425781 260.804688 L 221.96875 234.347656 C 221.472656 233.851562 221.089844 233.277344 220.820312 232.628906 C 220.550781 231.980469 220.417969 231.304688 220.417969 230.605469 L 220.417969 214.730469 L 231 214.730469 L 231 228.414062 L 252.167969 249.582031 L 264.300781 237.445312 C 264.546875 237.203125 264.8125 236.980469 265.101562 236.789062 C 265.390625 236.597656 265.695312 236.433594 266.015625 236.300781 C 266.335938 236.167969 266.667969 236.066406 267.007812 236 C 267.347656 235.933594 267.695312 235.898438 268.039062 235.898438 C 268.386719 235.898438 268.730469 235.933594 269.074219 236 C 269.414062 236.066406 269.746094 236.167969 270.066406 236.300781 C 270.386719 236.433594 270.691406 236.597656 270.980469 236.789062 C 271.269531 236.980469 271.535156 237.203125 271.78125 237.445312 L 283.914062 249.582031 L 305.082031 228.414062 L 305.082031 214.730469 L 315.664062 214.730469 L 315.664062 230.605469 C 315.664062 231.308594 315.527344 231.980469 315.261719 232.628906 C 314.992188 233.277344 314.609375 233.851562 314.113281 234.347656 L 287.65625 260.804688 C 287.160156 261.300781 286.585938 261.683594 285.9375 261.949219 C 285.292969 262.21875 284.617188 262.355469 283.914062 262.355469 Z M 283.914062 262.355469"/><path fill="#0057FF" d="M 273.332031 272.9375 L 262.75 272.9375 C 262.046875 272.9375 261.371094 272.800781 260.726562 272.535156 C 260.078125 272.265625 259.503906 271.882812 259.007812 271.386719 L 248.425781 260.804688 L 255.90625 253.320312 L 264.941406 262.355469 L 271.140625 262.355469 L 280.175781 253.320312 L 287.65625 260.804688 L 277.074219 271.386719 C 276.578125 271.882812 276.003906 272.265625 275.355469 272.535156 C 274.707031 272.800781 274.035156 272.9375 273.332031 272.9375 Z M 273.332031 272.9375"/><path fill="#0057FF" d="M 246.972656 319.519531 L 257.566406 266.609375 L 267.941406 268.683594 L 257.351562 321.597656 Z M 246.972656 319.519531"/><path fill="#0057FF" d="M 268.144531 268.679688 L 278.519531 266.605469 L 289.105469 319.519531 L 278.726562 321.59375 Z M 268.144531 268.679688"/><path fill="#0057FF" d="M 209.835938 267.644531 L 220.417969 267.644531 L 220.417969 320.558594 L 209.835938 320.558594 Z M 209.835938 267.644531"/><path fill="#0057FF" d="M 315.664062 267.644531 L 326.246094 267.644531 L 326.246094 320.558594 L 315.664062 320.558594 Z M 315.664062 267.644531"/><g clip-path="url(#a)"><path fill="#0057FF" d="M 357.996094 357.601562 L 29.925781 357.601562 C 29.578125 357.601562 29.234375 357.566406 28.894531 357.496094 C 28.554688 357.429688 28.222656 357.328125 27.902344 357.195312 C 27.582031 357.0625 27.277344 356.902344 26.988281 356.707031 C 26.699219 356.515625 26.429688 356.296875 26.1875 356.050781 C 25.941406 355.804688 25.722656 355.535156 25.527344 355.25 C 25.335938 354.960938 25.171875 354.652344 25.039062 354.332031 C 24.90625 354.011719 24.804688 353.679688 24.738281 353.339844 C 24.671875 353 24.636719 352.65625 24.636719 352.308594 L 24.636719 320.558594 C 24.636719 320.210938 24.671875 319.867188 24.738281 319.527344 C 24.804688 319.1875 24.90625 318.855469 25.039062 318.535156 C 25.171875 318.214844 25.335938 317.910156 25.527344 317.621094 C 25.722656 317.332031 25.941406 317.0625 26.1875 316.816406 C 26.429688 316.574219 26.699219 316.351562 26.988281 316.160156 C 27.277344 315.96875 27.582031 315.804688 27.902344 315.671875 C 28.222656 315.539062 28.554688 315.4375 28.894531 315.371094 C 29.234375 315.300781 29.578125 315.269531 29.925781 315.269531 L 357.996094 315.269531 C 358.34375 315.269531 358.6875 315.300781 359.027344 315.371094 C 359.367188 315.4375 359.699219 315.539062 360.019531 315.671875 C 360.339844 315.804688 360.644531 315.96875 360.933594 316.160156 C 361.222656 316.351562 361.492188 316.574219 361.738281 316.816406 C 361.980469 317.0625 362.203125 317.332031 362.394531 317.621094 C 362.585938 317.910156 362.75 318.214844 362.882812 318.535156 C 363.015625 318.855469 363.117188 319.1875 363.183594 319.527344 C 363.253906 319.867188 363.285156 320.210938 363.285156 320.558594 L 363.285156 352.308594 C 363.285156 352.65625 363.253906 353 363.183594 353.339844 C 363.117188 353.679688 363.015625 354.011719 362.882812 354.332031 C 362.75 354.652344 362.585938 354.960938 362.394531 355.25 C 362.203125 355.535156 361.980469 355.804688 361.738281 356.050781 C 361.492188 356.296875 361.222656 356.515625 360.933594 356.707031 C 360.644531 356.902344 360.339844 357.0625 360.019531 357.195312 C 359.699219 357.328125 359.367188 357.429688 359.027344 357.5 C 358.6875 357.566406 358.34375 357.601562 357.996094 357.601562 Z M 35.21875 347.015625 L 352.703125 347.015625 L 352.703125 325.851562 L 35.21875 325.851562 Z M 35.21875 347.015625"/></g><path fill="#0057FF" d="M 167.503906 304.683594 L 40.511719 304.683594 C 40.164062 304.683594 39.820312 304.652344 39.476562 304.582031 C 39.136719 304.515625 38.804688 304.414062 38.484375 304.28125 C 38.164062 304.148438 37.859375 303.988281 37.570312 303.792969 C 37.28125 303.601562 37.015625 303.382812 36.769531 303.136719 C 36.523438 302.890625 36.304688 302.621094 36.109375 302.332031 C 35.917969 302.042969 35.753906 301.738281 35.621094 301.417969 C 35.488281 301.097656 35.386719 300.765625 35.320312 300.425781 C 35.253906 300.085938 35.21875 299.742188 35.21875 299.394531 L 35.21875 193.566406 C 35.21875 193.21875 35.253906 192.875 35.320312 192.53125 C 35.386719 192.191406 35.488281 191.859375 35.621094 191.539062 C 35.753906 191.21875 35.917969 190.914062 36.109375 190.625 C 36.304688 190.335938 36.523438 190.070312 36.769531 189.824219 C 37.015625 189.578125 37.28125 189.359375 37.570312 189.164062 C 37.859375 188.972656 38.164062 188.808594 38.484375 188.675781 C 38.804688 188.542969 39.136719 188.441406 39.476562 188.375 C 39.820312 188.308594 40.164062 188.273438 40.511719 188.273438 L 167.503906 188.273438 C 167.851562 188.273438 168.195312 188.308594 168.535156 188.375 C 168.878906 188.441406 169.207031 188.542969 169.527344 188.675781 C 169.851562 188.808594 170.15625 188.972656 170.445312 189.164062 C 170.734375 189.359375 171 189.578125 171.246094 189.824219 C 171.492188 190.070312 171.710938 190.335938 171.902344 190.625 C 172.097656 190.914062 172.261719 191.21875 172.394531 191.539062 C 172.527344 191.859375 172.625 192.191406 172.695312 192.53125 C 172.761719 192.875 172.796875 193.21875 172.796875 193.566406 L 172.796875 299.394531 C 172.796875 299.742188 172.761719 300.085938 172.695312 300.425781 C 172.625 300.765625 172.527344 301.097656 172.394531 301.417969 C 172.261719 301.738281 172.097656 302.042969 171.902344 302.332031 C 171.710938 302.621094 171.492188 302.890625 171.246094 303.136719 C 171 303.382812 170.734375 303.601562 170.445312 303.792969 C 170.15625 303.988281 169.851562 304.148438 169.527344 304.28125 C 169.207031 304.414062 168.878906 304.515625 168.535156 304.582031 C 168.195312 304.652344 167.851562 304.683594 167.503906 304.683594 Z M 45.800781 294.101562 L 162.210938 294.101562 L 162.210938 198.855469 L 45.800781 198.855469 Z M 45.800781 294.101562"/><path fill="#0057FF" d="M 82.839844 299.394531 L 93.425781 299.394531 L 93.425781 320.558594 L 82.839844 320.558594 Z M 82.839844 299.394531"/><path fill="#0057FF" d="M 114.589844 299.394531 L 125.171875 299.394531 L 125.171875 320.558594 L 114.589844 320.558594 Z M 114.589844 299.394531"/><path fill="#0057FF" d="M 178.085938 177.691406 L 104.007812 177.691406 C 102.511719 177.691406 101.015625 177.648438 99.519531 177.5625 C 98.023438 177.480469 96.535156 177.351562 95.046875 177.183594 C 93.558594 177.011719 92.078125 176.800781 90.601562 176.550781 C 89.125 176.296875 87.65625 176.003906 86.199219 175.667969 C 84.738281 175.332031 83.292969 174.953125 81.855469 174.535156 C 80.417969 174.117188 78.992188 173.660156 77.582031 173.160156 C 76.167969 172.660156 74.773438 172.125 73.390625 171.546875 C 72.007812 170.96875 70.644531 170.351562 69.300781 169.699219 C 67.953125 169.042969 66.625 168.351562 65.320312 167.621094 C 64.011719 166.890625 62.726562 166.125 61.460938 165.320312 C 60.199219 164.519531 58.957031 163.679688 57.742188 162.808594 C 56.527344 161.9375 55.335938 161.03125 54.167969 160.089844 C 53.003906 159.148438 51.867188 158.175781 50.757812 157.171875 C 49.648438 156.167969 48.566406 155.132812 47.515625 154.066406 C 46.460938 153 45.441406 151.90625 44.453125 150.78125 C 43.464844 149.660156 42.507812 148.507812 41.582031 147.332031 C 40.65625 146.152344 39.765625 144.949219 38.910156 143.722656 C 38.054688 142.496094 37.234375 141.242188 36.445312 139.96875 C 35.660156 138.695312 34.914062 137.398438 34.199219 136.082031 C 33.488281 134.765625 32.8125 133.429688 32.175781 132.074219 C 31.539062 130.71875 30.941406 129.347656 30.382812 127.957031 C 29.824219 126.570312 29.304688 125.167969 28.824219 123.746094 C 28.34375 122.328125 27.90625 120.898438 27.507812 119.457031 C 27.109375 118.011719 26.75 116.558594 26.433594 115.097656 C 26.117188 113.632812 25.84375 112.160156 25.609375 110.683594 C 25.375 109.203125 25.1875 107.71875 25.035156 106.230469 C 24.886719 104.738281 24.78125 103.246094 24.714844 101.75 C 24.652344 100.257812 24.628906 98.757812 24.648438 97.261719 C 24.667969 95.765625 24.730469 94.269531 24.835938 92.777344 C 24.941406 91.28125 25.085938 89.792969 25.273438 88.308594 C 25.464844 86.824219 25.695312 85.34375 25.96875 83.871094 C 26.238281 82.402344 26.554688 80.9375 26.910156 79.484375 C 27.265625 78.027344 27.660156 76.585938 28.097656 75.152344 C 28.535156 73.722656 29.011719 72.304688 29.527344 70.898438 C 30.046875 69.492188 30.601562 68.105469 31.199219 66.730469 C 31.792969 65.355469 32.429688 64 33.101562 62.664062 C 33.773438 61.324219 34.484375 60.007812 35.230469 58.710938 C 35.976562 57.414062 36.761719 56.136719 37.578125 54.886719 C 38.398438 53.632812 39.253906 52.402344 40.140625 51.199219 C 41.03125 49.992188 41.953125 48.816406 42.910156 47.664062 C 43.863281 46.507812 44.851562 45.386719 45.871094 44.289062 C 46.890625 43.191406 47.9375 42.125 49.019531 41.085938 C 50.097656 40.050781 51.207031 39.042969 52.34375 38.070312 C 53.480469 37.09375 54.640625 36.152344 55.832031 35.242188 C 57.023438 34.335938 58.238281 33.460938 59.476562 32.621094 C 60.714844 31.78125 61.976562 30.976562 63.261719 30.207031 C 64.546875 29.4375 65.851562 28.707031 67.179688 28.011719 C 68.503906 27.316406 69.847656 26.660156 71.210938 26.042969 C 72.574219 25.421875 73.957031 24.84375 75.351562 24.304688 C 76.746094 23.761719 78.15625 23.261719 79.582031 22.800781 C 81.007812 22.339844 82.441406 21.921875 83.890625 21.539062 C 85.339844 21.160156 86.796875 20.824219 88.265625 20.527344 C 89.730469 20.230469 91.207031 19.972656 92.6875 19.757812 C 94.171875 19.546875 95.65625 19.375 97.148438 19.246094 C 98.640625 19.117188 100.132812 19.027344 101.632812 18.984375 C 103.128906 18.9375 104.625 18.9375 106.121094 18.976562 C 107.617188 19.015625 109.113281 19.097656 110.605469 19.222656 C 112.09375 19.347656 113.582031 19.511719 115.066406 19.722656 C 116.546875 19.929688 118.023438 20.179688 119.492188 20.472656 C 120.960938 20.765625 122.417969 21.097656 123.867188 21.472656 C 125.316406 21.847656 126.757812 22.261719 128.183594 22.71875 C 129.609375 23.171875 131.019531 23.667969 132.417969 24.203125 C 133.816406 24.742188 135.199219 25.316406 136.5625 25.929688 C 137.929688 26.542969 139.277344 27.195312 140.605469 27.886719 C 141.933594 28.578125 143.242188 29.304688 144.527344 30.066406 C 145.816406 30.832031 147.082031 31.632812 148.324219 32.46875 C 149.566406 33.304688 150.78125 34.175781 151.976562 35.078125 C 153.167969 35.984375 154.335938 36.921875 155.472656 37.890625 C 156.613281 38.863281 157.726562 39.863281 158.808594 40.898438 C 159.890625 41.933594 160.945312 42.996094 161.96875 44.089844 C 162.992188 45.183594 163.980469 46.304688 164.941406 47.453125 C 165.902344 48.601562 166.828125 49.777344 167.71875 50.980469 C 168.613281 52.179688 169.472656 53.40625 170.296875 54.65625 C 171.117188 55.90625 171.90625 57.179688 172.65625 58.472656 C 173.410156 59.769531 174.125 61.085938 174.800781 62.417969 C 175.476562 63.753906 176.117188 65.109375 176.71875 66.480469 C 177.316406 67.851562 177.878906 69.238281 178.402344 70.640625 C 178.921875 72.042969 179.40625 73.460938 179.847656 74.890625 C 180.289062 76.324219 180.691406 77.765625 181.050781 79.21875 C 181.410156 80.671875 181.730469 82.132812 182.007812 83.605469 C 182.285156 85.074219 182.519531 86.554688 182.714844 88.039062 C 182.910156 89.523438 183.0625 91.011719 183.171875 92.503906 C 183.28125 93.996094 183.347656 95.492188 183.371094 96.988281 C 183.398438 98.484375 183.378906 99.984375 183.320312 101.480469 C 183.261719 102.972656 183.160156 104.46875 183.015625 105.957031 C 182.871094 107.449219 182.683594 108.933594 182.457031 110.414062 C 182.230469 111.890625 181.960938 113.363281 181.648438 114.828125 C 181.335938 116.292969 180.984375 117.746094 180.589844 119.191406 C 180.195312 120.636719 179.761719 122.070312 179.289062 123.488281 C 178.8125 124.910156 178.296875 126.3125 177.742188 127.703125 C 177.1875 129.09375 176.597656 130.46875 175.964844 131.828125 C 175.332031 133.183594 174.664062 134.523438 173.953125 135.839844 C 173.246094 137.160156 172.503906 138.460938 171.722656 139.734375 C 170.941406 141.011719 170.121094 142.265625 169.269531 143.5 C 168.417969 144.730469 167.53125 145.933594 166.613281 147.117188 C 165.691406 148.296875 164.738281 149.449219 163.753906 150.578125 L 181.828125 168.660156 C 182.199219 169.027344 182.507812 169.445312 182.753906 169.90625 C 183 170.367188 183.171875 170.855469 183.277344 171.367188 C 183.378906 171.878906 183.402344 172.398438 183.351562 172.917969 C 183.300781 173.4375 183.175781 173.941406 182.972656 174.425781 C 182.773438 174.90625 182.507812 175.351562 182.175781 175.757812 C 181.84375 176.160156 181.460938 176.507812 181.027344 176.800781 C 180.589844 177.089844 180.121094 177.3125 179.621094 177.464844 C 179.121094 177.613281 178.609375 177.691406 178.085938 177.691406 Z M 104.007812 29.53125 C 102.882812 29.53125 101.757812 29.558594 100.632812 29.613281 C 99.507812 29.667969 98.386719 29.75 97.265625 29.863281 C 96.144531 29.972656 95.027344 30.109375 93.914062 30.273438 C 92.800781 30.441406 91.691406 30.632812 90.585938 30.851562 C 89.484375 31.070312 88.386719 31.320312 87.292969 31.59375 C 86.199219 31.867188 85.117188 32.164062 84.039062 32.492188 C 82.960938 32.820312 81.894531 33.171875 80.832031 33.550781 C 79.773438 33.929688 78.722656 34.335938 77.683594 34.765625 C 76.644531 35.199219 75.613281 35.652344 74.597656 36.136719 C 73.578125 36.617188 72.574219 37.121094 71.582031 37.652344 C 70.585938 38.183594 69.609375 38.738281 68.644531 39.316406 C 67.675781 39.894531 66.726562 40.5 65.789062 41.125 C 64.855469 41.75 63.933594 42.398438 63.03125 43.066406 C 62.125 43.738281 61.238281 44.429688 60.367188 45.144531 C 59.5 45.859375 58.644531 46.59375 57.8125 47.351562 C 56.976562 48.105469 56.164062 48.882812 55.367188 49.679688 C 54.570312 50.472656 53.792969 51.289062 53.039062 52.125 C 52.28125 52.957031 51.546875 53.808594 50.832031 54.679688 C 50.117188 55.550781 49.425781 56.4375 48.757812 57.34375 C 48.085938 58.246094 47.4375 59.167969 46.8125 60.101562 C 46.1875 61.039062 45.585938 61.988281 45.003906 62.953125 C 44.425781 63.921875 43.871094 64.898438 43.339844 65.890625 C 42.8125 66.886719 42.304688 67.890625 41.824219 68.910156 C 41.34375 69.925781 40.886719 70.953125 40.457031 71.996094 C 40.023438 73.035156 39.621094 74.085938 39.238281 75.144531 C 38.859375 76.203125 38.507812 77.273438 38.179688 78.351562 C 37.855469 79.429688 37.554688 80.511719 37.28125 81.605469 C 37.007812 82.695312 36.761719 83.796875 36.539062 84.898438 C 36.320312 86.003906 36.128906 87.113281 35.964844 88.226562 C 35.796875 89.339844 35.660156 90.457031 35.550781 91.578125 C 35.441406 92.695312 35.355469 93.820312 35.300781 94.945312 C 35.246094 96.070312 35.21875 97.195312 35.21875 98.320312 C 35.21875 99.445312 35.246094 100.570312 35.300781 101.695312 C 35.355469 102.820312 35.441406 103.941406 35.550781 105.0625 C 35.660156 106.183594 35.796875 107.300781 35.964844 108.414062 C 36.128906 109.527344 36.320312 110.636719 36.539062 111.738281 C 36.761719 112.84375 37.007812 113.941406 37.28125 115.035156 C 37.554688 116.125 37.855469 117.210938 38.179688 118.289062 C 38.507812 119.363281 38.859375 120.433594 39.238281 121.492188 C 39.621094 122.554688 40.023438 123.601562 40.457031 124.644531 C 40.886719 125.683594 41.34375 126.710938 41.824219 127.730469 C 42.304688 128.746094 42.8125 129.753906 43.339844 130.746094 C 43.871094 131.738281 44.425781 132.71875 45.003906 133.683594 C 45.585938 134.648438 46.1875 135.601562 46.8125 136.535156 C 47.4375 137.472656 48.085938 138.390625 48.757812 139.296875 C 49.425781 140.199219 50.117188 141.089844 50.832031 141.957031 C 51.546875 142.828125 52.28125 143.679688 53.039062 144.515625 C 53.792969 145.347656 54.570312 146.164062 55.367188 146.960938 C 56.164062 147.757812 56.976562 148.53125 57.8125 149.289062 C 58.644531 150.042969 59.5 150.78125 60.367188 151.492188 C 61.238281 152.207031 62.125 152.898438 63.03125 153.570312 C 63.933594 154.242188 64.855469 154.890625 65.789062 155.515625 C 66.726562 156.140625 67.675781 156.742188 68.644531 157.320312 C 69.609375 157.898438 70.585938 158.453125 71.582031 158.984375 C 72.574219 159.515625 73.578125 160.023438 74.597656 160.503906 C 75.613281 160.984375 76.644531 161.441406 77.683594 161.871094 C 78.722656 162.300781 79.773438 162.707031 80.832031 163.085938 C 81.894531 163.464844 82.960938 163.820312 84.039062 164.144531 C 85.117188 164.472656 86.199219 164.773438 87.292969 165.046875 C 88.386719 165.320312 89.484375 165.566406 90.585938 165.785156 C 91.691406 166.003906 92.800781 166.199219 93.914062 166.363281 C 95.027344 166.527344 96.144531 166.667969 97.265625 166.777344 C 98.386719 166.886719 99.507812 166.96875 100.632812 167.023438 C 101.757812 167.082031 102.882812 167.109375 104.007812 167.109375 L 165.3125 167.109375 L 152.644531 154.441406 C 152.398438 154.195312 152.179688 153.925781 151.988281 153.636719 C 151.796875 153.351562 151.632812 153.042969 151.5 152.722656 C 151.367188 152.402344 151.265625 152.070312 151.199219 151.730469 C 151.128906 151.390625 151.097656 151.046875 151.097656 150.699219 C 151.097656 150.351562 151.128906 150.007812 151.199219 149.667969 C 151.265625 149.328125 151.367188 148.996094 151.5 148.675781 C 151.632812 148.355469 151.796875 148.050781 151.988281 147.761719 C 152.179688 147.472656 152.398438 147.203125 152.644531 146.957031 C 153.839844 145.765625 154.988281 144.527344 156.09375 143.25 C 157.195312 141.96875 158.25 140.652344 159.257812 139.292969 C 160.261719 137.9375 161.21875 136.546875 162.121094 135.121094 C 163.023438 133.691406 163.875 132.234375 164.671875 130.746094 C 165.464844 129.253906 166.207031 127.738281 166.890625 126.195312 C 167.574219 124.648438 168.203125 123.082031 168.769531 121.492188 C 169.339844 119.902344 169.847656 118.292969 170.300781 116.664062 C 170.75 115.035156 171.140625 113.394531 171.46875 111.738281 C 171.800781 110.082031 172.066406 108.414062 172.273438 106.738281 C 172.480469 105.0625 172.625 103.382812 172.707031 101.695312 C 172.792969 100.007812 172.8125 98.320312 172.769531 96.628906 C 172.730469 94.941406 172.625 93.257812 172.460938 91.578125 C 172.292969 89.894531 172.066406 88.222656 171.777344 86.558594 C 171.488281 84.894531 171.140625 83.242188 170.730469 81.605469 C 170.320312 79.964844 169.847656 78.34375 169.320312 76.742188 C 168.789062 75.136719 168.203125 73.554688 167.554688 71.996094 C 166.910156 70.433594 166.207031 68.898438 165.445312 67.390625 C 164.6875 65.882812 163.871094 64.402344 163.003906 62.957031 C 162.136719 61.507812 161.214844 60.089844 160.242188 58.710938 C 159.269531 57.328125 158.25 55.984375 157.175781 54.679688 C 156.105469 53.375 154.988281 52.109375 153.824219 50.886719 C 152.65625 49.664062 151.449219 48.484375 150.199219 47.351562 C 148.945312 46.214844 147.65625 45.128906 146.324219 44.089844 C 144.992188 43.050781 143.625 42.0625 142.21875 41.125 C 140.816406 40.183594 139.378906 39.300781 137.910156 38.46875 C 136.441406 37.632812 134.941406 36.855469 133.414062 36.136719 C 131.886719 35.414062 130.335938 34.746094 128.761719 34.140625 C 127.183594 33.53125 125.589844 32.984375 123.972656 32.492188 C 122.355469 32.003906 120.726562 31.570312 119.078125 31.203125 C 117.429688 30.832031 115.769531 30.523438 114.097656 30.273438 C 112.429688 30.027344 110.75 29.839844 109.066406 29.71875 C 107.382812 29.59375 105.695312 29.53125 104.007812 29.53125 Z M 104.007812 29.53125"/><path fill="#0057FF" d="M 104.007812 156.523438 C 102.101562 156.523438 100.199219 156.433594 98.300781 156.246094 C 96.40625 156.058594 94.523438 155.777344 92.652344 155.40625 C 90.78125 155.035156 88.933594 154.570312 87.109375 154.019531 C 85.285156 153.464844 83.492188 152.824219 81.734375 152.09375 C 79.972656 151.363281 78.25 150.550781 76.570312 149.652344 C 74.886719 148.753906 73.253906 147.773438 71.671875 146.714844 C 70.085938 145.65625 68.554688 144.523438 67.082031 143.3125 C 65.609375 142.105469 64.199219 140.824219 62.851562 139.476562 C 61.5 138.128906 60.222656 136.71875 59.015625 135.246094 C 57.804688 133.769531 56.671875 132.242188 55.609375 130.65625 C 54.550781 129.070312 53.574219 127.4375 52.675781 125.757812 C 51.777344 124.074219 50.960938 122.355469 50.230469 120.59375 C 49.503906 118.832031 48.863281 117.039062 48.308594 115.214844 C 47.753906 113.390625 47.292969 111.542969 46.921875 109.675781 C 46.546875 107.804688 46.269531 105.921875 46.082031 104.023438 C 45.894531 102.128906 45.800781 100.226562 45.800781 98.320312 C 45.800781 96.414062 45.894531 94.511719 46.082031 92.613281 C 46.269531 90.71875 46.546875 88.832031 46.921875 86.964844 C 47.292969 85.09375 47.753906 83.246094 48.308594 81.421875 C 48.863281 79.597656 49.503906 77.804688 50.230469 76.042969 C 50.960938 74.285156 51.777344 72.5625 52.675781 70.882812 C 53.574219 69.199219 54.550781 67.566406 55.609375 65.980469 C 56.671875 64.398438 57.804688 62.867188 59.015625 61.394531 C 60.222656 59.921875 61.5 58.507812 62.851562 57.160156 C 64.199219 55.8125 65.609375 54.535156 67.082031 53.324219 C 68.554688 52.117188 70.085938 50.980469 71.671875 49.921875 C 73.253906 48.863281 74.886719 47.886719 76.570312 46.988281 C 78.25 46.085938 79.972656 45.273438 81.734375 44.542969 C 83.492188 43.816406 85.285156 43.171875 87.109375 42.621094 C 88.933594 42.066406 90.78125 41.605469 92.652344 41.230469 C 94.523438 40.859375 96.40625 40.582031 98.300781 40.394531 C 100.199219 40.207031 102.101562 40.113281 104.007812 40.113281 C 105.914062 40.113281 107.816406 40.207031 109.710938 40.394531 C 111.609375 40.582031 113.492188 40.859375 115.363281 41.230469 C 117.230469 41.605469 119.078125 42.066406 120.902344 42.621094 C 122.726562 43.171875 124.519531 43.816406 126.28125 44.542969 C 128.042969 45.273438 129.765625 46.085938 131.445312 46.988281 C 133.125 47.886719 134.757812 48.863281 136.34375 49.921875 C 137.929688 50.980469 139.457031 52.117188 140.933594 53.324219 C 142.40625 54.535156 143.816406 55.8125 145.164062 57.160156 C 146.511719 58.507812 147.792969 59.921875 149 61.394531 C 150.210938 62.867188 151.34375 64.398438 152.402344 65.980469 C 153.460938 67.566406 154.441406 69.199219 155.339844 70.882812 C 156.238281 72.5625 157.050781 74.285156 157.78125 76.042969 C 158.511719 77.804688 159.152344 79.597656 159.707031 81.421875 C 160.261719 83.246094 160.722656 85.09375 161.09375 86.964844 C 161.464844 88.832031 161.746094 90.71875 161.933594 92.613281 C 162.121094 94.511719 162.210938 96.414062 162.210938 98.320312 C 162.210938 100.226562 162.113281 102.125 161.925781 104.023438 C 161.738281 105.917969 161.457031 107.800781 161.082031 109.671875 C 160.710938 111.539062 160.246094 113.382812 159.691406 115.207031 C 159.136719 117.03125 158.492188 118.824219 157.765625 120.582031 C 157.035156 122.34375 156.21875 124.0625 155.320312 125.742188 C 154.421875 127.425781 153.441406 129.054688 152.382812 130.640625 C 151.324219 132.226562 150.1875 133.753906 148.980469 135.226562 C 147.769531 136.699219 146.492188 138.109375 145.144531 139.457031 C 143.796875 140.804688 142.386719 142.082031 140.914062 143.292969 C 139.441406 144.5 137.914062 145.636719 136.328125 146.695312 C 134.742188 147.753906 133.113281 148.734375 131.429688 149.632812 C 129.75 150.53125 128.03125 151.347656 126.269531 152.074219 C 124.511719 152.804688 122.71875 153.449219 120.894531 154.003906 C 119.074219 154.558594 117.226562 155.023438 115.359375 155.394531 C 113.488281 155.769531 111.605469 156.050781 109.710938 156.238281 C 107.8125 156.425781 105.914062 156.523438 104.007812 156.523438 Z M 104.007812 50.695312 C 102.449219 50.695312 100.890625 50.773438 99.339844 50.925781 C 97.789062 51.078125 96.246094 51.308594 94.714844 51.613281 C 93.1875 51.914062 91.675781 52.292969 90.183594 52.746094 C 88.691406 53.199219 87.222656 53.722656 85.78125 54.320312 C 84.34375 54.917969 82.933594 55.585938 81.558594 56.320312 C 80.183594 57.054688 78.847656 57.855469 77.550781 58.722656 C 76.253906 59.589844 75 60.515625 73.796875 61.507812 C 72.589844 62.496094 71.4375 63.542969 70.332031 64.644531 C 69.230469 65.746094 68.183594 66.902344 67.195312 68.109375 C 66.203125 69.3125 65.277344 70.566406 64.410156 71.863281 C 63.542969 73.160156 62.742188 74.496094 62.007812 75.871094 C 61.273438 77.246094 60.605469 78.652344 60.007812 80.09375 C 59.414062 81.535156 58.886719 83.003906 58.433594 84.496094 C 57.980469 85.988281 57.605469 87.5 57.300781 89.027344 C 56.996094 90.558594 56.765625 92.097656 56.613281 93.652344 C 56.460938 95.203125 56.382812 96.757812 56.382812 98.320312 C 56.382812 99.878906 56.460938 101.433594 56.613281 102.988281 C 56.765625 104.539062 56.996094 106.082031 57.300781 107.609375 C 57.605469 109.140625 57.980469 110.652344 58.433594 112.144531 C 58.886719 113.636719 59.414062 115.101562 60.007812 116.542969 C 60.605469 117.984375 61.273438 119.394531 62.007812 120.769531 C 62.742188 122.144531 63.542969 123.480469 64.410156 124.777344 C 65.277344 126.074219 66.203125 127.324219 67.195312 128.53125 C 68.183594 129.738281 69.230469 130.890625 70.332031 131.992188 C 71.4375 133.097656 72.589844 134.144531 73.796875 135.132812 C 75 136.121094 76.253906 137.050781 77.550781 137.917969 C 78.847656 138.78125 80.183594 139.582031 81.558594 140.320312 C 82.933594 141.054688 84.34375 141.71875 85.78125 142.316406 C 87.222656 142.914062 88.691406 143.4375 90.183594 143.890625 C 91.675781 144.34375 93.1875 144.722656 94.714844 145.027344 C 96.246094 145.332031 97.789062 145.558594 99.339844 145.714844 C 100.890625 145.867188 102.449219 145.941406 104.007812 145.941406 C 105.566406 145.941406 107.121094 145.867188 108.675781 145.714844 C 110.226562 145.558594 111.769531 145.332031 113.296875 145.027344 C 114.828125 144.722656 116.339844 144.34375 117.832031 143.890625 C 119.324219 143.4375 120.789062 142.914062 122.230469 142.316406 C 123.671875 141.71875 125.082031 141.054688 126.457031 140.320312 C 127.832031 139.582031 129.167969 138.78125 130.464844 137.917969 C 131.761719 137.050781 133.011719 136.121094 134.21875 135.132812 C 135.425781 134.144531 136.578125 133.097656 137.679688 131.992188 C 138.785156 130.890625 139.832031 129.738281 140.820312 128.53125 C 141.808594 127.324219 142.738281 126.074219 143.605469 124.777344 C 144.46875 123.480469 145.269531 122.144531 146.007812 120.769531 C 146.742188 119.394531 147.40625 117.984375 148.003906 116.542969 C 148.601562 115.101562 149.125 113.636719 149.578125 112.144531 C 150.03125 110.652344 150.410156 109.140625 150.714844 107.609375 C 151.019531 106.082031 151.246094 104.539062 151.402344 102.988281 C 151.554688 101.433594 151.628906 99.878906 151.628906 98.320312 C 151.628906 96.761719 151.550781 95.203125 151.394531 93.652344 C 151.242188 92.101562 151.011719 90.5625 150.707031 89.03125 C 150.402344 87.503906 150.019531 85.992188 149.566406 84.5 C 149.113281 83.007812 148.589844 81.542969 147.992188 80.101562 C 147.394531 78.664062 146.726562 77.253906 145.992188 75.878906 C 145.253906 74.503906 144.453125 73.171875 143.585938 71.875 C 142.722656 70.578125 141.792969 69.328125 140.804688 68.121094 C 139.816406 66.917969 138.769531 65.761719 137.667969 64.660156 C 136.5625 63.558594 135.410156 62.511719 134.203125 61.523438 C 133 60.53125 131.75 59.605469 130.453125 58.738281 C 129.15625 57.871094 127.820312 57.070312 126.445312 56.335938 C 125.070312 55.597656 123.664062 54.933594 122.222656 54.335938 C 120.785156 53.738281 119.316406 53.210938 117.824219 52.757812 C 116.332031 52.304688 114.824219 51.925781 113.292969 51.621094 C 111.765625 51.316406 110.226562 51.085938 108.671875 50.929688 C 107.121094 50.777344 105.566406 50.699219 104.007812 50.695312 Z M 104.007812 50.695312"/><path fill="#0057FF" d="M 98.714844 45.40625 L 109.296875 45.40625 L 109.296875 61.277344 L 98.714844 61.277344 Z M 98.714844 45.40625"/><path fill="#0057FF" d="M 98.714844 135.359375 L 109.296875 135.359375 L 109.296875 151.234375 L 98.714844 151.234375 Z M 98.714844 135.359375"/><path fill="#0057FF" d="M 141.046875 93.027344 L 156.921875 93.027344 L 156.921875 103.609375 L 141.046875 103.609375 Z M 141.046875 93.027344"/><path fill="#0057FF" d="M 51.09375 93.027344 L 66.96875 93.027344 L 66.96875 103.609375 L 51.09375 103.609375 Z M 51.09375 93.027344"/><path fill="#0057FF" d="M 126.449219 68.386719 L 137.675781 57.160156 L 145.160156 64.644531 L 133.933594 75.867188 Z M 126.449219 68.386719"/><path fill="#0057FF" d="M 62.851562 131.996094 L 74.074219 120.769531 L 81.558594 128.253906 L 70.332031 139.480469 Z M 62.851562 131.996094"/><path fill="#0057FF" d="M 126.460938 128.25 L 133.945312 120.765625 L 145.171875 131.992188 L 137.6875 139.476562 Z M 126.460938 128.25"/><path fill="#0057FF" d="M 62.851562 64.644531 L 70.332031 57.160156 L 81.558594 68.382812 L 74.078125 75.867188 Z M 62.851562 64.644531"/><path fill="#0057FF" d="M 116.140625 117.933594 L 100.265625 102.058594 C 99.769531 101.5625 99.386719 100.992188 99.117188 100.34375 C 98.851562 99.695312 98.714844 99.019531 98.714844 98.320312 L 98.714844 71.863281 L 109.296875 71.863281 L 109.296875 96.128906 L 123.621094 110.453125 Z M 116.140625 117.933594"/><path fill="#0057FF" d="M 51.09375 278.226562 L 61.675781 278.226562 L 61.675781 288.8125 L 51.09375 288.8125 Z M 51.09375 278.226562"/><path fill="#0057FF" d="M 66.96875 278.226562 L 77.550781 278.226562 L 77.550781 288.8125 L 66.96875 288.8125 Z M 66.96875 278.226562"/></svg>