<svg xmlns="http://www.w3.org/2000/svg" width="375" viewBox="0 0 375 375" height="375" version="1.0"><defs><clipPath id="a"><path d="M 102 31.453125 L 161 31.453125 L 161 91 L 102 91 Z M 102 31.453125"/></clipPath><clipPath id="b"><path d="M 66 102 L 220 102 L 220 337.453125 L 66 337.453125 Z M 66 102"/></clipPath><clipPath id="c"><path d="M 43.3125 243 L 161 243 L 161 267 L 43.3125 267 Z M 43.3125 243"/></clipPath><clipPath id="d"><path d="M 160 172 L 337.3125 172 L 337.3125 185 L 160 185 Z M 160 172"/></clipPath></defs><g clip-path="url(#a)"><path fill="#0057FF" d="M 160.914062 60.910156 C 160.914062 61.871094 160.867188 62.832031 160.769531 63.792969 C 160.675781 64.75 160.535156 65.703125 160.347656 66.648438 C 160.160156 67.59375 159.925781 68.527344 159.648438 69.449219 C 159.367188 70.371094 159.042969 71.273438 158.675781 72.164062 C 158.304688 73.054688 157.894531 73.925781 157.441406 74.773438 C 156.988281 75.625 156.492188 76.449219 155.957031 77.25 C 155.421875 78.050781 154.851562 78.824219 154.238281 79.570312 C 153.628906 80.3125 152.980469 81.027344 152.300781 81.707031 C 151.621094 82.390625 150.90625 83.035156 150.164062 83.648438 C 149.417969 84.257812 148.648438 84.832031 147.847656 85.367188 C 147.046875 85.902344 146.222656 86.398438 145.371094 86.851562 C 144.523438 87.304688 143.652344 87.714844 142.761719 88.085938 C 141.875 88.453125 140.96875 88.777344 140.046875 89.058594 C 139.125 89.335938 138.191406 89.570312 137.25 89.757812 C 136.304688 89.945312 135.351562 90.089844 134.394531 90.183594 C 133.4375 90.277344 132.476562 90.324219 131.511719 90.324219 C 130.550781 90.324219 129.589844 90.277344 128.628906 90.183594 C 127.671875 90.089844 126.722656 89.945312 125.777344 89.757812 C 124.832031 89.570312 123.898438 89.335938 122.976562 89.058594 C 122.058594 88.777344 121.152344 88.453125 120.261719 88.085938 C 119.371094 87.714844 118.503906 87.304688 117.652344 86.851562 C 116.804688 86.398438 115.980469 85.902344 115.179688 85.367188 C 114.378906 84.832031 113.605469 84.257812 112.863281 83.648438 C 112.117188 83.035156 111.40625 82.390625 110.722656 81.707031 C 110.042969 81.027344 109.398438 80.3125 108.785156 79.570312 C 108.175781 78.824219 107.601562 78.050781 107.066406 77.25 C 106.53125 76.449219 106.039062 75.625 105.585938 74.773438 C 105.128906 73.925781 104.71875 73.054688 104.351562 72.164062 C 103.980469 71.273438 103.65625 70.371094 103.378906 69.449219 C 103.097656 68.527344 102.867188 67.59375 102.675781 66.648438 C 102.488281 65.703125 102.347656 64.75 102.253906 63.792969 C 102.160156 62.832031 102.113281 61.871094 102.113281 60.910156 C 102.113281 59.945312 102.160156 58.984375 102.253906 58.027344 C 102.347656 57.066406 102.488281 56.113281 102.675781 55.171875 C 102.867188 54.226562 103.097656 53.292969 103.378906 52.371094 C 103.65625 51.449219 103.980469 50.542969 104.351562 49.652344 C 104.71875 48.761719 105.128906 47.890625 105.585938 47.042969 C 106.039062 46.191406 106.53125 45.367188 107.066406 44.566406 C 107.601562 43.765625 108.175781 42.992188 108.785156 42.246094 C 109.398438 41.503906 110.042969 40.789062 110.722656 40.109375 C 111.40625 39.425781 112.117188 38.78125 112.863281 38.171875 C 113.605469 37.558594 114.378906 36.984375 115.179688 36.449219 C 115.980469 35.914062 116.804688 35.421875 117.652344 34.964844 C 118.503906 34.511719 119.371094 34.101562 120.261719 33.730469 C 121.152344 33.363281 122.058594 33.039062 122.976562 32.761719 C 123.898438 32.480469 124.832031 32.246094 125.777344 32.058594 C 126.722656 31.871094 127.671875 31.730469 128.628906 31.636719 C 129.589844 31.539062 130.550781 31.492188 131.511719 31.492188 C 132.476562 31.492188 133.4375 31.539062 134.394531 31.636719 C 135.351562 31.730469 136.304688 31.871094 137.25 32.058594 C 138.191406 32.246094 139.125 32.480469 140.046875 32.761719 C 140.96875 33.039062 141.875 33.363281 142.761719 33.730469 C 143.652344 34.101562 144.523438 34.511719 145.371094 34.964844 C 146.222656 35.421875 147.046875 35.914062 147.847656 36.449219 C 148.648438 36.984375 149.417969 37.558594 150.164062 38.171875 C 150.90625 38.78125 151.621094 39.425781 152.300781 40.109375 C 152.980469 40.789062 153.628906 41.503906 154.238281 42.246094 C 154.851562 42.992188 155.421875 43.765625 155.957031 44.566406 C 156.492188 45.367188 156.988281 46.191406 157.441406 47.042969 C 157.894531 47.890625 158.304688 48.761719 158.675781 49.652344 C 159.042969 50.542969 159.367188 51.449219 159.648438 52.371094 C 159.925781 53.292969 160.160156 54.226562 160.347656 55.171875 C 160.535156 56.113281 160.675781 57.066406 160.769531 58.027344 C 160.867188 58.984375 160.914062 59.945312 160.914062 60.910156 Z M 160.914062 60.910156"/></g><g clip-path="url(#b)"><path fill="#0057FF" d="M 137.390625 196.21875 L 137.390625 160.921875 L 196.191406 160.921875 L 196.191406 137.386719 L 137.390625 137.386719 L 137.390625 102.089844 L 90.351562 102.089844 L 66.832031 231.519531 L 172.671875 231.519531 L 172.671875 337.414062 L 196.191406 337.414062 L 219.710938 196.21875 Z M 137.390625 196.21875"/></g><g clip-path="url(#c)"><path fill="#0057FF" d="M 43.3125 243.285156 L 160.914062 243.285156 L 160.914062 266.816406 L 43.3125 266.816406 Z M 43.3125 243.285156"/></g><g clip-path="url(#d)"><path fill="#0057FF" d="M 160.914062 172.6875 L 337.3125 172.6875 L 337.3125 184.453125 L 160.914062 184.453125 Z M 160.914062 172.6875"/></g><path fill="#0057FF" d="M 288.4375 160.921875 L 207.953125 160.921875 L 207.953125 149.15625 L 280.347656 149.15625 L 308.300781 76.441406 L 319.285156 80.675781 Z M 288.4375 160.921875"/></svg>