<svg xmlns="http://www.w3.org/2000/svg" width="375" viewBox="0 0 375 375" height="375" version="1.0"><defs><clipPath id="a"><path d="M 37.5 37.5 L 337.5 37.5 L 337.5 337.5 L 37.5 337.5 Z M 37.5 37.5"/></clipPath></defs><g clip-path="url(#a)"><path fill="#0057FF" d="M 324.457031 89.675781 L 252.71875 89.675781 L 252.71875 87.914062 C 252.714844 86.261719 252.632812 84.617188 252.46875 82.972656 C 252.304688 81.332031 252.0625 79.699219 251.738281 78.082031 C 251.414062 76.464844 251.011719 74.863281 250.53125 73.285156 C 250.050781 71.707031 249.496094 70.15625 248.863281 68.632812 C 248.230469 67.105469 247.523438 65.617188 246.746094 64.160156 C 245.964844 62.707031 245.117188 61.292969 244.203125 59.921875 C 243.285156 58.546875 242.300781 57.222656 241.253906 55.949219 C 240.207031 54.671875 239.101562 53.453125 237.933594 52.285156 C 236.765625 51.117188 235.542969 50.011719 234.269531 48.964844 C 232.992188 47.914062 231.667969 46.933594 230.296875 46.015625 C 228.925781 45.097656 227.511719 44.25 226.054688 43.472656 C 224.601562 42.691406 223.109375 41.988281 221.585938 41.355469 C 220.0625 40.722656 218.511719 40.164062 216.929688 39.683594 C 215.351562 39.203125 213.753906 38.804688 212.136719 38.480469 C 210.515625 38.15625 208.886719 37.914062 207.242188 37.75 C 205.601562 37.585938 203.953125 37.503906 202.304688 37.5 L 172.695312 37.5 C 171.046875 37.503906 169.398438 37.585938 167.757812 37.75 C 166.113281 37.914062 164.484375 38.15625 162.863281 38.480469 C 161.246094 38.804688 159.648438 39.203125 158.070312 39.683594 C 156.488281 40.164062 154.9375 40.722656 153.414062 41.355469 C 151.890625 41.988281 150.398438 42.691406 148.945312 43.472656 C 147.488281 44.25 146.074219 45.097656 144.703125 46.015625 C 143.332031 46.933594 142.007812 47.914062 140.730469 48.964844 C 139.457031 50.011719 138.234375 51.117188 137.066406 52.285156 C 135.898438 53.453125 134.792969 54.671875 133.746094 55.949219 C 132.699219 57.222656 131.714844 58.546875 130.796875 59.921875 C 129.882812 61.292969 129.035156 62.707031 128.253906 64.160156 C 127.476562 65.617188 126.769531 67.105469 126.136719 68.632812 C 125.503906 70.15625 124.949219 71.707031 124.46875 73.285156 C 123.988281 74.863281 123.585938 76.464844 123.261719 78.082031 C 122.9375 79.699219 122.695312 81.332031 122.53125 82.972656 C 122.367188 84.617188 122.285156 86.261719 122.28125 87.914062 L 122.28125 89.675781 L 50.542969 89.675781 C 49.6875 89.675781 48.839844 89.757812 48 89.925781 C 47.160156 90.089844 46.34375 90.339844 45.550781 90.667969 C 44.761719 90.996094 44.007812 91.394531 43.296875 91.871094 C 42.585938 92.347656 41.925781 92.886719 41.320312 93.496094 C 40.714844 94.101562 40.175781 94.757812 39.699219 95.472656 C 39.222656 96.183594 38.820312 96.933594 38.492188 97.726562 C 38.164062 98.515625 37.917969 99.332031 37.75 100.171875 C 37.582031 101.011719 37.5 101.859375 37.5 102.71875 L 37.5 324.457031 C 37.5 325.3125 37.582031 326.160156 37.75 327 C 37.917969 327.839844 38.164062 328.65625 38.492188 329.449219 C 38.820312 330.238281 39.222656 330.992188 39.699219 331.703125 C 40.175781 332.414062 40.714844 333.074219 41.320312 333.679688 C 41.925781 334.285156 42.585938 334.824219 43.296875 335.300781 C 44.007812 335.777344 44.761719 336.179688 45.550781 336.507812 C 46.34375 336.835938 47.160156 337.082031 48 337.25 C 48.839844 337.417969 49.6875 337.5 50.542969 337.5 L 324.457031 337.5 C 325.3125 337.5 326.160156 337.417969 327 337.25 C 327.839844 337.082031 328.65625 336.835938 329.449219 336.507812 C 330.238281 336.179688 330.992188 335.777344 331.703125 335.300781 C 332.414062 334.824219 333.074219 334.285156 333.679688 333.679688 C 334.285156 333.074219 334.824219 332.414062 335.300781 331.703125 C 335.777344 330.992188 336.179688 330.238281 336.507812 329.449219 C 336.835938 328.65625 337.082031 327.839844 337.25 327 C 337.417969 326.160156 337.5 325.3125 337.5 324.457031 L 337.5 102.71875 C 337.5 101.859375 337.417969 101.011719 337.25 100.171875 C 337.082031 99.332031 336.835938 98.515625 336.507812 97.726562 C 336.179688 96.933594 335.777344 96.183594 335.300781 95.472656 C 334.824219 94.757812 334.285156 94.101562 333.679688 93.496094 C 333.074219 92.886719 332.414062 92.347656 331.703125 91.871094 C 330.992188 91.394531 330.238281 90.996094 329.449219 90.667969 C 328.65625 90.339844 327.839844 90.089844 327 89.925781 C 326.160156 89.757812 325.3125 89.675781 324.457031 89.675781 Z M 148.371094 87.914062 C 148.371094 87.117188 148.414062 86.324219 148.492188 85.53125 C 148.574219 84.738281 148.691406 83.953125 148.847656 83.171875 C 149.003906 82.390625 149.199219 81.621094 149.429688 80.859375 C 149.664062 80.097656 149.933594 79.347656 150.238281 78.613281 C 150.542969 77.878906 150.886719 77.160156 151.261719 76.457031 C 151.636719 75.757812 152.046875 75.074219 152.488281 74.414062 C 152.933594 73.75 153.40625 73.113281 153.910156 72.5 C 154.417969 71.882812 154.949219 71.292969 155.511719 70.730469 C 156.078125 70.167969 156.664062 69.632812 157.28125 69.128906 C 157.894531 68.625 158.535156 68.148438 159.195312 67.707031 C 159.859375 67.265625 160.539062 66.855469 161.242188 66.476562 C 161.941406 66.101562 162.660156 65.761719 163.398438 65.457031 C 164.132812 65.148438 164.878906 64.882812 165.640625 64.648438 C 166.402344 64.417969 167.175781 64.222656 167.953125 64.066406 C 168.734375 63.910156 169.519531 63.789062 170.3125 63.710938 C 171.105469 63.628906 171.898438 63.589844 172.695312 63.585938 L 202.238281 63.585938 C 203.035156 63.585938 203.832031 63.625 204.625 63.703125 C 205.417969 63.78125 206.207031 63.898438 206.988281 64.054688 C 207.773438 64.210938 208.542969 64.402344 209.308594 64.632812 C 210.070312 64.863281 210.820312 65.132812 211.558594 65.4375 C 212.296875 65.742188 213.015625 66.082031 213.71875 66.457031 C 214.421875 66.832031 215.105469 67.242188 215.769531 67.683594 C 216.433594 68.125 217.074219 68.601562 217.691406 69.105469 C 218.308594 69.609375 218.898438 70.144531 219.464844 70.707031 C 220.027344 71.269531 220.5625 71.859375 221.070312 72.476562 C 221.578125 73.09375 222.054688 73.730469 222.496094 74.394531 C 222.941406 75.054688 223.351562 75.738281 223.730469 76.441406 C 224.105469 77.144531 224.449219 77.863281 224.753906 78.597656 C 225.0625 79.335938 225.332031 80.085938 225.566406 80.847656 C 225.796875 81.609375 225.992188 82.382812 226.152344 83.164062 C 226.308594 83.945312 226.425781 84.734375 226.507812 85.527344 C 226.585938 86.320312 226.628906 87.117188 226.628906 87.914062 L 226.628906 89.675781 L 148.371094 89.675781 Z M 135.324219 115.761719 L 311.414062 115.761719 L 311.414062 187.5 L 220.109375 187.5 L 220.109375 174.457031 C 220.109375 173.601562 220.023438 172.75 219.859375 171.910156 C 219.691406 171.070312 219.445312 170.257812 219.117188 169.464844 C 218.789062 168.671875 218.386719 167.921875 217.910156 167.210938 C 217.433594 166.496094 216.894531 165.839844 216.289062 165.234375 C 215.683594 164.628906 215.023438 164.085938 214.3125 163.609375 C 213.601562 163.136719 212.847656 162.734375 212.058594 162.40625 C 211.265625 162.078125 210.449219 161.832031 209.609375 161.664062 C 208.769531 161.496094 207.921875 161.414062 207.066406 161.414062 L 167.933594 161.414062 C 167.078125 161.414062 166.230469 161.496094 165.390625 161.664062 C 164.550781 161.832031 163.734375 162.078125 162.941406 162.40625 C 162.152344 162.734375 161.398438 163.136719 160.6875 163.609375 C 159.976562 164.085938 159.316406 164.628906 158.710938 165.234375 C 158.105469 165.839844 157.566406 166.496094 157.089844 167.210938 C 156.613281 167.921875 156.210938 168.671875 155.882812 169.464844 C 155.554688 170.257812 155.308594 171.070312 155.140625 171.910156 C 154.976562 172.75 154.890625 173.601562 154.890625 174.457031 L 154.890625 187.5 L 63.585938 187.5 L 63.585938 115.761719 Z M 194.023438 187.5 L 194.023438 213.585938 L 180.976562 213.585938 L 180.976562 187.5 Z M 63.585938 311.414062 L 63.585938 213.585938 L 154.890625 213.585938 L 154.890625 226.628906 C 154.890625 227.488281 154.976562 228.335938 155.140625 229.175781 C 155.308594 230.015625 155.554688 230.832031 155.882812 231.621094 C 156.210938 232.414062 156.613281 233.164062 157.089844 233.878906 C 157.566406 234.589844 158.105469 235.246094 158.710938 235.855469 C 159.316406 236.460938 159.976562 237 160.6875 237.476562 C 161.398438 237.953125 162.152344 238.351562 162.941406 238.679688 C 163.734375 239.007812 164.550781 239.257812 165.390625 239.421875 C 166.230469 239.589844 167.078125 239.675781 167.933594 239.675781 L 207.066406 239.675781 C 207.921875 239.675781 208.769531 239.589844 209.609375 239.421875 C 210.449219 239.257812 211.265625 239.007812 212.058594 238.679688 C 212.847656 238.351562 213.601562 237.953125 214.3125 237.476562 C 215.023438 237 215.683594 236.460938 216.289062 235.855469 C 216.894531 235.246094 217.433594 234.589844 217.910156 233.878906 C 218.386719 233.164062 218.789062 232.414062 219.117188 231.621094 C 219.445312 230.832031 219.691406 230.015625 219.859375 229.175781 C 220.023438 228.335938 220.109375 227.488281 220.109375 226.628906 L 220.109375 213.585938 L 311.414062 213.585938 L 311.414062 311.414062 Z M 63.585938 311.414062"/></g></svg>