<svg xmlns="http://www.w3.org/2000/svg" width="375" viewBox="0 0 375 375" height="375" version="1.0"><defs><clipPath id="a"><path d="M 86 9.394531 L 155 9.394531 L 155 78 L 86 78 Z M 86 9.394531"/></clipPath><clipPath id="b"><path d="M 45 91 L 223 91 L 223 364.144531 L 45 364.144531 Z M 45 91"/></clipPath><clipPath id="c"><path d="M 18.050781 254 L 155 254 L 155 283 L 18.050781 283 Z M 18.050781 254"/></clipPath><clipPath id="d"><path d="M 154 173 L 358.550781 173 L 358.550781 187 L 154 187 Z M 154 173"/></clipPath></defs><g clip-path="url(#a)"><path fill="#0057FF" d="M 154.25 43.542969 C 154.25 44.660156 154.195312 45.773438 154.085938 46.886719 C 153.976562 47.996094 153.816406 49.101562 153.597656 50.195312 C 153.378906 51.292969 153.109375 52.375 152.785156 53.441406 C 152.460938 54.511719 152.085938 55.5625 151.660156 56.59375 C 151.234375 57.625 150.757812 58.632812 150.230469 59.617188 C 149.707031 60.601562 149.132812 61.558594 148.511719 62.488281 C 147.894531 63.417969 147.230469 64.3125 146.523438 65.175781 C 145.816406 66.039062 145.066406 66.867188 144.277344 67.65625 C 143.488281 68.445312 142.664062 69.195312 141.804688 69.902344 C 140.941406 70.613281 140.046875 71.277344 139.117188 71.898438 C 138.191406 72.519531 137.234375 73.089844 136.253906 73.617188 C 135.269531 74.144531 134.261719 74.621094 133.230469 75.046875 C 132.203125 75.476562 131.152344 75.851562 130.085938 76.175781 C 129.019531 76.5 127.9375 76.769531 126.84375 76.988281 C 125.75 77.207031 124.648438 77.371094 123.539062 77.480469 C 122.429688 77.589844 121.316406 77.644531 120.203125 77.644531 C 119.085938 77.644531 117.972656 77.589844 116.863281 77.480469 C 115.753906 77.371094 114.652344 77.207031 113.558594 76.988281 C 112.464844 76.769531 111.382812 76.5 110.316406 76.175781 C 109.25 75.851562 108.203125 75.476562 107.171875 75.046875 C 106.140625 74.621094 105.132812 74.144531 104.152344 73.617188 C 103.167969 73.089844 102.210938 72.519531 101.285156 71.898438 C 100.355469 71.277344 99.460938 70.613281 98.601562 69.902344 C 97.738281 69.195312 96.914062 68.445312 96.125 67.65625 C 95.335938 66.867188 94.589844 66.039062 93.878906 65.175781 C 93.171875 64.3125 92.507812 63.417969 91.890625 62.488281 C 91.269531 61.558594 90.699219 60.601562 90.171875 59.617188 C 89.648438 58.632812 89.171875 57.625 88.742188 56.59375 C 88.316406 55.5625 87.941406 54.511719 87.617188 53.441406 C 87.292969 52.375 87.023438 51.292969 86.804688 50.195312 C 86.589844 49.101562 86.425781 47.996094 86.316406 46.886719 C 86.207031 45.773438 86.152344 44.660156 86.152344 43.542969 C 86.152344 42.425781 86.207031 41.3125 86.316406 40.199219 C 86.425781 39.089844 86.589844 37.984375 86.804688 36.890625 C 87.023438 35.792969 87.292969 34.710938 87.617188 33.644531 C 87.941406 32.574219 88.316406 31.523438 88.742188 30.492188 C 89.171875 29.460938 89.648438 28.453125 90.171875 27.46875 C 90.699219 26.484375 91.269531 25.527344 91.890625 24.597656 C 92.507812 23.667969 93.171875 22.773438 93.878906 21.910156 C 94.589844 21.046875 95.335938 20.21875 96.125 19.429688 C 96.914062 18.640625 97.738281 17.890625 98.601562 17.183594 C 99.460938 16.472656 100.355469 15.808594 101.285156 15.1875 C 102.210938 14.566406 103.167969 13.996094 104.152344 13.46875 C 105.132812 12.941406 106.140625 12.464844 107.171875 12.039062 C 108.203125 11.609375 109.25 11.234375 110.316406 10.910156 C 111.382812 10.585938 112.464844 10.316406 113.558594 10.097656 C 114.652344 9.878906 115.753906 9.714844 116.863281 9.605469 C 117.972656 9.496094 119.085938 9.441406 120.203125 9.441406 C 121.316406 9.441406 122.429688 9.496094 123.539062 9.605469 C 124.648438 9.714844 125.75 9.878906 126.84375 10.097656 C 127.9375 10.316406 129.019531 10.585938 130.085938 10.910156 C 131.152344 11.234375 132.203125 11.609375 133.230469 12.039062 C 134.261719 12.464844 135.269531 12.941406 136.253906 13.46875 C 137.234375 13.996094 138.191406 14.566406 139.117188 15.1875 C 140.046875 15.808594 140.941406 16.472656 141.804688 17.183594 C 142.664062 17.890625 143.488281 18.640625 144.277344 19.429688 C 145.066406 20.21875 145.816406 21.046875 146.523438 21.910156 C 147.230469 22.773438 147.894531 23.667969 148.511719 24.597656 C 149.132812 25.527344 149.707031 26.484375 150.230469 27.46875 C 150.757812 28.453125 151.234375 29.460938 151.660156 30.492188 C 152.085938 31.523438 152.460938 32.574219 152.785156 33.644531 C 153.109375 34.710938 153.378906 35.792969 153.597656 36.890625 C 153.816406 37.984375 153.976562 39.089844 154.085938 40.199219 C 154.195312 41.3125 154.25 42.425781 154.25 43.542969 Z M 154.25 43.542969"/></g><g clip-path="url(#b)"><path fill="#0057FF" d="M 127.011719 200.410156 L 127.011719 159.488281 L 195.113281 159.488281 L 195.113281 132.207031 L 127.011719 132.207031 L 127.011719 91.285156 L 72.53125 91.285156 L 45.292969 241.332031 L 167.871094 241.332031 L 167.871094 364.09375 L 195.113281 364.09375 L 222.351562 200.410156 Z M 127.011719 200.410156"/></g><g clip-path="url(#c)"><path fill="#0057FF" d="M 18.050781 254.972656 L 154.25 254.972656 L 154.25 282.25 L 18.050781 282.25 Z M 18.050781 254.972656"/></g><g clip-path="url(#d)"><path fill="#0057FF" d="M 154.25 173.128906 L 358.550781 173.128906 L 358.550781 186.769531 L 154.25 186.769531 Z M 154.25 173.128906"/></g><path fill="#0057FF" d="M 301.945312 159.488281 L 208.730469 159.488281 L 208.730469 145.847656 L 292.578125 145.847656 L 324.949219 61.546875 L 337.671875 66.460938 Z M 301.945312 159.488281"/></svg>